<?xml version="1.0" standalone="no"?>
<!DOCTYPE svg PUBLIC "-//W3C//DTD SVG 20010904//EN"
 "http://www.w3.org/TR/2001/REC-SVG-20010904/DTD/svg10.dtd">
<svg version="1.0" xmlns="http://www.w3.org/2000/svg"
 width="1297.000000pt" height="727.000000pt" viewBox="0 0 1297.000000 727.000000"
 preserveAspectRatio="xMidYMid meet">

<g transform="translate(0.000000,727.000000) scale(0.100000,-0.100000)"
fill="#fff" stroke="none">
<path d="M10798 7202 c-69 -2 -88 -6 -88 -17 0 -8 4 -15 10 -15 5 0 22 -12 38
-27 16 -16 46 -41 67 -58 21 -16 45 -38 54 -47 8 -10 19 -18 23 -18 4 0 20
-12 36 -27 16 -16 46 -41 67 -58 21 -16 45 -38 54 -47 8 -10 19 -18 23 -18 4
0 20 -12 36 -27 16 -16 46 -41 67 -58 21 -16 45 -38 54 -47 8 -10 19 -18 23
-18 4 0 20 -12 36 -27 16 -16 46 -41 67 -58 21 -16 45 -38 54 -47 8 -10 19
-18 23 -18 4 0 20 -12 36 -27 27 -27 70 -62 120 -100 12 -10 41 -34 62 -54
l40 -36 -88 -44 c-85 -42 -202 -108 -212 -119 -3 -3 -24 -14 -47 -25 -24 -11
-43 -23 -43 -26 0 -4 -13 -12 -30 -19 -16 -7 -30 -16 -30 -21 0 -5 -6 -9 -12
-9 -7 0 -44 -20 -81 -45 -38 -25 -71 -45 -73 -45 -3 0 -36 -20 -74 -45 -38
-25 -74 -45 -79 -45 -6 0 -11 -4 -11 -9 0 -5 -13 -14 -30 -21 -16 -7 -30 -16
-30 -20 0 -4 -8 -11 -17 -14 -21 -8 -38 -18 -122 -74 l-63 -42 -57 14 c-31 8
-90 22 -131 32 -41 9 -97 22 -125 29 -82 21 -147 36 -202 45 -28 4 -57 11 -63
15 -15 10 -111 -5 -104 -16 6 -11 286 -149 301 -149 6 0 13 -3 15 -7 4 -10 91
-53 107 -53 6 0 11 -4 11 -9 0 -5 12 -12 26 -15 33 -9 25 -17 -46 -54 -30 -15
-56 -34 -58 -44 -5 -24 34 -33 63 -14 13 9 44 16 69 16 l45 0 -6 -37 c-3 -21
-9 -42 -13 -48 -5 -5 -11 -32 -15 -60 -3 -27 -10 -59 -15 -70 -5 -11 -14 -42
-19 -70 -16 -78 -31 -146 -47 -199 -19 -64 -18 -69 8 -55 29 15 68 59 68 75 0
8 4 14 9 14 5 0 12 14 16 30 4 17 10 30 15 30 5 0 11 14 15 30 4 17 10 30 15
30 5 0 11 14 15 30 4 17 10 30 15 30 5 0 11 14 15 30 4 17 10 30 15 30 5 0 11
14 15 30 4 17 10 30 15 30 5 0 11 14 15 30 4 17 10 30 15 30 5 0 11 14 15 30
4 17 10 30 15 30 5 0 11 14 15 30 4 17 11 30 16 30 5 0 9 6 9 13 0 20 31 44
67 52 18 3 35 11 38 16 4 5 14 9 23 9 9 1 35 9 57 20 22 11 48 19 57 20 9 0
19 4 22 9 3 5 22 12 41 15 19 4 35 11 35 16 0 6 8 10 18 10 9 0 29 6 44 14 15
8 40 17 57 21 17 4 31 11 31 16 0 5 8 9 18 9 9 1 35 9 57 20 22 11 48 19 58
20 9 0 17 4 17 10 0 5 16 12 35 16 19 3 35 10 35 15 0 5 8 9 18 9 9 1 35 9 57
20 22 11 46 19 53 20 6 0 12 5 12 10 0 6 7 10 16 10 9 0 50 16 90 35 40 19 77
35 83 35 6 0 11 4 11 9 0 5 14 12 30 16 17 4 30 11 30 17 0 6 3 8 7 4 9 -8 16
-136 32 -576 6 -162 16 -334 21 -381 6 -47 10 -142 10 -212 0 -86 4 -127 11
-127 12 0 78 70 79 83 0 4 11 18 25 31 20 18 27 39 35 97 5 41 17 117 25 169
9 52 19 112 22 132 4 30 13 42 42 60 20 12 42 28 49 35 7 7 18 13 23 13 20 0
49 36 49 62 0 53 -46 77 -104 53 -17 -8 -18 -4 -12 46 3 30 12 90 19 133 11
69 16 81 37 90 14 6 27 13 30 17 3 3 15 9 28 13 12 4 22 12 22 17 0 5 6 9 14
9 33 0 35 74 4 101 -29 23 -42 23 -75 2 -26 -18 -27 -18 -19 7 4 14 11 54 17
90 5 36 14 83 19 105 5 22 12 64 16 92 6 47 9 53 35 58 16 4 29 10 29 15 0 5
14 11 30 15 17 4 30 10 30 15 0 5 14 11 30 15 17 4 30 10 30 15 0 5 14 11 30
15 17 4 30 10 30 15 0 4 11 11 25 14 14 4 25 11 25 16 0 6 6 10 13 10 8 0 24
9 37 20 13 11 29 20 37 20 7 0 13 3 13 8 0 4 17 18 37 32 98 66 181 176 169
223 -9 35 -56 57 -126 57 -65 0 -181 -22 -242 -46 -21 -7 -57 -21 -80 -30 -24
-9 -89 -39 -144 -65 -56 -27 -107 -49 -113 -49 -6 0 -11 -4 -11 -10 0 -23 -55
-7 -161 49 -63 32 -129 67 -148 79 l-33 20 26 17 c38 25 44 60 15 91 -32 34
-64 31 -151 -17 -22 -12 -61 -12 -74 0 -5 5 -49 30 -99 56 -100 52 -118 65
-91 65 25 0 56 37 56 66 0 25 -35 64 -58 64 -21 0 -112 -32 -118 -41 -7 -12
-77 -12 -89 0 -6 5 -57 33 -115 64 -58 30 -123 65 -145 77 -58 33 -71 35 -167
32z"/>
<path d="M5620 5913 c-37 -5 -51 -18 -43 -40 8 -20 206 -19 223 2 7 8 10 22 6
30 -4 12 -21 15 -78 13 -40 0 -89 -3 -108 -5z"/>
<path d="M5946 5895 c-9 -24 22 -45 69 -45 24 0 45 -4 47 -9 2 -5 28 -11 58
-13 52 -3 55 -2 55 21 0 22 -8 26 -75 42 -93 23 -146 24 -154 4z"/>
<path d="M5350 5862 c-72 -24 -124 -45 -139 -56 -11 -8 -9 -13 8 -27 20 -16
61 -15 61 1 0 4 20 11 45 14 24 4 47 11 50 17 4 5 17 9 30 9 29 0 39 13 30 40
-7 23 -23 23 -85 2z"/>
<path d="M6317 5813 c-19 -19 -3 -41 43 -61 28 -12 55 -22 60 -22 6 0 10 -4
10 -10 0 -5 6 -10 13 -10 6 0 25 -7 40 -15 26 -13 30 -13 45 1 17 17 9 42 -19
54 -8 4 -24 12 -36 18 -33 17 -126 52 -139 52 -6 0 -14 -3 -17 -7z"/>
<path d="M5028 5733 c-10 -2 -18 -8 -18 -13 0 -5 -9 -12 -21 -15 -24 -8 -106
-62 -114 -76 -7 -10 18 -39 34 -39 6 0 11 4 11 9 0 5 11 12 25 15 14 4 25 11
25 16 0 6 6 10 13 10 8 0 24 9 37 20 13 11 27 20 32 20 17 0 40 30 34 45 -5
15 -24 17 -58 8z"/>
<path d="M6653 5644 c-7 -7 -13 -16 -13 -19 0 -10 33 -41 65 -61 32 -20 38
-24 74 -54 26 -22 56 -26 66 -10 10 16 -7 36 -75 88 -89 67 -102 73 -117 56z"/>
<path d="M4665 5456 c-73 -73 -83 -97 -49 -110 19 -7 166 140 162 162 -7 37
-39 23 -113 -52z"/>
<path d="M10111 5407 c-83 -58 -105 -84 -91 -107 8 -13 14 -12 42 5 18 10 38
24 45 29 34 30 43 36 51 36 5 0 22 11 38 25 23 20 27 28 18 42 -6 9 -15 18
-20 19 -5 2 -42 -21 -83 -49z"/>
<path d="M6937 5403 c-14 -13 -5 -29 44 -82 28 -30 58 -65 66 -78 9 -13 25
-23 39 -23 19 0 24 5 24 25 0 14 -7 28 -15 31 -8 4 -15 10 -15 14 0 5 -23 34
-52 64 -48 52 -75 66 -91 49z"/>
<path d="M4479 5228 c-7 -13 -15 -25 -19 -28 -14 -11 -70 -122 -70 -141 0 -14
7 -19 25 -19 16 0 25 6 25 15 0 8 4 15 8 15 4 0 13 12 20 28 16 36 37 71 51
85 6 6 11 24 11 39 0 35 -34 39 -51 6z"/>
<path d="M9836 5195 c-20 -19 -38 -35 -40 -35 -3 0 -22 -16 -42 -36 -31 -29
-36 -38 -27 -52 15 -25 25 -22 78 23 93 78 117 104 111 120 -9 25 -42 17 -80
-20z"/>
<path d="M7175 5110 c-8 -12 3 -70 13 -70 4 0 18 -25 32 -55 14 -30 28 -55 33
-55 4 0 7 -7 7 -15 0 -20 39 -19 47 1 5 15 -54 145 -69 152 -5 2 -8 10 -8 17
0 8 -9 19 -19 25 -24 13 -28 13 -36 0z"/>
<path d="M9525 4899 c-75 -75 -79 -81 -61 -94 25 -19 39 -11 119 75 57 62 64
74 52 86 -7 8 -17 14 -22 14 -5 0 -44 -36 -88 -81z"/>
<path d="M4334 4909 c-24 -37 -33 -63 -40 -106 -3 -27 -11 -53 -16 -60 -15
-18 -5 -57 15 -61 26 -5 44 25 52 85 3 29 13 67 22 84 14 29 14 32 -5 51 -16
16 -21 17 -28 7z"/>
<path d="M7337 4773 c-10 -9 -9 -40 2 -61 12 -24 41 -117 41 -132 0 -6 7 -18
16 -27 14 -14 17 -14 31 0 13 13 14 22 4 59 -7 24 -17 60 -22 81 -16 66 -50
103 -72 80z"/>
<path d="M9330 4701 c0 -6 -25 -36 -56 -67 -56 -57 -75 -88 -67 -111 9 -24 26
-13 100 64 78 80 91 115 46 121 -13 2 -23 -1 -23 -7z"/>
<path d="M4257 4534 c-9 -9 -9 -145 -1 -196 5 -28 12 -38 25 -38 25 0 30 27
27 140 -3 87 -5 95 -23 98 -12 2 -24 0 -28 -4z"/>
<path d="M9078 4416 c-10 -7 -18 -16 -18 -19 0 -3 -25 -32 -55 -63 -56 -59
-67 -87 -40 -98 11 -4 36 15 76 55 72 73 91 101 83 123 -7 19 -23 20 -46 2z"/>
<path d="M7431 4411 c-9 -6 -12 -19 -7 -42 4 -19 9 -59 12 -89 9 -92 12 -102
37 -98 21 3 22 7 19 87 -3 80 -21 151 -39 151 -4 0 -14 -4 -22 -9z"/>
<path d="M4287 4157 c-6 -15 9 -98 22 -132 5 -11 12 -33 17 -50 10 -31 41 -46
54 -25 9 14 -7 90 -21 105 -5 5 -9 19 -9 31 0 39 -21 84 -40 84 -10 0 -20 -6
-23 -13z"/>
<path d="M8770 4080 c-49 -49 -70 -78 -70 -95 0 -16 6 -25 16 -25 22 0 166
150 162 169 -7 35 -39 21 -108 -49z"/>
<path d="M7459 4034 c-9 -11 -15 -52 -17 -120 l-4 -104 25 0 c33 0 39 29 35
149 -3 86 -13 106 -39 75z"/>
<path d="M8495 3806 c-53 -52 -74 -78 -69 -90 13 -33 30 -23 140 81 25 23 44
50 44 62 0 40 -39 23 -115 -53z"/>
<path d="M4417 3813 c-14 -14 -6 -44 24 -90 18 -26 41 -63 53 -80 25 -38 66
-46 66 -13 0 17 -29 69 -50 90 -3 3 -13 21 -24 40 -26 49 -53 70 -69 53z"/>
<path d="M7417 3663 c-4 -3 -7 -17 -7 -29 0 -13 -4 -25 -9 -28 -5 -4 -12 -29
-16 -58 -4 -29 -12 -60 -18 -69 -8 -13 -7 -21 6 -33 8 -9 20 -16 25 -16 12 0
29 37 41 90 5 25 14 63 20 85 7 27 7 43 -1 52 -11 14 -31 17 -41 6z"/>
<path d="M8269 3617 c-19 -12 -38 -27 -42 -34 -4 -7 -15 -13 -22 -13 -8 0 -15
-3 -15 -7 0 -5 -14 -17 -30 -28 -30 -20 -41 -54 -17 -56 26 -3 43 3 63 22 11
10 26 19 32 19 7 0 12 3 12 8 0 4 17 18 38 32 44 29 52 39 45 56 -8 22 -29 23
-64 1z"/>
<path d="M4641 3511 c-22 -14 -4 -47 47 -88 26 -21 56 -48 68 -60 24 -26 59
-30 67 -9 7 17 -14 40 -100 114 -68 58 -63 55 -82 43z"/>
<path d="M7930 3390 c-25 -16 -51 -30 -57 -30 -7 0 -13 -4 -13 -10 0 -5 -6
-10 -14 -10 -21 0 -46 -28 -40 -45 4 -8 14 -15 24 -15 20 0 83 30 88 43 2 4 9
7 16 7 25 0 96 59 90 75 -9 23 -44 17 -94 -15z"/>
<path d="M7315 3302 c-11 -8 -55 -111 -55 -129 0 -6 -5 -13 -11 -15 -7 -2 -12
-18 -13 -36 -1 -23 -6 -32 -18 -32 -10 0 -18 -4 -18 -9 0 -5 -20 -12 -45 -15
-39 -6 -45 -10 -45 -32 0 -13 6 -24 13 -25 25 -2 62 3 72 11 6 4 26 10 46 14
48 9 99 34 99 50 0 22 -22 37 -37 25 -18 -15 -17 1 1 38 49 96 62 155 36 160
-8 2 -20 0 -25 -5z"/>
<path d="M4927 3274 c-14 -15 -6 -30 26 -49 17 -10 34 -21 37 -25 3 -3 29 -17
58 -30 28 -14 52 -28 52 -33 0 -4 9 -3 20 3 35 19 22 37 -56 85 -77 46 -123
63 -137 49z"/>
<path d="M7610 3228 c-52 -24 -75 -34 -112 -48 -18 -6 -28 -17 -28 -30 0 -31
23 -34 73 -11 25 12 53 21 61 21 9 0 16 4 16 9 0 5 13 12 30 16 29 6 47 35 35
55 -9 15 -25 12 -75 -12z"/>
<path d="M5267 3113 c-26 -25 17 -60 98 -79 17 -4 35 -10 40 -14 10 -8 47 -13
73 -11 6 1 12 12 12 25 0 20 -6 25 -40 31 -22 4 -42 10 -45 15 -3 5 -23 11
-45 15 -22 4 -42 11 -46 16 -6 10 -38 12 -47 2z"/>
<path d="M5624 2996 c-10 -26 17 -42 91 -54 39 -6 84 -14 102 -18 26 -5 32 -2
38 15 9 28 -1 41 -31 41 -14 0 -33 4 -42 9 -9 5 -47 12 -85 16 -56 5 -68 4
-73 -9z"/>
<path d="M6860 3003 c-50 -6 -130 -33 -130 -45 0 -16 28 -38 49 -38 12 0 21 4
21 9 0 5 32 12 72 16 79 8 108 21 108 47 0 19 -28 21 -120 11z"/>
<path d="M7140 2955 c0 -8 -4 -15 -10 -15 -5 0 -10 -6 -10 -12 0 -7 -18 -39
-40 -72 -22 -32 -40 -65 -40 -72 0 -35 57 -26 66 11 3 13 12 26 20 29 8 3 14
12 14 21 0 8 4 15 9 15 5 0 13 10 17 23 4 12 10 24 14 27 8 5 13 26 11 48 -2
18 -51 15 -51 -3z"/>
<path d="M6002 2944 c-8 -6 -12 -16 -9 -21 10 -17 90 -33 161 -33 57 0 65 3
71 21 4 11 4 24 0 27 -12 13 -207 18 -223 6z"/>
<path d="M6475 2953 c-69 -3 -93 -7 -102 -20 -21 -28 3 -43 68 -43 33 0 59 4
59 10 0 6 20 9 45 8 53 -2 75 13 55 37 -7 8 -18 14 -24 13 -6 -1 -51 -4 -101
-5z"/>
<path d="M6880 2599 c-36 -39 -68 -79 -71 -88 -8 -20 0 -41 15 -41 10 0 109
97 144 142 15 19 7 58 -11 58 -7 0 -41 -32 -77 -71z"/>
<path d="M6654 2370 c-16 -16 -32 -30 -36 -30 -4 0 -21 -12 -37 -27 -16 -16
-37 -34 -45 -41 -21 -17 -20 -38 1 -46 17 -7 70 25 86 51 4 7 12 13 18 13 5 0
26 15 45 34 27 26 34 40 29 55 -9 29 -27 26 -61 -9z"/>
<path d="M6346 2147 c-22 -12 -46 -28 -54 -34 -7 -7 -20 -13 -28 -13 -8 0 -14
-4 -14 -9 0 -5 -9 -11 -20 -14 -14 -3 -20 -14 -20 -31 0 -21 5 -26 25 -26 14
0 25 4 25 8 0 4 12 13 28 19 29 13 64 34 72 44 3 4 15 9 27 13 35 11 43 67 10
66 -7 -1 -30 -11 -51 -23z"/>
<path d="M3693 2119 c-23 -7 -33 -16 -33 -29 0 -19 7 -20 115 -20 93 0 117 3
121 15 12 30 -21 45 -98 44 -40 0 -88 -5 -105 -10z"/>
<path d="M4040 2100 c-12 -7 -12 -13 -4 -27 8 -12 34 -22 85 -30 41 -7 87 -15
103 -19 32 -8 47 7 39 37 -4 12 -14 19 -30 19 -13 0 -32 4 -41 9 -27 13 -136
21 -152 11z"/>
<path d="M3446 2091 c-3 -4 -35 -11 -72 -15 -63 -6 -94 -21 -94 -45 0 -18 42
-22 100 -11 30 6 71 14 90 17 44 6 65 29 45 49 -15 15 -61 19 -69 5z"/>
<path d="M4402 2024 c-7 -7 -12 -17 -12 -21 0 -12 59 -43 83 -43 12 0 33 -6
47 -13 42 -22 87 -28 99 -13 19 23 1 46 -40 52 -22 4 -42 10 -44 15 -3 4 -26
11 -50 15 -25 3 -45 10 -45 13 0 12 -25 9 -38 -5z"/>
<path d="M3105 2013 c-11 -3 -24 -9 -30 -13 -5 -4 -26 -11 -45 -15 -19 -4 -43
-12 -55 -18 -11 -5 -27 -13 -35 -17 -20 -9 -19 -30 1 -43 12 -8 26 -6 52 6 19
9 44 17 55 17 12 0 23 4 26 9 3 5 21 12 40 15 39 8 52 29 30 51 -9 8 -16 14
-17 14 -1 -1 -11 -4 -22 -6z"/>
<path d="M6018 1983 c-10 -2 -18 -8 -18 -12 0 -5 -14 -11 -32 -15 -40 -8 -108
-38 -108 -47 0 -18 13 -39 25 -39 7 0 26 7 41 15 16 8 39 15 52 15 12 0 22 4
22 10 0 5 16 12 35 16 39 7 60 27 51 49 -5 14 -32 18 -68 8z"/>
<path d="M4758 1908 c-9 -24 3 -37 38 -44 19 -3 34 -10 34 -14 0 -4 25 -11 55
-15 30 -3 57 -11 60 -16 9 -13 45 8 45 26 0 18 -53 42 -112 51 -27 3 -48 10
-48 15 0 14 -67 11 -72 -3z"/>
<path d="M2740 1881 c0 -5 -16 -12 -35 -15 -19 -4 -35 -11 -35 -16 0 -6 -5
-10 -11 -10 -6 0 -26 -7 -45 -16 -34 -16 -46 -48 -22 -56 16 -6 78 13 78 23 0
4 14 10 30 14 36 8 93 35 102 48 3 6 0 16 -7 24 -15 15 -55 18 -55 4z"/>
<path d="M5605 1863 c-22 -3 -44 -9 -49 -14 -6 -5 -20 -9 -32 -9 -31 0 -39
-18 -19 -40 12 -13 23 -17 34 -11 9 5 45 12 81 15 77 8 110 23 110 48 0 19
-23 21 -125 11z"/>
<path d="M5125 1831 c-3 -6 -1 -20 5 -31 10 -18 21 -20 119 -20 82 0 110 3
114 13 3 8 2 18 -1 24 -10 14 -228 27 -237 14z"/>
<path d="M425 1714 c-103 -27 -221 -114 -261 -192 -10 -20 -22 -39 -25 -42
-29 -25 -53 -230 -29 -245 6 -3 10 -16 10 -28 1 -12 9 -40 20 -62 11 -22 19
-46 20 -52 0 -7 4 -13 9 -13 5 0 12 -13 16 -30 4 -17 10 -30 13 -30 4 0 18
-25 32 -55 14 -30 28 -55 33 -55 4 0 7 -4 7 -9 0 -11 27 -54 123 -196 34 -49
70 -104 81 -122 31 -47 43 -47 73 0 15 23 33 46 40 50 7 4 13 14 13 22 0 7 3
15 8 17 10 5 52 66 52 77 0 5 3 11 8 13 11 5 52 66 52 78 0 5 5 10 10 10 6 0
10 6 10 13 0 7 15 36 34 64 41 63 112 207 122 248 4 17 12 36 18 44 14 18 14
171 0 202 -6 13 -22 47 -34 74 -25 53 -130 165 -155 165 -8 0 -15 5 -15 10 0
6 -6 10 -12 10 -7 0 -26 7 -43 16 -30 16 -190 28 -230 18z m177 -141 c65 -21
144 -98 154 -149 3 -19 10 -37 15 -40 12 -7 12 -107 0 -119 -5 -6 -14 -26 -20
-46 -10 -32 -45 -75 -95 -117 -9 -7 -29 -15 -46 -19 -17 -3 -33 -10 -36 -14
-7 -12 -124 -12 -124 0 0 5 -16 12 -35 15 -19 4 -35 11 -35 16 0 5 -10 12 -23
15 -31 8 -84 92 -98 155 -8 39 -8 68 1 116 7 35 16 64 20 64 5 0 12 9 15 21
11 35 69 82 130 105 45 17 120 16 177 -3z"/>
<path d="M2366 1685 c-27 -19 -52 -38 -55 -42 -3 -4 -15 -13 -26 -19 -24 -14
-32 -44 -14 -55 14 -8 78 25 92 48 4 7 15 13 22 13 8 0 15 4 15 9 0 5 10 13
23 17 25 8 37 22 37 47 0 27 -39 19 -94 -18z"/>
<path d="M2113 1487 c-6 -7 -39 -38 -72 -70 -64 -60 -79 -97 -40 -97 30 0 171
142 163 164 -7 19 -34 20 -51 3z"/>
<path d="M1814 1184 c-22 -26 -51 -59 -66 -75 -30 -29 -36 -55 -15 -62 22 -7
51 13 97 70 25 30 53 62 62 72 12 14 14 21 5 30 -21 21 -45 11 -83 -35z"/>
<path d="M1575 924 c-16 -19 -47 -54 -67 -77 -41 -45 -48 -74 -21 -84 11 -4
26 5 46 28 16 19 50 55 74 81 33 36 43 53 38 68 -9 30 -36 24 -70 -16z"/>
<path d="M1348 683 c-1 -5 -25 -26 -53 -48 -27 -21 -54 -45 -58 -52 -4 -7 -15
-13 -22 -13 -10 0 -15 -11 -15 -31 0 -29 2 -31 26 -25 14 4 42 23 62 43 21 19
48 42 60 51 26 17 42 50 35 70 -6 13 -29 17 -35 5z"/>
<path d="M455 492 c-16 -8 -31 -19 -33 -24 -2 -4 -9 -8 -15 -8 -15 0 -38 -34
-55 -84 -34 -96 56 -206 167 -206 47 0 111 37 131 75 8 17 18 32 23 33 13 6 7
98 -8 130 -20 39 -70 82 -96 82 -10 0 -19 5 -19 10 0 15 -61 10 -95 -8z m151
-53 c31 -29 48 -87 40 -133 -7 -39 -58 -96 -85 -96 -9 0 -22 -5 -28 -11 -8 -8
-24 -6 -59 7 -71 27 -87 48 -92 116 -4 49 -1 64 19 93 30 44 60 56 128 50 38
-3 60 -10 77 -26z"/>
<path d="M480 380 c-46 -40 -20 -100 43 -100 29 0 37 5 45 28 6 16 6 37 0 52
-16 44 -51 52 -88 20z"/>
<path d="M1028 453 c-10 -2 -18 -8 -18 -13 0 -4 -18 -11 -40 -15 -22 -4 -40
-11 -40 -16 0 -5 -11 -9 -24 -9 -29 0 -49 -22 -40 -44 8 -20 27 -20 89 3 116
42 138 58 128 89 -5 12 -22 14 -55 5z"/>
</g>
</svg>
