<?xml version="1.0" encoding="utf-8"?><svg xmlns="http://www.w3.org/2000/svg" xmlns:xlink="http://www.w3.org/1999/xlink"><symbol viewBox="0 0 1000 1001" id="icons--airplane" xmlns="http://www.w3.org/2000/svg"><path d="M370.6 226.3c-2.2 1.6-1.8 5.5.6 7.1 2.4 1.5 7.2-.4 7.6-3 .6-4.3-4.5-6.8-8.2-4.1zm273 0c-2.1 1.6-1.8 5.5.5 7 4.7 2.9 10.1-3.1 5.9-6.5-2.6-2.1-4-2.2-6.4-.5zM392 228c-1.9 1.9-2 2.4-.7 4.3.8 1.3 2.7 2.3 4.6 2.5 2.5.3 3.3-.2 4.3-2.3.9-2.1.9-2.8-.3-3.9-2.7-2.6-5.7-2.8-7.9-.6zm231.3-1.3c-2.7.5-4.1 4.6-2.3 6.8 2.6 3.1 9 1 9-3 0-2-2.8-4.9-4.2-4.4-.2.1-1.3.4-2.5.6zM348 228.5c-1.6 1.9-.5 6.2 1.8 6.7.9.2 2.9 0 4.5-.5 2.9-1 3.7-4.3 1.5-6.5-1.7-1.7-6.3-1.5-7.8.3zm316 .5c-.8 1.4-.8 2.6 0 4 1.5 2.7 7.5 2.8 9 .1 1.3-2.5 1.3-2.7-.6-4.5-2.2-2.3-7.1-2-8.4.4zm-251 2.5c-1.7 2.1-.8 4.7 2.2 6.5 3.5 1.9 6.2.5 6.6-3.4.3-2-.2-2.8-2.3-3.6-3.6-1.4-5-1.3-6.5.5zm188.4-.5c-2.7 1.1-3.7 3.6-2.4 6.1 1.2 2.1 4.1 2.5 6.9.9 2.8-1.4 3.4-4 1.5-6.1-1.9-2.1-2.8-2.2-6-.9zm-273.8 1.3c-2.2 1.6-1.8 5.5.7 7.1 2.1 1.4 7-1 7.5-3.7.8-4-4.4-6.2-8.2-3.4zm358.6-.1c-2.2 2.2-1.4 5.8 1.5 6.9 5.5 2.1 9.6-2.6 5.7-6.5-1.8-1.9-5.5-2.1-7.2-.4zm-250.9 4.9c-2.6.9-3.2 5-1 6.7 3.9 3.1 8.7 1.6 8.7-2.8 0-2.6-4.8-5-7.7-3.9zm143.3 2.1c-1.5 2.1-.9 4.9 1.5 6.3 1.6 1.1 6.8-1.5 7.4-3.7 1.5-4.5-6-6.8-8.9-2.6zm-271.8-.1c-2.7 1.5-2.3 5.7.7 7.1 1.9.9 2.9.8 5-.6 5.8-3.8.3-10.1-5.7-6.5zm399.2.9c-.9 1.7-.6 2.5 1.4 4.5 3 3 4.7 3.1 6.9.7 2.2-2.4 2.1-3.5-.1-5.5-2.6-2.3-6.9-2.2-8.2.3zm-251.2 6.1c-2.9 1.6-2.2 5.6 1.1 7.4 3.3 1.6 5.6 1.2 6.5-1.2 1-2.5-.2-4.9-3-6.1-2.9-1.4-2.5-1.4-4.6-.1zm105.9.5c-3 1.6-3.7 5.4-1.2 7.4 3.1 2.6 10.1-2.7 8-6-1.4-2.3-4-2.8-6.8-1.4zM287 248.8c-2.2 1.7-2.3 2.3-1.2 4.6 1.3 3 3.7 3.3 7 1 1.6-1.1 2.2-2.4 2-4.2-.4-3.5-4.4-4.1-7.8-1.4zm439-.3c-1.7 2.1-.4 5.1 3 6.5 3.6 1.5 6 .1 6-3.6 0-3.9-6.4-6-9-2.9zm-252.4 8.8c-2.5 1.8-1.7 5.8 1.6 7.6 2.4 1.4 2.8 1.4 4.7-.3 2.7-2.4 2.6-3.2-.4-6.1-2.8-2.9-3.4-3-5.9-1.2zm67.1 1.5c-4.5 5 1.1 9.6 6.3 5.4 3.3-2.7 2.1-7.2-1.9-7.2-1.5 0-3.5.8-4.4 1.8zm-272 1c-2.1 2.3-2.2 6.1-.2 6.8 2.4 1 6.3-.4 7.5-2.6 2.5-4.7-3.7-8.2-7.3-4.2zm476.3-.3c-1.7 2.1-.8 4.7 2.2 6.5 4.9 2.7 8.9-2 5.2-6.1-2-2.3-5.7-2.5-7.4-.4zm-254.4 11.1c-2.2 2.1-2 3.9.6 6.4 2.5 2.3 4.8 2.6 6.6.8 1.9-1.9 1.4-4.5-1.4-6.7-3.2-2.5-3.8-2.6-5.8-.5zm33.2.5c-1.1.6-1.8 2.2-1.8 3.9 0 2.3.5 3.1 2.5 3.6 3.4.8 6.7-2.1 6.3-5.5-.3-2.9-3.9-3.9-7-2zm-272.6 2.2c-2.7 2.9-2.7 3.9-.2 6.2 1.8 1.6 2.3 1.7 4.5.5 3-1.6 4.2-5.4 2.5-7.5-1.8-2.2-4.3-1.8-6.8.8zm511-.6c-1.4 2.6.3 6.1 3.3 6.9 3.5.9 5.5-.1 5.5-2.9 0-4.7-6.8-7.8-8.8-4zm-255.6 13.5c-2.8 3.9 1.9 8.2 6.4 5.8 2.2-1.2 2.7-4.9.8-6.8-1.9-1.9-5.5-1.4-7.2 1zm-270.9 1.6c-2.1 2.3-2.2 5.6-.2 7.2 3.6 3 9.5-3.8 6.5-7.5-1.7-2-4.3-1.9-6.3.3zm542.3.3c-1.7 3 1.1 6.9 5 6.9 2.3 0 3.1-.5 3.6-2.5 1.3-5.2-6.2-9-8.6-4.4zm-555.3 15.1c-2.7 1.5-3.9 4.5-2.7 6.8 2.4 4.4 9.9.7 8.6-4.3-.6-2.7-3.5-3.9-5.9-2.5zm570.5 0c-2.7 2.7 0 8.8 3.9 8.8s5.2-5.5 2.1-8.3c-2.2-2-4.3-2.2-6-.5zm-584.1 18.9c-2.5 2.7-2.7 5.2-.7 6.9 2.4 1.9 6 .8 7-2.3 1.9-5.4-2.6-8.6-6.3-4.6zm595.8 0c-2 3.9 2.3 8.9 6.4 7.3 2.2-.8 2.9-3.2 1.5-5.7-2.2-4.2-6-5-7.9-1.6zm-606.5 19.3c-.8 1.4-1.4 3.5-1.2 4.8.5 3.5 5.7 3.2 7.7-.4 1.4-2.4 1.4-2.8-.3-4.7-2.5-2.7-4.2-2.6-6.2.3zm617.6-.8c-2.8 3.3 2.1 10.1 5.8 7.8 2.4-1.5 2.7-4 .8-6.9-1.9-2.8-4.7-3.2-6.6-.9zM190 361c-2.4 2.4-2.6 5.3-.4 7.4 2 2.1 3 2 5.4-.4 2.6-2.6 2.6-6.6.1-8-2.6-1.3-2.8-1.3-5.1 1zm635.2-.8c-2.8 2.8-.5 8.8 3.3 8.8 3.4 0 5-3.2 3.3-6.8-1.4-3-4.6-4-6.6-2zm-641.7 21.4c-1 1-1.5 2.9-1.3 4.8.3 2.7.7 3.1 3.3 3.1 2.3 0 3.3-.7 4.3-2.8 1.2-2.5 1.2-3.1-.4-4.8-2.1-2.3-3.7-2.4-5.9-.3zm647.4.8c-1 2-.9 3 .5 5.1 3.2 4.9 9 1.4 7-4.2-1.3-3.9-5.9-4.5-7.5-.9zm-651.3 20c-.8.6-1.8 2.2-2.1 3.6-1.3 5.3 6.4 8 8 2.9 1.6-4.9-2.4-9.3-5.9-6.5zm656.6-.2c-.7.7-1.2 2.4-1.2 3.8 0 3.2 1.7 5 4.7 5 3.8 0 5-5 2-8.8-1.2-1.5-3.9-1.6-5.5 0zm-659.6 22.4c-3.3 3.2-1.4 8.4 3.1 8.4 3.3 0 4.9-4.4 2.8-7.6-1.8-2.8-3.7-3-5.9-.8zm661.2.8c-1.7 3.9.3 7.8 3.9 7.4 3.5-.4 5-2.9 3.7-6.5-1.3-3.9-5.9-4.5-7.6-.9zm-661.7 21c-3.1 3.7.9 10.3 4.7 8 3.6-2.3 2.3-9.4-1.8-9.4-1 0-2.3.6-2.9 1.4zm662.3 0c-1 2.5 0 6.9 1.9 8 3.7 2.3 7.7-4.3 4.6-8-1.5-1.8-5.8-1.8-6.5 0zm-.8 21.2c-2.3 2.2-2 7.1.4 8.4 4.6 2.5 8.7-4.3 4.9-8.1-2.3-2.3-3.3-2.4-5.3-.3zM177 469c-1.6 3 .7 7.5 3.9 7.5 3.3 0 4.8-2.7 3.5-6.2-1.2-3.6-5.7-4.4-7.4-1.3zm4.2 20.2c-1.5 1.5-1.6 6 0 7.6 1.9 1.9 5.6 1.4 6.8-.8 2.3-4.3-3.4-10.2-6.8-6.8zm653.1 0c-3.3 4.3-1.9 9.1 2.5 8.6 5.1-.6 5.6-8.8.5-9.6-1.1-.2-2.4.3-3 1zm-647.7 21.4c-2.2 2.1-2 5 .4 7.4 2.4 2.4 3.4 2.5 5.4.4 2.2-2.1 2-5-.4-7.4-2.4-2.4-3.4-2.5-5.4-.4zm642 .6c-3 4.2-1.1 8.3 3.6 7.6 2.8-.4 4.8-5.9 2.8-8.3-1.8-2.2-4.6-1.9-6.4.7zM193 531.5c-.9 1.1-1 2.4-.4 4.8.8 2.6 1.5 3.2 3.8 3.2 4 0 5.6-2.7 3.6-6.3-1.8-3.1-5.1-4-7-1.7zm627.9 1.2c-1.2 3.3-.9 5.3 1.4 6.7 2.2 1.4 4.9-.2 6.1-3.7 1.9-5.4-5.4-8.4-7.5-3zm-619.5 19.4c-1.7 1.9-1.7 2.3-.3 4.7 1.1 2 2.3 2.7 4.4 2.7 2.6 0 3-.4 3.3-3.1.3-3.2-1.8-6.4-4.2-6.4-.7 0-2.1.9-3.2 2.1zm611.3.6c-1.8 3.7-1.1 6.2 1.8 6.9 3 .7 4.4-.1 5.6-3.3 2.1-5.7-4.7-9-7.4-3.6zM804 571c-2.6 2.6-2.6 6.6-.1 8 2.6 1.3 2.7 1.3 5.1-1.2 2.4-2.6 2.6-5.1.4-7.2-2-2.1-3-2-5.4.4zm-593 .5c-3 3.7 2.9 10.5 6.5 7.5 3.1-2.6 1-9-2.9-9-1.3 0-2.9.7-3.6 1.5zm2.9 16.9c-2.3 5.1 6.1 18.2 24.2 37.8l9.2 9.9-1.7 12.7c-.9 7-2 14-2.3 15.5-.5 2.9-.5 2.9-2.6.9-5-4.4-10.7-3.3-10.7 2.1 0 2.5 1.1 4.3 5.5 8.7l5.6 5.6-1.6 10.2c-.8 5.6-1.5 10.7-1.5 11.4 0 .6-1.2 0-2.7-1.4-3.8-3.5-7-4.1-9.3-1.8-2.7 2.7-1.6 5.6 4.6 12l5.3 5.5-3.2 22.6c-3 21.8-3 22.8-1.3 25.3 1.7 2.7 4.2 4.3 5.2 3.3.3-.2 8.1-18.4 17.3-40.4 10.8-25.7 18.7-42.9 22.1-48.3 2.9-4.7 5.4-8.7 5.6-8.9.2-.2 6.1 5.2 13.1 12.2 7.1 6.9 16.6 15.9 21.3 20.1l8.5 7.6-1.4 16.8-1.4 16.7 3.8 6 3.8 5.9 1.4-2.9c.7-1.7 3.7-8.4 6.7-15l5.3-12 4.2.3c4.8.4 6.1-1.4 4.4-5.9l-1.1-2.8 15.4-6.3c8.4-3.5 15.4-6.6 15.4-6.9 0-.3-2.5-2.3-5.6-4.3l-5.6-3.8-13.7 1.1c-21.2 1.7-18.5 2.5-28.6-9-4.8-5.5-13.7-15.2-19.8-21.5-6-6.3-10.8-11.6-10.6-11.8.2-.1 4.2-2.6 8.9-5.3 5.5-3.3 22.9-10.9 49-21.3 22.3-8.9 40.8-16.5 41.3-16.9.4-.4-.8-2.1-2.5-3.8l-3.3-3.1-22.8 2.8-22.8 2.8-5.6-5.9c-5.7-6-9.4-7.4-12.1-4.7-2.1 2.1-1.4 6.6 1.3 9 1.4 1.2 2.5 2.4 2.5 2.8 0 .3-5 1.2-11.2 1.8l-11.2 1.3-5.6-5.6c-4.4-4.3-6.2-5.5-8.7-5.5-5.3 0-6.3 4.9-2 9.7 1.1 1.3 1.8 2.5 1.5 2.8-.2.3-7.2 1.3-15.4 2.3l-14.9 1.9-6.5-6.2c-22.6-21.4-32.4-28.5-39.5-28.5-1.7 0-2.9.8-3.6 2.4zm579 1.7c-2.8 2.8-2.3 7.3.9 7.7 5 .7 8.5-6.5 4.3-8.8-2.6-1.3-2.8-1.3-5.2 1.1zm-12 18c-2.8 2.8-2.3 7.3.9 7.7 5 .7 8.5-6.5 4.3-8.8-2.6-1.3-2.8-1.3-5.2 1.1zm-13.3 17.8c-2.1 2.3-1.8 6 .7 7.5 2.2 1.4 4.9-.2 6.1-3.7 1.8-4.9-3.3-7.7-6.8-3.8zm-14 17c-2.1 2.3-1.8 6 .5 7.4 2.4 1.5 6.9-1.6 6.9-4.6 0-4.6-4.3-6.2-7.4-2.8zm-14.4 16.4c-2.5 2.6-2.8 4.7-1 6.5 1.8 1.8 4.2 1.4 6.6-1.1 2.6-2.8 2.7-4 .6-6.1-2.1-2.2-3.7-2-6.2.7zm-15.5 15.5c-2.4 2.7-2.1 6.1.6 7.1 2.6 1 5.2-.1 6.7-2.9 2.5-4.7-3.7-8.2-7.3-4.2zM707.5 690c-1.2 1.3-1.5 2.7-1.1 4.5.9 3.5 5.9 3.5 8.1.1 3.3-5.1-2.9-9.1-7-4.6zm-16.1 14.5c-2.1 2.1-2.3 2.8-1.4 4.5 1.6 3 3.6 3.5 6.5 1.6 2.7-1.8 3.3-5.4 1.3-7.4-1.8-1.8-3.6-1.5-6.4 1.3zm-16.7 13.3c-4 4.4 0 9.9 4.9 6.7 1.6-1 2.4-2.5 2.4-4.4 0-4.2-4.4-5.6-7.3-2.3zm-316.5 12.8c-2.9 2-2.8 5 .3 7 2.9 1.9 5.4 1.6 6.9-.9 1.3-2 .2-4.2-3-6.4-1.7-1.1-2.3-1-4.2.3zm299.2.7c-4.8 4.2-.2 9.8 5.1 6.3 3-2 3.3-6.1.6-7.6-2.6-1.3-2.6-1.3-5.7 1.3zM375 743.4c-1.8 2.3-.8 5.9 2.2 7.5 2.4 1.4 2.8 1.4 4.7-.3 2.7-2.4 2.6-3.2-.4-6.1-2.7-2.8-4.7-3.1-6.5-1.1zm264.5 1c-2.7 2.7-2.5 5 .6 6.7 4.1 2.1 8.9-3.2 6.3-6.9-2-2.9-3.9-2.8-6.9.2zm-18.1 12.1c-2.1 2.1-2.3 2.8-1.4 4.5 1.5 2.8 3.4 3.4 5.9 2.1 3.6-2 4.4-4.8 2.1-7.1-2.6-2.6-3.6-2.5-6.6.5zm-228.7-.8c-1.3 1.3-.7 5 1.1 6.6 4 3.6 9.7.3 7.3-4.2-1.5-2.7-6.7-4.2-8.4-2.4zm18.9 11.9c-2.3 2.3-1.9 4.9 1 6.9 2.1 1.3 3.1 1.5 5 .6 3.7-1.7 3.1-5.7-1.3-8-2.8-1.4-2.9-1.4-4.7.5zm191.6.4c-2.6 2.5-2.8 4.3-.6 6.4 1.9 2 1.8 2 5.4.1 3.5-1.8 4.1-5.8 1.1-7.5-2.7-1.4-3.4-1.3-5.9 1zm-172.9 10.7c-1.9.7-1.6 5.4.5 6.9 2.5 2 6 1.7 7.2-.6 2.3-4.2-2.8-8.3-7.7-6.3zm153.8 1.2c-3.9 3.9.5 8.7 5.5 6.1 2.9-1.6 3.7-3.6 2.4-6.1-1.4-2.5-5.4-2.5-7.9 0zm-135.9 10.8c-.6 1-.6 2.8-.1 4 1.5 4 8.2 4.2 9.2.2 1.2-4.4-7.1-8.2-9.1-4.2zm117.4-.4c-2.2 1.6-1.8 5.5.6 7.1 2.1 1.3 6.5-.8 7.4-3.6 1.2-4-4.1-6.3-8-3.5zm-96.8 9.8c-2.6 1.5-2.2 5.6.7 7.5 2.3 1.5 2.7 1.5 5 0 3.2-2.1 3.2-3.9-.1-6.5-3-2.4-3.2-2.4-5.6-1zm78.4.5c-3.4 2.4-2.7 6.8 1.1 7.2 2.9.4 6.7-2.1 6.7-4.3 0-1.4-3.2-4.5-4.6-4.5-.5 0-2 .7-3.2 1.6zm-18.9 9.6c-3.3 1.6-3.9 4.6-1.5 7 1.8 1.8 2.3 1.9 4.8.6 3.5-1.6 4.4-5.6 1.8-7.5-2.1-1.5-2.2-1.5-5.1-.1zm-41.6.5c-1.6 1.5-.6 5.3 1.8 6.9 5.1 3.3 10.1-2 5.7-5.9-1.9-1.7-6.3-2.3-7.5-1zm20 10.1c-2.2 2.4-2.1 3.5.2 5.6 2.4 2.2 5.9 1.7 7.7-.9 3-4.6-4.2-8.8-7.9-4.7zm-256.9 179.9c137.6.2 362.8.2 500.5 0 137.6-.1 25-.2-250.3-.2s-387.9.1-250.2.2z"/></symbol></svg>