<?xml version="1.0" encoding="utf-8"?><svg xmlns="http://www.w3.org/2000/svg" xmlns:xlink="http://www.w3.org/1999/xlink"><symbol viewBox="0 0 60 60" id="icons--cloud-computing" xmlns="http://www.w3.org/2000/svg"><path d="M50.976 20.694c-.528-9-7.947-16.194-16.892-16.194-5.43 0-10.688 2.663-13.945 7.008-.075-.039-.154-.066-.23-.102a9.322 9.322 0 0 0-.604-.269 9.062 9.062 0 0 0-.962-.317c-.115-.031-.229-.063-.345-.089a9.567 9.567 0 0 0-.687-.125c-.101-.015-.2-.035-.302-.046A9.096 9.096 0 0 0 16 10.5c-4.963 0-9 4.037-9 9 0 .129.008.255.017.381C2.857 22.148 0 26.899 0 31.654 0 38.737 5.762 44.5 12.845 44.5H18a1 1 0 1 0 0-2h-5.155C6.865 42.5 2 37.635 2 31.654c0-4.154 2.705-8.466 6.433-10.253L9 21.13v-.63c0-.12.008-.242.015-.365l.011-.185-.013-.194C9.007 19.671 9 19.586 9 19.5c0-3.859 3.141-7 7-7a6.995 6.995 0 0 1 1.15.103c.267.044.53.102.789.177.035.01.071.017.106.027.285.087.563.197.835.321.071.032.14.067.21.101A6.995 6.995 0 0 1 23 19.5a1 1 0 1 0 2 0 8.98 8.98 0 0 0-3.2-6.871C24.667 8.879 29.388 6.5 34.084 6.5c7.745 0 14.178 6.135 14.849 13.888-1.021-.072-2.552-.109-4.083.124a1 1 0 0 0 .3 1.977c2.227-.337 4.548-.021 4.684-.002C54.49 23.372 58 27.661 58 32.472 58 38.001 53.501 42.5 47.972 42.5H44a1 1 0 1 0 0 2h3.972C54.604 44.5 60 39.104 60 32.472c0-5.489-3.827-10.412-9.024-11.778z"/><path d="M38.293 45.793L32 52.086V31.5a1 1 0 1 0-2 0v20.586l-6.293-6.293a.999.999 0 1 0-1.414 1.414l7.999 7.999a.99.99 0 0 0 .326.217.991.991 0 0 0 1.09-.217l7.999-7.999a.999.999 0 1 0-1.414-1.414z"/></symbol><symbol viewBox="0 0 48.437 48.437" id="icons--coffee" xmlns="http://www.w3.org/2000/svg"><path d="M15.243 23.121c-.95-2.023-1.298-4.209-1.64-6.35-.299-1.877-.608-3.816-1.329-5.588C10.282 6.296 5.47 3.011.299 3.008l-.031-.001a3.28 3.28 0 0 0-.116.663L.047 5.391c-.545 8.87 3.697 16.728 10.963 20.748a27.088 27.088 0 0 1 4.233-3.018z"/><path d="M14.126 10.429c.809 1.984 1.136 4.04 1.453 6.027.322 2.02.633 3.97 1.433 5.718a25.117 25.117 0 0 1 10.932-2.502l.032.001C26.573 8.691 17.678.739 6.19.739c-.509 0-1.022.016-1.541.048l-1.72.106a3.155 3.155 0 0 0-.979.22c5.308.614 10.089 4.197 12.176 9.316zm14.629 23.525c4.965 4.965 13.045 4.965 18.01 0l1.278-1.214a5.197 5.197 0 0 0-.85-1.343l-1.143-1.29c-4.81-5.438-11.239-8.435-18.105-8.435s-13.297 2.996-18.106 8.435l-1.142 1.29a4.98 4.98 0 0 0-1.234 2.74l.29-.226c5.806-5.76 15.215-5.745 21.002.043z"/><path d="M48.16 35.386c-2.767 2.768-6.467 4.302-10.4 4.302s-7.634-1.534-10.419-4.319c-2.407-2.407-5.643-3.733-9.109-3.733s-6.702 1.326-9.109 3.733l-.093.08-1.275.996c.214.539.525 1.056.941 1.527l1.142 1.291c4.81 5.438 11.24 8.434 18.106 8.434s13.296-2.995 18.105-8.433l1.143-1.291a4.969 4.969 0 0 0 1.244-2.85l-.276.263z"/></symbol><symbol viewBox="0 0 512 512" id="icons--heartPlaceHolder" xmlns="http://www.w3.org/2000/svg"><path d="M452.062 217.456H58.817L6.949 454.827H503.93z"/><path d="M471.846 308.007h-48.359c-16.5-20.115-50.162-36.455-92.964-45.386-22.838-4.776-48.269-7.439-75.082-7.439-26.903 0-52.424 2.673-75.313 7.479-12.806 2.683-24.781 6.027-35.734 9.942l-55.138-55.148H58.817l-9.972 45.656 41.521 41.511c-9.071 9.692-14.087 20.335-14.087 31.519 0 41.091 67.743 75.032 155.501 80.259l-.1 38.427h52.234l.1-38.748c65.14-4.716 118.556-25.311 140.203-52.715l.12-.2H483.9l-12.054-55.157zm-216.407 75.984c-58.472 0-105.88-21.426-105.88-47.849 0-19.134 24.851-35.644 60.755-43.293 13.687-2.924 28.986-4.556 45.126-4.556 16.05 0 31.268 1.612 44.905 4.506 36.024 7.639 60.975 24.18 60.975 43.343 0 26.423-47.409 47.849-105.881 47.849z"/><path d="M471.846 308.007h-48.359c-16.5-20.115-50.162-36.455-92.964-45.386l45.146-45.166h76.394l19.783 90.552zm-291.719-45.344c-12.806 2.683-24.781 6.027-35.734 9.942l-55.138-55.148h45.666l45.206 45.206zM375.667 217.456l-45.146 45.166c-22.838-4.776-48.269-7.439-75.082-7.439-26.903 0-52.424 2.673-75.313 7.479l-45.206-45.206h240.747zM231.78 416.401l-.1 38.427H76.279l9.141-46.237H17.086l-.04-.01 31.799-145.469 41.521 41.511c-9.071 9.692-14.087 20.335-14.087 31.519 0 41.091 67.743 75.032 155.501 80.259z"/><path d="M85.42 408.592l-9.141 46.236H6.944l10.102-46.247.04.011zM438.905 449.011c0 1.962.09 3.905.26 5.817H283.914l.1-38.748c65.14-4.716 118.556-25.311 140.203-52.715l.12-.2H483.9l4.936 22.588c-28.625 6.808-49.931 32.541-49.931 63.258z"/><path d="M503.935 454.828h-64.77a65.714 65.714 0 0 1-.26-5.817c0-30.718 21.306-56.449 49.931-63.258l15.099 69.075zM361.32 336.142c0 26.423-47.408 47.849-105.88 47.849s-105.88-21.426-105.88-47.849c0-19.134 24.851-35.644 60.755-43.293 13.687-2.924 28.986-4.556 45.126-4.556 16.05 0 31.268 1.612 44.905 4.506 36.023 7.64 60.974 24.18 60.974 43.343zM58.817 217.456L6.949 454.827h30.039l51.868-237.371z"/><path d="M17.086 408.592l-.033-.009-10.104 46.244h30.039l10.102-46.235zM58.817 217.456l-9.972 45.656 24.649 24.643 15.361-70.299zM395.835 82.412c-31.724-31.724-83.158-31.724-114.882 0l-17.92 17.92c-4.273 4.273-11.201 4.273-15.474 0l-17.633-17.633c-31.724-31.724-83.158-31.724-114.882 0-31.724 31.724-31.724 83.158 0 114.882L247.57 330.108c4.273 4.273 11.201 4.273 15.474 0l132.791-132.813c31.724-31.725 31.724-83.159 0-114.883z"/><path d="M145.083 197.581c-31.724-31.724-31.724-83.158 0-114.882 12.024-12.024 26.881-19.48 42.422-22.39-25.461-4.767-52.761 2.69-72.46 22.39-31.724 31.724-31.724 83.159 0 114.882l132.527 132.527c4.273 4.273 11.201 4.273 15.474 0l7.282-7.283-125.245-125.244z"/><circle cx="255.434" cy="183.946" r="42.521"/><path d="M120.914 191.558c-13.924-13.925-21.593-32.439-21.593-52.131s7.668-38.207 21.594-52.131 32.439-21.594 52.131-21.594 38.207 7.668 52.131 21.594l17.633 17.633a18.329 18.329 0 0 0 13.047 5.405c4.929 0 9.563-1.919 13.047-5.405l17.92-17.919c19.312-19.312 47.554-26.354 73.704-18.384a7.51 7.51 0 0 0 9.373-4.993 7.509 7.509 0 0 0-4.993-9.373c-31.472-9.595-65.459-1.115-88.702 22.13l-17.92 17.919a3.416 3.416 0 0 1-2.427 1.005c-.531 0-1.552-.13-2.427-1.005l-17.633-17.633c-34.602-34.602-90.901-34.602-125.502 0-34.602 34.601-34.602 90.901 0 125.501l7.056 7.056H59.378a7.51 7.51 0 0 0-7.336 5.906l-9.803 44.864a7.507 7.507 0 0 0-.336 1.541L.173 452.512a7.507 7.507 0 0 0 7.336 9.112h496.982a7.507 7.507 0 0 0 7.336-9.112l-14.954-68.438a7.562 7.562 0 0 0-.141-.775c-.031-.133-.075-.259-.113-.389l-4.794-21.939-.018-.084-11.93-54.595a7.404 7.404 0 0 0-.277-1.269l-19.64-89.883a7.51 7.51 0 0 0-7.336-5.906h-58.258l7.341-7.342c34.601-34.602 34.601-90.902 0-125.501a89.779 89.779 0 0 0-8.285-7.323 7.51 7.51 0 0 0-9.231 11.847 74.915 74.915 0 0 1 6.896 6.095c28.744 28.745 28.744 75.518 0 104.263L258.295 324.085a3.436 3.436 0 0 1-4.854 0L120.914 191.558zm325.664 32.694l16.505 75.533h-35.598c-16.344-18.097-44.85-32.797-81.518-42.145l33.383-33.389 67.228.001zM255.868 340.1a18.39 18.39 0 0 0 13.047-5.396l34.378-34.383c30.715 7.264 51.076 21.145 51.076 35.108 0 9.515-9.693 19.353-26.595 26.991-19.046 8.608-44.537 13.348-71.775 13.348-57.97 0-98.369-21.259-98.369-40.339 0-13.922 20.273-27.779 50.859-35.056l34.332 34.332a18.393 18.393 0 0 0 13.047 5.395zm-90.049-82.398a271.868 271.868 0 0 0-18.875 5.552l-39.002-39.002h24.428l33.449 33.45zm-100.395-33.45h21.278l52.946 52.946a7.508 7.508 0 0 0 7.837 1.761c9.542-3.411 19.883-6.364 30.788-8.804l17.942 17.941c-33.39 9.813-53.602 27.36-53.602 47.331 0 15.907 12.581 30.351 35.428 40.676 20.949 9.467 48.635 14.681 77.96 14.681 29.325 0 57.011-5.214 77.96-14.681 22.846-10.325 35.428-24.77 35.428-40.676 0-20.022-20.292-37.593-53.812-47.393l17.93-17.933c39.206 8.741 69.954 23.933 84.732 41.954a7.51 7.51 0 0 0 5.806 2.747h42.319l8.771 40.139h-50.239a7.51 7.51 0 0 0-6.282 3.395c-6.986 8.707-17.611 16.753-31.588 23.919a7.509 7.509 0 0 0 3.432 14.193 7.467 7.467 0 0 0 3.42-.829c14.727-7.551 26.345-16.172 34.592-25.66h49.947l2.153 9.852c-28.43 9.857-47.876 36.244-48.572 66.791h-139.99l.061-24.315c26.317-2.392 51.48-7.455 73.161-14.745a7.51 7.51 0 0 0-4.786-14.236c-22.403 7.532-48.824 12.569-76.409 14.568a7.51 7.51 0 0 0-6.967 7.47l-.079 31.256h-37.218l.078-30.893a7.51 7.51 0 0 0-7.063-7.515c-83.235-4.963-148.436-36.925-148.436-72.768 0-8.962 4.055-17.839 12.053-26.383a7.51 7.51 0 0 0-.172-10.441l-38.618-38.617 7.811-35.731zM91.78 403.111a7.51 7.51 0 0 0-5.801-2.741H26.94l26.866-122.951 26.911 26.911c-7.559 9.83-11.384 20.264-11.384 31.1 0 44.095 64.956 80.278 155.48 87.275l-.061 23.901H85.982l7.364-37.272a7.514 7.514 0 0 0-1.566-6.223zm-68.122 12.278H76.84l-6.168 31.217H16.837l6.821-31.217zm423.358 31.217c.674-23.46 15.287-43.776 36.786-51.996l11.362 51.996h-48.148z"/><path d="M205.969 183.23c0 27.587 22.444 50.031 50.031 50.031s50.031-22.444 50.031-50.031-22.444-50.031-50.031-50.031-50.031 22.443-50.031 50.031zm85.043 0c0 19.306-15.706 35.012-35.012 35.012s-35.012-15.706-35.012-35.012 15.706-35.012 35.012-35.012 35.012 15.705 35.012 35.012z"/></symbol><symbol viewBox="0 0 511.999 511.999" id="icons--love" xmlns="http://www.w3.org/2000/svg"><path d="M412.41 0H99.589C47.531 0 5.332 42.201 5.332 94.257v205.172c0 52.057 42.201 94.257 94.257 94.257h44.894a3.867 3.867 0 0 1 3.867 3.867V498.76c0 11.966 14.637 17.768 22.834 9.05l106.188-112.906a3.866 3.866 0 0 1 2.818-1.218h132.22c52.057 0 94.257-42.201 94.257-94.257V94.257C506.667 42.201 464.466 0 412.41 0z"/><path d="M188.005 358.509c0-2.249-1.676-4.072-3.744-4.072h-43.462c-50.396 0-91.25-44.439-91.25-99.257V39.123c0-9.276 1.174-18.253 3.361-26.77C24.489 28.587 5.332 59.184 5.332 94.257v205.172c0 52.056 42.201 94.257 94.257 94.257h44.894a3.867 3.867 0 0 1 3.867 3.867V498.76c0 11.966 14.637 17.768 22.834 9.05l16.82-17.885V358.509h.001zM361.908 122.325c-23.931-23.931-62.731-23.931-86.663 0l-13.518 13.518a8.255 8.255 0 0 1-11.673 0l-13.302-13.302c-23.931-23.931-62.731-23.931-86.663 0-23.931 23.931-23.931 62.731 0 86.663l99.973 99.973a8.255 8.255 0 0 0 11.673 0l100.172-100.189c23.932-23.932 23.932-62.731.001-86.663z"/><path d="M361.908 122.325c-23.931-23.931-62.731-23.931-86.663 0l-13.518 13.518a8.255 8.255 0 0 1-11.673 0l-13.302-13.302c-23.931-23.931-62.731-23.931-86.663 0-23.931 23.931-23.931 62.731 0 86.663l99.973 99.973a8.255 8.255 0 0 0 11.673 0l100.172-100.189c23.932-23.932 23.932-62.731.001-86.663z"/><path d="M182.145 209.204c-23.931-23.931-23.931-62.731 0-86.663a60.966 60.966 0 0 1 27.303-15.807c-20.486-5.532-43.278-.274-59.358 15.807-23.931 23.931-23.931 62.731 0 86.663l99.973 99.973a8.255 8.255 0 0 0 11.673 0l10.19-10.192-89.781-89.781z"/></symbol><symbol viewBox="0 0 1500 1500" id="icons--paintbrush" xmlns="http://www.w3.org/2000/svg"><path d="M704 225c-10.2 2.6-21 5.8-24 7-11.3 4.5-65.4 32.5-92 47.6-15.1 8.6-41.7 23.5-59 33.1-43.8 24.4-69.4 40.5-152.1 95.8-106.6 71.2-121.5 81.9-138.4 99.6-10.4 10.8-19.5 23.8-19.5 27.8 0 1.4.7 3.7 1.6 5 1.4 1.9 2.3 2.2 5.8 1.8 2.2-.3 5.2-.8 6.6-1.1 3.8-1 5.1.6 5.7 7 .8 7.7 1.5 9 6.9 11.5 5.5 2.7 8.3 6.2 12.3 15.9 4.2 10.2 5.3 11.6 10 12.4 3.2.5 4.7 1.5 8.1 5.8 4.7 6 8 7.8 12.7 7.1 3-.5 3.2-.4 3.8 3.3.3 2.2 1.1 6.4 1.8 9.4 1.1 4.9 1.5 5.5 4 5.8 1.6.2 3.8-.5 5.3-1.7 5.9-4.6 11.1-1.6 12.1 7.1.2 2.4 1 5.6 1.6 7.3 1.5 4.1 12.6 19.5 14.1 19.5 2.7 0 5-3 6.3-7.9 1.6-6.5 6-13 11-16.3 2.1-1.3 9.7-5.1 16.9-8.2 13.2-5.8 15.8-7.2 44.9-25.1 34.7-21.3 43.6-28.7 54.8-46.1 5.3-8.2 5.8-8.7 11.3-10.2 2.8-.8 6.7-3.6 12.1-8.5 17.6-16.3 23.6-18.2 36.5-11.6 2 1 4.2 1.9 4.8 1.9.6 0 1-2.5 1-5.9 0-5.6.1-5.9 3.1-7.1 3.6-1.5 4.8-.7 5.8 4.1 1 4.9 3.7 5.9 17 5.9 9.4 0 12.2-.4 15.5-2 5.1-2.4 6.3-4.3 8.1-13.1 2.9-13.9 6.1-16.3 17.8-13.5 9.5 2.2 11 2.1 13.9-.9 3-3 10.6-4.7 17.6-3.8 6.5.7 8.9-.6 9.9-6l.9-4.2 8.3-.8c4.6-.5 13.9-2.4 20.5-4.4 15.5-4.6 16.9-4.8 18.4-3 1.1 1.2.5 2.1-3.5 4.9-2.6 1.9-8.4 5.4-12.8 7.8-31.5 16.9-104.1 65.4-156 104.3-42.9 32.1-66.7 52-140.3 116.9-44.4 39.2-53.9 48.5-62.7 61.8-12.8 19.3-4.8 32 20.1 32 3.6 0 8.7.7 11.4 1.6 4.2 1.4 5.5 2.5 10.2 9.1 2.9 4.2 7.4 9.5 10.1 11.8 8.7 7.9 25.9 13.3 36.2 11.4 5-.9 5.5-1.2 11.9-6.2 5.1-4.1 6.3-2.9 2.3 2.2-4.1 5.2-10 9.4-16.5 11.6-10.2 3.6-10.6 4-17.7 14.7-5.4 8.1-11.1 14.5-26.5 29.8-29.4 29.3-52.6 56.5-62.8 73.6-5.1 8.6-5.4 8.9-8.9 8.9-5 0-7.4 3.4-8 11.6-.5 5.6-.3 6.6 1.6 8.3 3.1 2.8 17.3 4.4 24.9 2.8 8.2-1.7 10-1.5 13.4 1.3 4.3 3.7 10 5.1 15.7 3.9l4.8-1 1.2 5.9c1.8 8.6 4.2 10.7 12.6 10.7 3.6 0 9.5-.7 13-1.6 8.9-2.2 9.9-1.7 9.2 5-.6 6.1-3.4 12.2-8.3 18.3-1.9 2.2-3.8 5.3-4.4 6.8-1.3 3.5-1.3 10.1.1 12.7 1.1 2 6.5 4.8 9.4 4.8 2.8 0 6.5-4.6 6.5-8.3 0-5.2 1.8-6.1 5-2.6 3.7 3.8 7.4 3.8 12.9-.2l4.2-3.2-5-4.6c-2.8-2.6-5.1-5.4-5.1-6.2 0-.8 1.8-4.6 4-8.5 4.9-9 13.8-17.2 25-23.3 8.4-4.6 9.8-6.1 11.7-12.5.7-2.5 2.7-4 12.2-9 14.2-7.6 20.7-13.7 24.7-23.3 2.7-6.7 6.8-12.3 8.9-12.3.5 0 2.8-.9 4.9-2.1l3.8-2 2.4 2.2c2.7 2.5 3 5.5.9 8.3-3.1 4.1-.8 7.6 4.8 7.6 2 0 3.5-1.6 7.8-8.2 5.5-8.6 7.4-12.9 8.4-19 .8-5.2 4.7-9.4 10.3-11.2 2.6-.8 6.8-2.1 9.5-3 5.8-1.9 6.3-.5 1.7 4.7-1.6 1.9-3 4.5-3 5.7 0 2.1.3 2.2 4.5 1.8 3.6-.4 6.2-1.8 11.9-6.2 4-3.1 7.8-5.6 8.5-5.6.6 0 1.1-.7 1.1-1.5 0-3.3 3.8-6.9 14.4-13.9 15.5-10.1 26.6-15.9 26.6-14 0 2.4-2.8 8.4-5.5 11.6-1.7 2-2.5 4.2-2.5 6.7 0 4.5 1.4 6.1 5.6 6.1 3.2 0 4.4-1.3 4.4-5.1 0-2.3 1.5-2.5 2.4-.4.8 2.2 6 1.9 8.2-.6 1.8-2.1 1.8-2.1-.9-4.1-3.5-2.6-3.4-4.2 1.1-10.7 2.6-3.8 5.7-6.6 10.5-9.5 4.9-2.9 7.3-5.1 8.3-7.4 1.4-3.4 5.4-5.8 6.6-3.9 1 1.6 9.8 0 15.8-3.1 6.8-3.3 7.3-5.8 1.8-8.5-4.3-2.1-4.1-3.7.8-6 4.6-2.2 5.3-2.2 6.4.8 1 2.6 5.2 3.6 6.5 1.5.3-.6 1.8-1 3.2-1 1.4 0 6-1.6 10.3-3.5 4.3-1.9 8.4-3.5 9.2-3.5.8 0 4.2-1.8 7.6-4 3.4-2.1 7.6-4.7 9.3-5.6l3.2-1.6-.6 5.8c-.8 7.8-3 10.5-10.3 12.7-13 4.1-17.8 6.2-24.4 10.8-6.2 4.4-9 7.3-19.9 20.9-1.5 1.9-17.6 14.7-35.7 28.4-47.4 35.9-73.3 56-84.3 65.1-8.7 7.3-40.6 41-53.5 56.5-12.9 15.6-24.3 36-25.3 45.2-.7 6.6 1.3 11 8.5 18.9 2.7 3 6.1 7.8 7.6 10.6 3.6 7.1 6.2 7.2 11.1.4 4.6-6.3 7.3-7 15.2-3.9 6.8 2.7 7.6 4.7 4.3 11.1-1.4 2.6-2.4 6.8-2.7 11.3-.5 6.8-.4 7.4 2 9.8 2.5 2.5 2.9 2.6 16 2.6 8.9 0 15-.5 18.2-1.5 2.7-.8 5-1.3 5.2-1.2.1.2-.5 1.8-1.5 3.7-1.1 2.2-2.7 3.7-4.6 4.2-4.6 1.1-17.6 14.7-17.6 18.2 0 .3 1.6 2.3 3.5 4.5 2.4 2.6 3.8 5.4 4.4 8.6.5 2.6 1.4 5.2 2 5.8.7.7 4.8 1.4 9.2 1.6 9.8.4 12.1-.9 15.5-8.6 3.1-7 2.8-9.3-1.5-11.5-5.1-2.6-8.3-6-7.7-8.3 1-4.1 6.7-18.9 8.4-21.7 1.5-2.6 8-8.1 13.7-11.5 1.1-.7 4.1-1.2 6.6-1.3 6.3 0 9.5-2.6 11.5-9.7 2.1-7.1 4.3-9.3 9.5-9.3 4.7 0 7.6-2.5 12.1-10.2 1.9-3.3 4.7-6 9.7-9.3 4.5-3 12.3-10.2 22.1-20.5 12.8-13.4 16.2-16.4 22.3-19.6 15.1-7.9 32-20.6 46.7-35.4 7-7 10.7-9.7 20.5-15 6.5-3.6 19.5-11.6 28.8-17.8 14.6-9.8 17.3-11.2 19.8-10.7 3 .7 3.7-.3 1.8-2.2-.8-.8.6-2.2 4.9-5.2 3.4-2.3 6.4-4.1 6.8-4.1.4 0 1.5-.7 2.4-1.5 1.1-1 4.1-1.7 7.6-1.9 5.9-.3 8.8-1.5 15.3-6.2l3.5-2.5 1.3 2.3c.7 1.3 1.2 3.3 1.3 4.5 0 3.5 2.8 5.6 6.7 4.8 2.6-.5 3.3-.3 3.3 1 0 2-2 2.8-7.3 2.9-3.6.1-4.3.5-5.1 2.9-1.4 3.8.2 6 5 7 2.1.4 4.3 1.2 4.8 1.7.6.6-3.8 5.8-12 14.2-10.5 10.8-13.8 14.9-17.4 21.8-3.9 7.4-5.6 9.4-13.5 15.9-4.9 4.1-16 14.6-24.5 23.3-8.6 8.7-15.9 15.8-16.4 15.8-.4 0 .1-1.6 1.3-3.6 2.1-3.6 2.8-7.4 1.3-7.4-1.8 0-16.5 13.4-22.7 20.7-3.7 4.3-8.7 11.1-11.2 15.3-2.5 4.1-6.1 9.2-7.9 11.3-1.9 2-3.4 4.3-3.4 5 0 3 4 21.8 5.3 25 2.8 6.7 8.6 7.5 12.5 1.7l2.3-3.5h11.2c12.3 0 15.7-1.1 24.2-8 4.6-3.7 7.8-5.5 9.7-5.5 1.9 0 4.5 5.6 5.3 11.3 1.1 7.3 5 9.3 15 7.5 1.5-.2 2.1.3 2.3 2.4.5 4.3-3.4 6.2-10.8 5.5-5.3-.6-6.2-.4-8.6 1.6-2.2 1.9-2.7 3.3-2.8 7-.1 5.6 1.5 7.6 7 8.3 7.5 1 8.6 1.5 12.4 5.4 5.7 5.9 9.1 5.4 14.6-1.9 1.9-2.5 7-7.8 11.3-11.6 4.4-3.9 16.1-14.3 26-23.2 9.9-9 19.1-16.5 20.3-16.7 1.3-.3 4.5-.7 7.1-.9 3.4-.3 5.9-1.3 8.6-3.5 10.9-8.8 17.4-13.1 21.7-14.7 10.2-3.7 15.7-6.9 22.7-13.4 4-3.6 9.9-8.3 13.2-10.3 6.9-4.2 25.4-12.7 33.2-15.2 6.4-2.1 9.8-4.7 12.2-9.4 2.8-5.4 7.5-9.3 17.3-14.5 7.7-4 9-4.4 10.2-3.1.8.8 1.8 2.3 2.1 3.4 1 3.2 4.6 2.4 10.5-2.5 6.5-5.3 15.7-10.3 25.7-13.9 9.5-3.3 14.1-5.7 17.8-9.2 1.7-1.6 3.8-2.7 4.7-2.6.9.2 6.5-2.3 12.5-5.5 8.2-4.4 12.6-7.6 18.3-13.2 8.7-8.6 14.4-11.7 17.5-9.7 3.7 2.4 3 5.2-2.5 10.3-2.9 2.6-7 6-9.2 7.4-4.9 3.3-6.3 5.3-7.2 10.4-2 10.7-11.1 21.7-28.3 34.6-5.4 3.9-13 10.2-16.8 13.8-3.9 3.6-9.1 7.8-11.7 9.3-5.5 3.2-7.8 6.3-8.5 11.7-.5 3.9-.7 4-5.6 5.1-2.8.6-6.5 2-8.3 3.1-5.2 3.1-13.7 13-18.7 21.5-2.5 4.4-6.7 9.9-9.2 12.4-6.1 5.9-7.5 8.8-7.5 15.4 0 4.5-.4 5.8-2.2 7-1.2.9-3.5 1.6-5 1.6-2.4 0-2.9-.6-3.9-4.3-.6-2.3-1.6-4.8-2.1-5.4-1.5-1.9-4.8-1.6-8.5.7-2.7 1.6-3.3 2.6-3.3 5.4 0 2.7.7 3.9 3 5.6 2.5 1.8 2.8 2.5 2 4.1-.9 1.7-1.8 1.8-6.4 1.3-10.1-1.2-16 2.8-24.3 16.6-2.4 4.1-6.3 9.4-8.5 11.7-4.1 4.1-4.1 4.2-3.5 10.1 1 9.2 1.4 9.8 4.7 6.7 1.5-1.4 5-3.2 7.9-4 4.5-1.2 6.4-2.6 15.9-12.3 7.7-7.8 14-13.1 22.4-18.6 15.5-10.3 23-18.2 29.6-31.2 8.3-16.2 14.7-22 29.3-26.9 7.5-2.5 10.9-5.2 10.9-8.6 0-1.4-.7-1.9-2.5-1.9-1.4 0-2.5-.4-2.5-1 0-1.7 13.1-15 23-23.2 5.2-4.4 17.6-14.1 27.5-21.6 9.9-7.5 20.5-16 23.7-18.9 7.1-6.5 9.9-8 18.3-9.3 11.6-1.9 20-7.8 27.6-19.6 3.9-6 4.4-6.4 10.8-8.3 8-2.4 16-7.8 26.2-17.6 4.1-4.1 8.7-7.7 10.1-8 3.4-.9 9.8 1.9 9.8 4.2-.1 4.5-5.7 10.9-19.8 22.9-6.7 5.8-13.6 12.4-15.3 14.6-2 2.9-5.4 5.5-10.8 8.3-15.6 8.4-26.8 16.9-56.4 43.1-6.8 6-18.8 15.9-26.6 21.8-15.7 12.1-23.8 18.9-45.6 39.1-20.9 19.2-33.5 29.9-45.1 38.3-5.4 3.9-13 10.5-16.7 14.7-7.7 8.5-24.6 23.7-48 43.3-13.4 11.3-16.2 13.2-19.1 13.2-7.5 0-11.5 3-20.4 15-6.3 8.6-13.7 17.3-23.5 27.8-8.2 8.7-10.1 12.7-9.2 19.2l.6 4.7-6.9 5c-7.2 5.3-13.9 12.8-17.3 19.4-2.4 4.8-2.4 4.9.7 4.9 1.9 0 3.9-1.4 7.2-5 4.8-5.3 7.3-6.1 10.3-3.4 1.7 1.5 1.2 2.4-8.7 15.5-5.7 7.6-10 13.9-9.5 13.9.4 0 1.4-.7 2.2-1.6.7-.9 4.7-3.3 8.8-5.4 8.7-4.3 14.6-10.1 26.1-25.5 10.3-13.8 20-23.4 28-27.4 5.3-2.8 6.9-4.1 8.2-7.2 2-4.8 5.9-7.2 16.8-10.5 12.3-3.7 14.6-6.5 11.9-14.2-1-3-.8-3.5 3.1-7.9 5.9-6.8 8.3-8 19-9.9 10.8-1.8 14.9-3.3 19.2-6.9 3-2.6 7.1-3.2 9.8-1.5 1.2.8.8 1.6-2.3 4.8-2 2.1-3.7 4.8-3.7 5.9 0 4.9 14.3 3.9 23-1.5 9.5-6 28-21.2 40.5-33.3 7.2-6.9 21.1-19 31-26.9 28.3-22.5 82.1-67.6 91.8-77 8.8-8.4 8.9-8.5 14.3-8.6 5.2-.1 5.6-.4 12.3-6.7 3.8-3.5 11.6-9.5 17.2-13.3 5.7-3.7 13.6-9.1 17.4-12l7-5.2 6.5.5c8 .6 13.3-.7 19.6-5 5.4-3.6 14.4-14.1 14.4-16.8 0-2.3-2.8-3.1-6.8-1.9-3.8 1-5.8.5-6.7-1.8-.5-1.2 2-4.3 9.3-11.4 14.6-14.3 21.2-18 37.6-21.5 3.5-.7 4.1-1.3 5.3-4.9 2.2-6.7 5.2-8.8 12.6-8.8 4.5 0 7.6.7 10.9 2.3 7.3 3.5 13.1 1.4 29.8-10.8 6.8-5 14.5-14.3 13.6-16.6-.6-1.8-7-2-11.3-.4-2.5.9-2.2.4 2.3-4.3 2.8-2.9 6.3-7.4 7.8-10 3.7-6.7 10.2-14.2 25.5-29.6 11.3-11.4 13.5-13.2 16.2-13.2 4.8 0 9.7-5.8 13.9-16.6 4.6-11.7 6.6-13.9 14.8-16.4 8.6-2.5 10.9-4.2 12.3-9 1.7-5.6-.4-8.4-7.7-10.6-3.1-.9-7.4-2.4-9.6-3.4l-3.9-1.7 2.8-1c1.5-.6 4.7-1.6 7-2.2 4.9-1.3 6.3-3.3 6.3-8.9 0-4.2-2-6.7-7.5-9.5-1.7-.8-3.8-2.4-4.8-3.5-1.7-1.9-1.6-2 2.8-3.6 5.4-2.1 8.5-5.7 8.5-10.1 0-3.4-3.3-8.5-5.4-8.5-.8 0-3.5-.9-6-2.1-5.1-2.2-6.8-2.1-17.1 1.1-3.9 1.2-12.1 2.3-23.5 3-28.1 1.8-42.8 4.3-67 11.3-2 .6-6 .7-9.3.3-5.6-.7-5.7-.8-5.1-3.4 1-4 3-7.7 8-14.5 2.5-3.3 4.3-6.5 4.1-7.1-.2-.6-2.8-2.4-5.8-3.9-7.2-3.8-14.1-3.5-22.9 1.1-7.9 4.2-10.4 3.3-6.3-2 1.6-2 5.2-5.8 8.1-8.4 2.9-2.6 8.2-8.3 11.7-12.8 8.1-10.4 10.9-13 16.7-15.6 3.6-1.6 6.4-2 11.6-1.8 7.9.3 9.7-.6 10.6-5.7.4-1.9 1.6-5.5 2.7-8 1.1-2.6 1.8-4.9 1.6-5.2-.3-.2-1.8.5-3.4 1.7-4.1 2.9-10.3 4.9-12.8 4-1.1-.4-2.7-2.5-3.5-4.7-2-5.4-3.7-7.2-8.2-9-2.1-.8-3.8-1.7-3.8-2 0-.9 5.6-5.4 10-8.1 4.1-2.5 5.3-2.7 13.3-2.5 6.1.1 8.9-.2 9.3-1 .2-.7-.8-4.8-2.4-9.2l-2.8-8-7.9-4.3c-9.2-4.9-11.6-5-27.1-1.4-5 1.2-18.7 3.5-30.5 5.2-27.6 3.9-38.4 6-60.3 11.5-9.9 2.5-18.3 4.5-18.8 4.5-1.3 0-.9-4.5.7-6.6 2.5-3.4 1.8-6.7-2.5-10.9-4.8-4.7-5.4-7.3-3.9-16.1 1.4-7.9 1.6-8.2 16.7-18.9 11.6-8.3 15.5-10 21.8-9.2 4.3.4 4.4.4 4.4-2.4 0-1.9-1.2-4.2-3.5-6.8-4-4.4-4.8-9.1-1.5-9.1 2.6 0 10-9.8 10-13.4 0-1.7-.6-2.8-1.7-3.2-1-.2-3.9-1.6-6.6-2.9-6.1-3.2-8.2-3.1-13.7.5-2.5 1.6-5.5 3-6.8 3-1.9 0-1.1-1.2 5.1-7.3 4-4 8.9-7.9 10.8-8.7 10.4-4.1 10.6-12.3.3-16.6-4.4-1.9-8.6-1.7-22.9.6-6.6 1.1-17.1 2.5-23.4 3-13.5 1.1-15.6 2.3-14.7 8.1.8 5.2-1.5 7.6-8.3 8.9-8.6 1.6-11 1.3-13.4-1.6-5.1-6.2-6.7-7.4-9.6-7.4-5.8 0-59.5 12.7-86.6 20.6-20.2 5.8-28.5 5.7-21.8-.5 1.6-1.4 4.8-5.5 7.2-8.9 4.6-6.8 9-10.2 13.2-10.2 4.3 0 6.1-3 5-7.9-1-4.5.4-13.5 3.2-20.1.8-1.9 1.7-4.7 2.1-6.1l.6-2.7-9.3-.4c-9.5-.4-15.2-2.3-16.4-5.4-1-2.6 3.8-6.2 12.2-9.1 9.8-3.4 10.6-5.4 5.1-12.3l-3.5-4.4 2.1-3.8c1.3-2.2 3.3-4.1 5.1-4.8 5.5-1.9 9.5-5.9 12.7-12.4 5.5-11.6 5.3-19.7-.5-22.2-4.8-2-6.9-1.9-6 .3 4.4 10.4 3.9 14.7-2.4 18.8-2 1.4-4.5 3.9-5.5 5.6-1.3 2.2-2.2 2.8-3.4 2.3-1-.4-4.2-1.6-7.2-2.7-12.2-4.3-29.3-.4-54.6 12.4-7.3 3.6-13.6 6.4-14.1 6-.4-.3-1.4-1.9-2.1-3.4-1.7-3.8-3.4-4.2-12.1-2.8-10.3 1.8-18.4 4.4-33.3 10.8-12.3 5.3-12.7 5.4-15.7 3.9-1.6-.9-3.7-1.6-4.6-1.6-.9 0-2.8-.9-4.3-2-1.8-1.3-5.6-2.4-11.1-3-7.9-1-8.5-1-10.6 1-2.2 2.1-2.3 2.1-10.7.4-6.8-1.3-10.1-1.5-16.2-.7l-7.7.9 2.8-2.3c4.5-3.7 18.7-12.8 35.9-22.9 15.5-9.2 31.4-20.6 31.4-22.6 0-.6-1-.8-2.2-.5-1.3.3-4.6.9-7.5 1.3-4.6.6-5.2.4-6.3-1.5-.9-1.8-.7-2.9 1.4-6.6 3.1-5.3 3.2-8.2.5-13.4-1.6-3.1-1.8-4.4-1-6 1-1.8 10.4-6.1 13.4-6.1 3.3 0 11.7-5.1 13.1-7.9 1.3-2.5 3.5-13.4 3.6-17.8 0-.7 1.9-2.9 4.1-5 2.3-2.1 6.7-7.6 9.9-12.3 3.1-4.7 6.9-10.3 8.3-12.4 3.6-5.2 3.7-11.3.3-15.4-3-3.4-18.5-11.2-22.5-11.2-1.6 0-3.4-.7-4.2-1.6-3.5-4.2-12.9-6.9-28.5-8l-9.1-.6-2.9 3.5c-1.6 1.9-3.6 3.6-4.4 3.8-.8.1-4.6-.8-8.5-2-12.3-4-25.4-4-56.5.3-31 4.3-43.8 6.4-69 11.3-23.8 4.6-29 4.6-39.5.3-5.2-2.1-10.4-3.4-14.8-3.8-7.6-.5-9.7-2.2-9.7-7.8 0-3.8 1.2-4.9 13-11.2 14.4-7.7 16.3-10.1 18.1-22.8 1.9-13.5 3-14.7 16.6-17.1 11.2-1.9 12.3-2.8 12.3-10.8 0-6.9 1.5-9 8-11.5 1.9-.8 8.1-4.2 13.8-7.6 5.7-3.5 11.6-6.6 13.3-6.9 3.3-.8 3.8-2.9 1.4-7.4-2.3-4.5-6.9-6-21.6-7.1-14.9-1-17.1-1.5-24.6-5.4-7.3-3.7-12.4-3.3-34.3 2.4zm541.1 585.2c-1.7 1.5-3.8 2.8-4.6 2.8-.9 0 .1-1.4 2.3-3.4 2-1.9 4.1-3.2 4.6-2.9.5.4-.5 1.9-2.3 3.5zM715 1075.4c0 .2-.8 1-1.7 1.7-1.6 1.3-1.7 1.2-.4-.4 1.3-1.6 2.1-2.1 2.1-1.3z"/><path d="M754 307c-2.8 2.8-2.6 6.6.3 7.4 3.1.8 3.4.8 5.1-1 2.2-2.1 2-6.1-.3-7.4-2.6-1.3-2.8-1.3-5.1 1zM487.2 547c-7.2 1.7-9.5 7.6-3.7 9.2 6.5 1.9 16-1 19.2-5.8 1.4-2.2 1.4-2.7.2-3.5-1.7-1-11.1-1-15.7.1zm883.4 136c-4.8 5.6-8.6 10.3-8.3 10.6 1 1 8.3-.7 11.5-2.6 4.3-2.7 6.4-7 6-13.1l-.3-5-8.9 10.1zm-45.4 62c-3.1 2.9-2.8 6.3.9 9.4 4.4 3.8 7.5 3.5 8.9-.9 2.6-7.9-4.1-13.8-9.8-8.5zm-12.7 229.9c-2.2 2.2-5 4.1-6.4 4.3-2 .2-2.6.9-2.6 2.8 0 2.1.5 2.5 3 2.5 2.3 0 3.1-.5 3.3-2.3.3-1.9.9-2.2 4.6-2.2 5 0 8-2.5 7.4-6.2-.6-4.1-4.9-3.6-9.3 1.1zm-636.2 55c-2.5 1.2-5.2 3.5-6.7 5.8-2 2.9-3.6 4.2-6.9 5-5.7 1.5-9.5 4.7-11.8 9.7-3.3 7.2-2.7 8 3.4 4.4 6.4-3.8 10.4-7.4 12.3-10.9.9-1.9 2.5-2.9 5.1-3.4 5-.9 8.9-3.9 11.3-8.6l2-3.9h-2.2c-1.3 0-4.2.9-6.5 1.9zm-40.8 31.2c-3.5 1-5.5 3.4-5.5 6.6 0 3 2.2 3.9 5.9 2.3 2.8-1.1 4.4-3.3 5.6-7.8.7-2.5-.6-2.7-6-1.1zm38.2 62.8c-2.4 7.8-2.2 10.5 1.3 14.4 2.7 3.1 13.6 8.5 14.7 7.3.3-.2-1.6-3-4.2-6.2-4.8-5.8-7.6-11.2-9.3-17.4l-.9-3.5-1.6 5.4zm97.3 42c-7.6 4-9.3 6.1-9.8 12.5-.5 6.2 2.9 18 5.4 19 3 1.2 7 .5 12.2-1.9 12.4-5.8 13.5-8.3 7.3-16.1-4.6-5.9-5.1-7.2-3.9-10.3.6-1.8.4-2.9-.8-4.2-2.3-2.5-3.9-2.3-10.4 1zm70.1 44.7c-8.4 6.5-16.5 15.9-26.4 30.4-3.9 5.8-9 12.9-11.4 15.8-4.7 5.8-7.8 11.2-6.5 11.2.5 0 3.5-3.7 6.7-8.3 3.3-4.5 12.5-15 20.5-23.2 16.5-17.1 28-31.5 25.2-31.5-.5 0-4.2 2.5-8.1 5.6zm.8 160.6c-3.1 3.5-3.6 5.7-1.7 7.6 3 3 8.8-.6 8.8-5.6 0-2.7-1.5-5.2-3.3-5.2-.4 0-2.1 1.5-3.8 3.2z"/></symbol><symbol viewBox="0 0 511.997 511.997" id="icons--present" xmlns="http://www.w3.org/2000/svg"><path d="M371.472 48.579a7.501 7.501 0 0 0-9.464-4.79l-2.663.873v-2.913a7.5 7.5 0 0 0-7.5-7.5 7.5 7.5 0 0 0-7.5 7.5v2.914l-2.663-.873a7.504 7.504 0 0 0-9.464 4.79 7.503 7.503 0 0 0 4.791 9.464l2.764.907-1.739 2.417c-3.585 4.981.027 11.883 6.08 11.883 4.371 0 6.071-3.089 7.732-5.396l1.639 2.276a7.5 7.5 0 0 0 12.174-8.764l-1.74-2.417 2.764-.907a7.5 7.5 0 0 0 4.789-9.464zm74.163 80.505a7.501 7.501 0 0 0-9.464-4.79l-2.663.873v-2.913a7.5 7.5 0 0 0-7.5-7.5 7.5 7.5 0 0 0-7.5 7.5v2.913l-2.663-.873c-3.935-1.285-8.172.854-9.464 4.79a7.503 7.503 0 0 0 4.791 9.463l2.764.907-1.74 2.417a7.501 7.501 0 0 0 12.175 8.764l1.638-2.276c1.576 2.189 3.3 5.396 7.732 5.396 6.04 0 9.671-6.894 6.081-11.883l-1.74-2.417 2.764-.907a7.5 7.5 0 0 0 4.789-9.464z"/><circle cx="345.497" cy="111.749" r="7.5"/><circle cx="465.497" cy="233.159" r="7.5"/><circle cx="387.497" cy="175.749" r="7.5"/><circle cx="468.507" cy="77.749" r="7.5"/><path d="M329.94 129.488c-3.905-4.834-9.439-5.319-9.439-5.319-4.3-.594-7.935 2.453-8.5 6.35-.603 4.119 2.258 7.902 6.34 8.5l-13.38 13.04a7.5 7.5 0 0 0-2.16 6.64l3.16 18.421h-.01c-22.035-11.593-18.16-11.517-40.03-.011h-.01c-.011.011-.011.011-.021.011l3.16-18.421a7.522 7.522 0 0 0-2.15-6.64l-13.389-13.04 18.5-2.689a7.507 7.507 0 0 0 5.64-4.101l8.28-16.76 3.26 6.61a7.46 7.46 0 0 0 6.73 4.189c5.552 0 9.171-5.84 6.729-10.83l-3.269-6.609c-5.508-11.28-21.541-10.996-26.91 0l-6.519 13.22c-14.879 2.161-19.531 1.858-24.04 7.439-2.22 2.73-3.4 6.04-3.4 9.57-.058 7.779 4.487 10.649 15.09 20.991l-2.49 14.54c-.15.84-.22 1.71-.22 2.58a14.87 14.87 0 0 0 4.54 10.7c2.903 2.811 6.655 4.27 10.48 4.27 4.682 0 6.331-1.404 20.009-8.6h.01l13.05 6.859c9.923 5.263 22.007-2.041 21.98-13.229 0-.87-.07-1.74-.22-2.58l-2.49-14.54 10.559-10.29c5.632-5.439 6.051-14.219 1.13-20.271zm174.557 133.261h-99.822l3.558-3.469c10.024-9.769 4.484-26.804-9.362-28.814l-19.262-2.8-8.614-17.454c-6.194-12.553-24.105-12.547-30.296 0l-8.615 17.454-19.261 2.8c-13.851 2.011-19.382 19.048-9.363 28.814l3.559 3.469h-26.834c.439-4.332-.993-8.82-4.304-12.133l-42.426-42.426c-5.849-5.848-15.364-5.848-21.212 0l-26.104 26.105-28.75-28.75c-7.029-7.03-16.958-9.69-26.562-7.118-9.603 2.573-16.872 9.843-19.445 19.445l-15.035 56.111c-8.977 3.812-16.02 10.852-19.833 19.834l-56.11 15.034C-.043 314.328-6.905 339.876 8.076 354.86l28.75 28.75-26.104 26.104c-5.863 5.862-5.863 15.351 0 21.214l42.426 42.427c2.924 2.924 6.765 4.386 10.606 4.386s7.682-1.462 10.606-4.386l195.6-195.606h227.037v177.5c-.01 4.12-3.37 7.489-7.5 7.5H236.502c-4.13-.011-7.49-3.38-7.5-7.5v-95.65c0-4.13-3.36-7.5-7.5-7.5-4.13 0-7.49 3.36-7.5 7.48v95.67c0 6.01 2.34 11.66 6.59 15.91 4.25 4.239 9.9 6.59 15.91 6.59h252.995c12.379 0 22.5-10.013 22.5-22.5v-185c0-4.174-3.413-7.5-7.5-7.5zm-378.629-40.993c2.49-9.293 14.102-12.415 20.912-5.604l28.75 28.75-34.668 34.669 9.049-33.772a7.5 7.5 0 1 0-14.488-3.883l-8.711 32.511a37.233 37.233 0 0 0-14.042-3.41l13.198-49.261zm-21.191 65.145c8.131-2.372 16.842-.069 22.697 6.159a476343.4 476343.4 0 0 0-31.788 31.788c-12.708-11.974-7.457-33.12 9.091-37.947zM18.68 344.255c-3.195-3.196-4.405-7.71-3.235-12.075 1.169-4.365 4.474-7.669 8.838-8.839l49.262-13.199a37.26 37.26 0 0 0 3.409 14.043l-32.51 8.711a7.498 7.498 0 0 0-5.303 9.186 7.5 7.5 0 0 0 9.185 5.304l33.772-9.049-34.669 34.669-28.749-28.751zm45.071 118.494l-42.425-42.426 31.407-31.407v-.001l.001-.001 138.704-138.707.002-.002 31.406-31.407 42.432 42.418L63.751 462.749zm334.012-214.21l-14.578 14.211h-54.678c-15.674-15.28-15.558-14.611-15.057-16.151.507-1.56-.236-1.033 24.692-4.655a7.496 7.496 0 0 0 5.647-4.103c11.184-22.66 10.437-22.046 12.057-22.046 1.621 0 .873-.614 12.056 22.046a7.5 7.5 0 0 0 5.647 4.103l23.165 3.366a1.886 1.886 0 0 1 1.049 3.229z"/></symbol><symbol viewBox="0 0 512 512" id="icons--rings" xmlns="http://www.w3.org/2000/svg"><path d="M301.697 209.073c-26.211-81.141-113.316-125.696-194.556-99.507-81.24 26.179-125.849 113.178-99.628 194.32 26.211 81.141 113.316 125.696 194.556 99.507 81.24-26.179 125.849-113.178 99.628-194.32zM154.574 380.014c-92.764 0-151.928-98.11-110.017-179.825 49.907-97.37 193.778-86.676 227.713 18.365 25.869 80.087-34.231 161.46-117.696 161.46z"/><path d="M504.487 296.177c-26.211-81.141-113.315-125.696-194.556-99.507-81.24 26.179-125.849 113.178-99.628 194.319 26.211 81.141 113.316 125.696 194.556 99.507 81.24-26.179 125.849-113.178 99.628-194.319zm-147.123 170.94c-92.764 0-151.928-98.11-110.017-179.825 49.907-97.37 193.778-86.676 227.713 18.365 25.87 80.088-34.231 161.46-117.696 161.46z"/><path d="M436.248 133.067a.819.819 0 0 1-1.267-.408c-1.397-4.275-7.504-19.56-24.843-25.147-18.051-5.817-35.946 7.057-42.298 26.719-6.64 20.555-.546 48.97 27.562 81.975a24.087 24.087 0 0 0 24.07 7.757c42.121-10.373 63.694-29.871 70.334-50.427 6.352-19.662-.635-40.555-18.685-46.372-17.338-5.588-31.238 3.249-34.873 5.903z"/><path d="M471.121 127.164a37.732 37.732 0 0 0-6.274-1.451c3.559 8.582 3.859 19.1.566 29.293-6.64 20.555-28.213 40.053-70.334 50.426a23.99 23.99 0 0 1-7.752.6c2.464 3.34 5.143 6.73 8.075 10.173a24.087 24.087 0 0 0 24.07 7.757c42.121-10.373 63.694-29.871 70.334-50.426 6.352-19.662-.634-40.555-18.685-46.372zM86.714 40.962a.819.819 0 0 0 1.267-.408c1.397-4.275 7.504-19.56 24.843-25.147 18.051-5.817 35.946 7.057 42.298 26.719 6.64 20.555.546 48.97-27.562 81.975a24.087 24.087 0 0 1-24.07 7.757c-42.121-10.373-63.694-29.871-70.334-50.427-6.352-19.662.635-40.555 18.685-46.372 17.337-5.587 31.237 3.249 34.873 5.903z"/><path d="M155.121 42.125c-6.352-19.662-24.247-32.536-42.297-26.719-5.73 1.847-10.227 4.754-13.739 7.972 12.038 2.884 22.334 13.396 26.834 27.326 6.522 20.188.744 47.959-26.091 80.213 1.204.321 2.423.636 3.662.941a24.085 24.085 0 0 0 24.07-7.757c28.107-33.006 34.201-61.42 27.561-81.976zM288.638 179.557c-7.602 7.61-15.206 15.219-22.814 22.823a131.343 131.343 0 0 1 6.446 16.174c4.672 14.464 6.527 28.966 5.959 43.027h30.888c.574-17.332-1.781-35.055-7.421-52.509a154.898 154.898 0 0 0-13.058-29.515z"/></symbol><symbol viewBox="0 0 1297 727" id="patterns--patternAir2" xmlns="http://www.w3.org/2000/svg"><path d="M1079.8 6.8c-6.9.2-8.8.6-8.8 1.7 0 .8.4 1.5 1 1.5.5 0 2.2 1.2 3.8 2.7 1.6 1.6 4.6 4.1 6.7 5.8 2.1 1.6 4.5 3.8 5.4 4.7.8 1 1.9 1.8 2.3 1.8.4 0 2 1.2 3.6 2.7 1.6 1.6 4.6 4.1 6.7 5.8 2.1 1.6 4.5 3.8 5.4 4.7.8 1 1.9 1.8 2.3 1.8.4 0 2 1.2 3.6 2.7 1.6 1.6 4.6 4.1 6.7 5.8 2.1 1.6 4.5 3.8 5.4 4.7.8 1 1.9 1.8 2.3 1.8.4 0 2 1.2 3.6 2.7 1.6 1.6 4.6 4.1 6.7 5.8 2.1 1.6 4.5 3.8 5.4 4.7.8 1 1.9 1.8 2.3 1.8.4 0 2 1.2 3.6 2.7 2.7 2.7 7 6.2 12 10 1.2 1 4.1 3.4 6.2 5.4l4 3.6-8.8 4.4c-8.5 4.2-20.2 10.8-21.2 11.9-.3.3-2.4 1.4-4.7 2.5-2.4 1.1-4.3 2.3-4.3 2.6 0 .4-1.3 1.2-3 1.9-1.6.7-3 1.6-3 2.1s-.6.9-1.2.9c-.7 0-4.4 2-8.1 4.5-3.8 2.5-7.1 4.5-7.3 4.5-.3 0-3.6 2-7.4 4.5-3.8 2.5-7.4 4.5-7.9 4.5-.6 0-1.1.4-1.1.9s-1.3 1.4-3 2.1c-1.6.7-3 1.6-3 2 0 .4-.8 1.1-1.7 1.4-2.1.8-3.8 1.8-12.2 7.4l-6.3 4.2-5.7-1.4c-3.1-.8-9-2.2-13.1-3.2-4.1-.9-9.7-2.2-12.5-2.9-8.2-2.1-14.7-3.6-20.2-4.5-2.8-.4-5.7-1.1-6.3-1.5-1.5-1-11.1.5-10.4 1.6.6 1.1 28.6 14.9 30.1 14.9.6 0 1.3.3 1.5.7.4 1 9.1 5.3 10.7 5.3.6 0 1.1.4 1.1.9s1.2 1.2 2.6 1.5c3.3.9 2.5 1.7-4.6 5.4-3 1.5-5.6 3.4-5.8 4.4-.5 2.4 3.4 3.3 6.3 1.4 1.3-.9 4.4-1.6 6.9-1.6h4.5l-.6 3.7c-.3 2.1-.9 4.2-1.3 4.8-.5.5-1.1 3.2-1.5 6-.3 2.7-1 5.9-1.5 7-.5 1.1-1.4 4.2-1.9 7-1.6 7.8-3.1 14.6-4.7 19.9-1.9 6.4-1.8 6.9.8 5.5 2.9-1.5 6.8-5.9 6.8-7.5 0-.8.4-1.4.9-1.4s1.2-1.4 1.6-3c.4-1.7 1-3 1.5-3s1.1-1.4 1.5-3c.4-1.7 1-3 1.5-3s1.1-1.4 1.5-3c.4-1.7 1-3 1.5-3s1.1-1.4 1.5-3c.4-1.7 1-3 1.5-3s1.1-1.4 1.5-3c.4-1.7 1-3 1.5-3s1.1-1.4 1.5-3c.4-1.7 1-3 1.5-3s1.1-1.4 1.5-3c.4-1.7 1-3 1.5-3s1.1-1.4 1.5-3c.4-1.7 1.1-3 1.6-3s.9-.6.9-1.3c0-2 3.1-4.4 6.7-5.2 1.8-.3 3.5-1.1 3.8-1.6.4-.5 1.4-.9 2.3-.9.9-.1 3.5-.9 5.7-2s4.8-1.9 5.7-2c.9 0 1.9-.4 2.2-.9.3-.5 2.2-1.2 4.1-1.5 1.9-.4 3.5-1.1 3.5-1.6 0-.6.8-1 1.8-1 .9 0 2.9-.6 4.4-1.4 1.5-.8 4-1.7 5.7-2.1 1.7-.4 3.1-1.1 3.1-1.6s.8-.9 1.8-.9c.9-.1 3.5-.9 5.7-2s4.8-1.9 5.8-2c.9 0 1.7-.4 1.7-1 0-.5 1.6-1.2 3.5-1.6 1.9-.3 3.5-1 3.5-1.5s.8-.9 1.8-.9c.9-.1 3.5-.9 5.7-2s4.6-1.9 5.3-2c.6 0 1.2-.5 1.2-1 0-.6.7-1 1.6-1 .9 0 5-1.6 9-3.5s7.7-3.5 8.3-3.5c.6 0 1.1-.4 1.1-.9s1.4-1.2 3-1.6c1.7-.4 3-1.1 3-1.7 0-.6.3-.8.7-.4.9.8 1.6 13.6 3.2 57.6.6 16.2 1.6 33.4 2.1 38.1.6 4.7 1 14.2 1 21.2 0 8.6.4 12.7 1.1 12.7 1.2 0 7.8-7 7.9-8.3 0-.4 1.1-1.8 2.5-3.1 2-1.8 2.7-3.9 3.5-9.7.5-4.1 1.7-11.7 2.5-16.9.9-5.2 1.9-11.2 2.2-13.2.4-3 1.3-4.2 4.2-6 2-1.2 4.2-2.8 4.9-3.5.7-.7 1.8-1.3 2.3-1.3 2 0 4.9-3.6 4.9-6.2 0-5.3-4.6-7.7-10.4-5.3-1.7.8-1.8.4-1.2-4.6.3-3 1.2-9 1.9-13.3 1.1-6.9 1.6-8.1 3.7-9 1.4-.6 2.7-1.3 3-1.7.3-.3 1.5-.9 2.8-1.3 1.2-.4 2.2-1.2 2.2-1.7s.6-.9 1.4-.9c3.3 0 3.5-7.4.4-10.1-2.9-2.3-4.2-2.3-7.5-.2-2.6 1.8-2.7 1.8-1.9-.7.4-1.4 1.1-5.4 1.7-9 .5-3.6 1.4-8.3 1.9-10.5.5-2.2 1.2-6.4 1.6-9.2.6-4.7.9-5.3 3.5-5.8 1.6-.4 2.9-1 2.9-1.5s1.4-1.1 3-1.5c1.7-.4 3-1 3-1.5s1.4-1.1 3-1.5c1.7-.4 3-1 3-1.5s1.4-1.1 3-1.5c1.7-.4 3-1 3-1.5 0-.4 1.1-1.1 2.5-1.4 1.4-.4 2.5-1.1 2.5-1.6 0-.6.6-1 1.3-1 .8 0 2.4-.9 3.7-2 1.3-1.1 2.9-2 3.7-2 .7 0 1.3-.3 1.3-.8 0-.4 1.7-1.8 3.7-3.2 9.8-6.6 18.1-17.6 16.9-22.3-.9-3.5-5.6-5.7-12.6-5.7-6.5 0-18.1 2.2-24.2 4.6-2.1.7-5.7 2.1-8 3-2.4.9-8.9 3.9-14.4 6.5-5.6 2.7-10.7 4.9-11.3 4.9-.6 0-1.1.4-1.1 1 0 2.3-5.5.7-16.1-4.9-6.3-3.2-12.9-6.7-14.8-7.9l-3.3-2 2.6-1.7c3.8-2.5 4.4-6 1.5-9.1-3.2-3.4-6.4-3.1-15.1 1.7-2.2 1.2-6.1 1.2-7.4 0-.5-.5-4.9-3-9.9-5.6-10-5.2-11.8-6.5-9.1-6.5 2.5 0 5.6-3.7 5.6-6.6 0-2.5-3.5-6.4-5.8-6.4-2.1 0-11.2 3.2-11.8 4.1-.7 1.2-7.7 1.2-8.9 0-.6-.5-5.7-3.3-11.5-6.4-5.8-3-12.3-6.5-14.5-7.7-5.8-3.3-7.1-3.5-16.7-3.2zM562 135.7c-3.7.5-5.1 1.8-4.3 4 .8 2 20.6 1.9 22.3-.2.7-.8 1-2.2.6-3-.4-1.2-2.1-1.5-7.8-1.3-4 0-8.9.3-10.8.5zm32.6 1.8c-.9 2.4 2.2 4.5 6.9 4.5 2.4 0 4.5.4 4.7.9.2.5 2.8 1.1 5.8 1.3 5.2.3 5.5.2 5.5-2.1 0-2.2-.8-2.6-7.5-4.2-9.3-2.3-14.6-2.4-15.4-.4zm-59.6 3.3c-7.2 2.4-12.4 4.5-13.9 5.6-1.1.8-.9 1.3.8 2.7 2 1.6 6.1 1.5 6.1-.1 0-.4 2-1.1 4.5-1.4 2.4-.4 4.7-1.1 5-1.7.4-.5 1.7-.9 3-.9 2.9 0 3.9-1.3 3-4-.7-2.3-2.3-2.3-8.5-.2zm96.7 4.9c-1.9 1.9-.3 4.1 4.3 6.1 2.8 1.2 5.5 2.2 6 2.2.6 0 1 .4 1 1 0 .5.6 1 1.3 1 .6 0 2.5.7 4 1.5 2.6 1.3 3 1.3 4.5-.1 1.7-1.7.9-4.2-1.9-5.4l-3.6-1.8c-3.3-1.7-12.6-5.2-13.9-5.2-.6 0-1.4.3-1.7.7zm-128.9 8c-1 .2-1.8.8-1.8 1.3s-.9 1.2-2.1 1.5c-2.4.8-10.6 6.2-11.4 7.6-.7 1 1.8 3.9 3.4 3.9.6 0 1.1-.4 1.1-.9s1.1-1.2 2.5-1.5c1.4-.4 2.5-1.1 2.5-1.6 0-.6.6-1 1.3-1 .8 0 2.4-.9 3.7-2 1.3-1.1 2.7-2 3.2-2 1.7 0 4-3 3.4-4.5-.5-1.5-2.4-1.7-5.8-.8zm162.5 8.9c-.7.7-1.3 1.6-1.3 1.9 0 1 3.3 4.1 6.5 6.1s3.8 2.4 7.4 5.4c2.6 2.2 5.6 2.6 6.6 1s-.7-3.6-7.5-8.8c-8.9-6.7-10.2-7.3-11.7-5.6zm-198.8 18.8c-7.3 7.3-8.3 9.7-4.9 11 1.9.7 16.6-14 16.2-16.2-.7-3.7-3.9-2.3-11.3 5.2z"/><path d="M1011.1 186.3c-8.3 5.8-10.5 8.4-9.1 10.7.8 1.3 1.4 1.2 4.2-.5 1.8-1 3.8-2.4 4.5-2.9 3.4-3 4.3-3.6 5.1-3.6.5 0 2.2-1.1 3.8-2.5 2.3-2 2.7-2.8 1.8-4.2-.6-.9-1.5-1.8-2-1.9-.5-.2-4.2 2.1-8.3 4.9zm-317.4.4c-1.4 1.3-.5 2.9 4.4 8.2 2.8 3 5.8 6.5 6.6 7.8.9 1.3 2.5 2.3 3.9 2.3 1.9 0 2.4-.5 2.4-2.5 0-1.4-.7-2.8-1.5-3.1-.8-.4-1.5-1-1.5-1.4 0-.5-2.3-3.4-5.2-6.4-4.8-5.2-7.5-6.6-9.1-4.9zm-245.8 17.5c-.7 1.3-1.5 2.5-1.9 2.8-1.4 1.1-7 12.2-7 14.1 0 1.4.7 1.9 2.5 1.9 1.6 0 2.5-.6 2.5-1.5 0-.8.4-1.5.8-1.5s1.3-1.2 2-2.8c1.6-3.6 3.7-7.1 5.1-8.5.6-.6 1.1-2.4 1.1-3.9 0-3.5-3.4-3.9-5.1-.6zm535.7 3.3c-2 1.9-3.8 3.5-4 3.5-.3 0-2.2 1.6-4.2 3.6-3.1 2.9-3.6 3.8-2.7 5.2 1.5 2.5 2.5 2.2 7.8-2.3 9.3-7.8 11.7-10.4 11.1-12-.9-2.5-4.2-1.7-8 2zM717.5 216c-.8 1.2.3 7 1.3 7 .4 0 1.8 2.5 3.2 5.5 1.4 3 2.8 5.5 3.3 5.5.4 0 .7.7.7 1.5 0 2 3.9 1.9 4.7-.1.5-1.5-5.4-14.5-6.9-15.2-.5-.2-.8-1-.8-1.7 0-.8-.9-1.9-1.9-2.5-2.4-1.3-2.8-1.3-3.6 0zm235 21.1c-7.5 7.5-7.9 8.1-6.1 9.4 2.5 1.9 3.9 1.1 11.9-7.5 5.7-6.2 6.4-7.4 5.2-8.6-.7-.8-1.7-1.4-2.2-1.4-.5 0-4.4 3.6-8.8 8.1zm-519.1-1c-2.4 3.7-3.3 6.3-4 10.6-.3 2.7-1.1 5.3-1.6 6-1.5 1.8-.5 5.7 1.5 6.1 2.6.5 4.4-2.5 5.2-8.5.3-2.9 1.3-6.7 2.2-8.4 1.4-2.9 1.4-3.2-.5-5.1-1.6-1.6-2.1-1.7-2.8-.7zm300.3 13.6c-1 .9-.9 4 .2 6.1 1.2 2.4 4.1 11.7 4.1 13.2 0 .6.7 1.8 1.6 2.7 1.4 1.4 1.7 1.4 3.1 0 1.3-1.3 1.4-2.2.4-5.9-.7-2.4-1.7-6-2.2-8.1-1.6-6.6-5-10.3-7.2-8zm199.3 7.2c0 .6-2.5 3.6-5.6 6.7-5.6 5.7-7.5 8.8-6.7 11.1.9 2.4 2.6 1.3 10-6.4 7.8-8 9.1-11.5 4.6-12.1-1.3-.2-2.3.1-2.3.7zm-507.3 16.7c-.9.9-.9 14.5-.1 19.6.5 2.8 1.2 3.8 2.5 3.8 2.5 0 3-2.7 2.7-14-.3-8.7-.5-9.5-2.3-9.8-1.2-.2-2.4 0-2.8.4zm482.1 11.8c-1 .7-1.8 1.6-1.8 1.9 0 .3-2.5 3.2-5.5 6.3-5.6 5.9-6.7 8.7-4 9.8 1.1.4 3.6-1.5 7.6-5.5 7.2-7.3 9.1-10.1 8.3-12.3-.7-1.9-2.3-2-4.6-.2zm-164.7.5c-.9.6-1.2 1.9-.7 4.2.4 1.9.9 5.9 1.2 8.9.9 9.2 1.2 10.2 3.7 9.8 2.1-.3 2.2-.7 1.9-8.7-.3-8-2.1-15.1-3.9-15.1-.4 0-1.4.4-2.2.9zm-314.4 25.4c-.6 1.5.9 9.8 2.2 13.2.5 1.1 1.2 3.3 1.7 5 1 3.1 4.1 4.6 5.4 2.5.9-1.4-.7-9-2.1-10.5-.5-.5-.9-1.9-.9-3.1 0-3.9-2.1-8.4-4-8.4-1 0-2 .6-2.3 1.3zM877 319c-4.9 4.9-7 7.8-7 9.5 0 1.6.6 2.5 1.6 2.5 2.2 0 16.6-15 16.2-16.9-.7-3.5-3.9-2.1-10.8 4.9zm-131.1 4.6c-.9 1.1-1.5 5.2-1.7 12l-.4 10.4h2.5c3.3 0 3.9-2.9 3.5-14.9-.3-8.6-1.3-10.6-3.9-7.5zm103.6 22.8c-5.3 5.2-7.4 7.8-6.9 9 1.3 3.3 3 2.3 14-8.1 2.5-2.3 4.4-5 4.4-6.2 0-4-3.9-2.3-11.5 5.3zm-407.8-.7c-1.4 1.4-.6 4.4 2.4 9 1.8 2.6 4.1 6.3 5.3 8 2.5 3.8 6.6 4.6 6.6 1.3 0-1.7-2.9-6.9-5-9-.3-.3-1.3-2.1-2.4-4-2.6-4.9-5.3-7-6.9-5.3zm300 15c-.4.3-.7 1.7-.7 2.9 0 1.3-.4 2.5-.9 2.8-.5.4-1.2 2.9-1.6 5.8-.4 2.9-1.2 6-1.8 6.9-.8 1.3-.7 2.1.6 3.3.8.9 2 1.6 2.5 1.6 1.2 0 2.9-3.7 4.1-9 .5-2.5 1.4-6.3 2-8.5.7-2.7.7-4.3-.1-5.2-1.1-1.4-3.1-1.7-4.1-.6zm85.2 4.6c-1.9 1.2-3.8 2.7-4.2 3.4-.4.7-1.5 1.3-2.2 1.3-.8 0-1.5.3-1.5.7 0 .5-1.4 1.7-3 2.8-3 2-4.1 5.4-1.7 5.6 2.6.3 4.3-.3 6.3-2.2 1.1-1 2.6-1.9 3.2-1.9.7 0 1.2-.3 1.2-.8 0-.4 1.7-1.8 3.8-3.2 4.4-2.9 5.2-3.9 4.5-5.6-.8-2.2-2.9-2.3-6.4-.1zm-362.8 10.6c-2.2 1.4-.4 4.7 4.7 8.8 2.6 2.1 5.6 4.8 6.8 6 2.4 2.6 5.9 3 6.7.9.7-1.7-1.4-4-10-11.4-6.8-5.8-6.3-5.5-8.2-4.3zM793 388c-2.5 1.6-5.1 3-5.7 3-.7 0-1.3.4-1.3 1 0 .5-.6 1-1.4 1-2.1 0-4.6 2.8-4 4.5.4.8 1.4 1.5 2.4 1.5 2 0 8.3-3 8.8-4.3.2-.4.9-.7 1.6-.7 2.5 0 9.6-5.9 9-7.5-.9-2.3-4.4-1.7-9.4 1.5zm-61.5 8.8c-1.1.8-5.5 11.1-5.5 12.9 0 .6-.5 1.3-1.1 1.5-.7.2-1.2 1.8-1.3 3.6-.1 2.3-.6 3.2-1.8 3.2-1 0-1.8.4-1.8.9s-2 1.2-4.5 1.5c-3.9.6-4.5 1-4.5 3.2 0 1.3.6 2.4 1.3 2.5 2.5.2 6.2-.3 7.2-1.1.6-.4 2.6-1 4.6-1.4 4.8-.9 9.9-3.4 9.9-5 0-2.2-2.2-3.7-3.7-2.5-1.8 1.5-1.7-.1.1-3.8 4.9-9.6 6.2-15.5 3.6-16-.8-.2-2 0-2.5.5zm-238.8 2.8c-1.4 1.5-.6 3 2.6 4.9 1.7 1 3.4 2.1 3.7 2.5.3.3 2.9 1.7 5.8 3 2.8 1.4 5.2 2.8 5.2 3.3 0 .4.9.3 2-.3 3.5-1.9 2.2-3.7-5.6-8.5-7.7-4.6-12.3-6.3-13.7-4.9zm268.3 4.6c-5.2 2.4-7.5 3.4-11.2 4.8-1.8.6-2.8 1.7-2.8 3 0 3.1 2.3 3.4 7.3 1.1 2.5-1.2 5.3-2.1 6.1-2.1.9 0 1.6-.4 1.6-.9s1.3-1.2 3-1.6c2.9-.6 4.7-3.5 3.5-5.5-.9-1.5-2.5-1.2-7.5 1.2zm-234.3 11.5c-2.6 2.5 1.7 6 9.8 7.9 1.7.4 3.5 1 4 1.4 1 .8 4.7 1.3 7.3 1.1.6-.1 1.2-1.2 1.2-2.5 0-2-.6-2.5-4-3.1-2.2-.4-4.2-1-4.5-1.5-.3-.5-2.3-1.1-4.5-1.5-2.2-.4-4.2-1.1-4.6-1.6-.6-1-3.8-1.2-4.7-.2zm35.7 11.7c-1 2.6 1.7 4.2 9.1 5.4 3.9.6 8.4 1.4 10.2 1.8 2.6.5 3.2.2 3.8-1.5.9-2.8-.1-4.1-3.1-4.1-1.4 0-3.3-.4-4.2-.9-.9-.5-4.7-1.2-8.5-1.6-5.6-.5-6.8-.4-7.3.9zm123.6-.7c-5 .6-13 3.3-13 4.5 0 1.6 2.8 3.8 4.9 3.8 1.2 0 2.1-.4 2.1-.9s3.2-1.2 7.2-1.6c7.9-.8 10.8-2.1 10.8-4.7 0-1.9-2.8-2.1-12-1.1zm28 4.8c0 .8-.4 1.5-1 1.5-.5 0-1 .6-1 1.2 0 .7-1.8 3.9-4 7.2-2.2 3.2-4 6.5-4 7.2 0 3.5 5.7 2.6 6.6-1.1.3-1.3 1.2-2.6 2-2.9.8-.3 1.4-1.2 1.4-2.1 0-.8.4-1.5.9-1.5s1.3-1 1.7-2.3c.4-1.2 1-2.4 1.4-2.7.8-.5 1.3-2.6 1.1-4.8-.2-1.8-5.1-1.5-5.1.3zm-113.8 1.1c-.8.6-1.2 1.6-.9 2.1 1 1.7 9 3.3 16.1 3.3 5.7 0 6.5-.3 7.1-2.1.4-1.1.4-2.4 0-2.7-1.2-1.3-20.7-1.8-22.3-.6zm47.3-.9c-6.9.3-9.3.7-10.2 2-2.1 2.8.3 4.3 6.8 4.3 3.3 0 5.9-.4 5.9-1s2-.9 4.5-.8c5.3.2 7.5-1.3 5.5-3.7-.7-.8-1.8-1.4-2.4-1.3-.6.1-5.1.4-10.1.5zm40.5 35.4c-3.6 3.9-6.8 7.9-7.1 8.8-.8 2 0 4.1 1.5 4.1 1 0 10.9-9.7 14.4-14.2 1.5-1.9.7-5.8-1.1-5.8-.7 0-4.1 3.2-7.7 7.1zM665.4 490c-1.6 1.6-3.2 3-3.6 3-.4 0-2.1 1.2-3.7 2.7-1.6 1.6-3.7 3.4-4.5 4.1-2.1 1.7-2 3.8.1 4.6 1.7.7 7-2.5 8.6-5.1.4-.7 1.2-1.3 1.8-1.3.5 0 2.6-1.5 4.5-3.4 2.7-2.6 3.4-4 2.9-5.5-.9-2.9-2.7-2.6-6.1.9zm-30.8 22.3c-2.2 1.2-4.6 2.8-5.4 3.4-.7.7-2 1.3-2.8 1.3-.8 0-1.4.4-1.4.9s-.9 1.1-2 1.4c-1.4.3-2 1.4-2 3.1 0 2.1.5 2.6 2.5 2.6 1.4 0 2.5-.4 2.5-.8s1.2-1.3 2.8-1.9c2.9-1.3 6.4-3.4 7.2-4.4.3-.4 1.5-.9 2.7-1.3 3.5-1.1 4.3-6.7 1-6.6-.7.1-3 1.1-5.1 2.3zm-265.3 2.8c-2.3.7-3.3 1.6-3.3 2.9 0 1.9.7 2 11.5 2 9.3 0 11.7-.3 12.1-1.5 1.2-3-2.1-4.5-9.8-4.4-4 0-8.8.5-10.5 1zM404 517c-1.2.7-1.2 1.3-.4 2.7.8 1.2 3.4 2.2 8.5 3 4.1.7 8.7 1.5 10.3 1.9 3.2.8 4.7-.7 3.9-3.7-.4-1.2-1.4-1.9-3-1.9-1.3 0-3.2-.4-4.1-.9-2.7-1.3-13.6-2.1-15.2-1.1zm-59.4.9c-.3.4-3.5 1.1-7.2 1.5-6.3.6-9.4 2.1-9.4 4.5 0 1.8 4.2 2.2 10 1.1 3-.6 7.1-1.4 9-1.7 4.4-.6 6.5-2.9 4.5-4.9-1.5-1.5-6.1-1.9-6.9-.5zm95.6 6.7c-.7.7-1.2 1.7-1.2 2.1 0 1.2 5.9 4.3 8.3 4.3 1.2 0 3.3.6 4.7 1.3 4.2 2.2 8.7 2.8 9.9 1.3 1.9-2.3.1-4.6-4-5.2-2.2-.4-4.2-1-4.4-1.5-.3-.4-2.6-1.1-5-1.5-2.5-.3-4.5-1-4.5-1.3 0-1.2-2.5-.9-3.8.5zm-129.7 1.1c-1.1.3-2.4.9-3 1.3-.5.4-2.6 1.1-4.5 1.5-1.9.4-4.3 1.2-5.5 1.8-1.1.5-2.7 1.3-3.5 1.7-2 .9-1.9 3 .1 4.3 1.2.8 2.6.6 5.2-.6 1.9-.9 4.4-1.7 5.5-1.7 1.2 0 2.3-.4 2.6-.9.3-.5 2.1-1.2 4-1.5 3.9-.8 5.2-2.9 3-5.1-.9-.8-1.6-1.4-1.7-1.4-.1.1-1.1.4-2.2.6zm291.3 3c-1 .2-1.8.8-1.8 1.2 0 .5-1.4 1.1-3.2 1.5-4 .8-10.8 3.8-10.8 4.7 0 1.8 1.3 3.9 2.5 3.9.7 0 2.6-.7 4.1-1.5 1.6-.8 3.9-1.5 5.2-1.5 1.2 0 2.2-.4 2.2-1 0-.5 1.6-1.2 3.5-1.6 3.9-.7 6-2.7 5.1-4.9-.5-1.4-3.2-1.8-6.8-.8zm-126 7.5c-.9 2.4.3 3.7 3.8 4.4 1.9.3 3.4 1 3.4 1.4 0 .4 2.5 1.1 5.5 1.5 3 .3 5.7 1.1 6 1.6.9 1.3 4.5-.8 4.5-2.6s-5.3-4.2-11.2-5.1c-2.7-.3-4.8-1-4.8-1.5 0-1.4-6.7-1.1-7.2.3zM274 538.9c0 .5-1.6 1.2-3.5 1.5-1.9.4-3.5 1.1-3.5 1.6 0 .6-.5 1-1.1 1-.6 0-2.6.7-4.5 1.6-3.4 1.6-4.6 4.8-2.2 5.6 1.6.6 7.8-1.3 7.8-2.3 0-.4 1.4-1 3-1.4 3.6-.8 9.3-3.5 10.2-4.8.3-.6 0-1.6-.7-2.4-1.5-1.5-5.5-1.8-5.5-.4zm286.5 1.8c-2.2.3-4.4.9-4.9 1.4-.6.5-2 .9-3.2.9-3.1 0-3.9 1.8-1.9 4 1.2 1.3 2.3 1.7 3.4 1.1.9-.5 4.5-1.2 8.1-1.5 7.7-.8 11-2.3 11-4.8 0-1.9-2.3-2.1-12.5-1.1zm-48 3.2c-.3.6-.1 2 .5 3.1 1 1.8 2.1 2 11.9 2 8.2 0 11-.3 11.4-1.3.3-.8.2-1.8-.1-2.4-1-1.4-22.8-2.7-23.7-1.4zm-470 11.7c-10.3 2.7-22.1 11.4-26.1 19.2-1 2-2.2 3.9-2.5 4.2-2.9 2.5-5.3 23-2.9 24.5.6.3 1 1.6 1 2.8.1 1.2.9 4 2 6.2s1.9 4.6 2 5.2c0 .7.4 1.3.9 1.3s1.2 1.3 1.6 3c.4 1.7 1 3 1.3 3 .4 0 1.8 2.5 3.2 5.5 1.4 3 2.8 5.5 3.3 5.5.4 0 .7.4.7.9 0 1.1 2.7 5.4 12.3 19.6 3.4 4.9 7 10.4 8.1 12.2 3.1 4.7 4.3 4.7 7.3 0 1.5-2.3 3.3-4.6 4-5 .7-.4 1.3-1.4 1.3-2.2 0-.7.3-1.5.8-1.7 1-.5 5.2-6.6 5.2-7.7 0-.5.3-1.1.8-1.3 1.1-.5 5.2-6.6 5.2-7.8 0-.5.5-1 1-1 .6 0 1-.6 1-1.3 0-.7 1.5-3.6 3.4-6.4 4.1-6.3 11.2-20.7 12.2-24.8.4-1.7 1.2-3.6 1.8-4.4 1.4-1.8 1.4-17.1 0-20.2-.6-1.3-2.2-4.7-3.4-7.4-2.5-5.3-13-16.5-15.5-16.5-.8 0-1.5-.5-1.5-1 0-.6-.6-1-1.2-1-.7 0-2.6-.7-4.3-1.6-3-1.6-19-2.8-23-1.8zm17.7 14.1c6.5 2.1 14.4 9.8 15.4 14.9.3 1.9 1 3.7 1.5 4 1.2.7 1.2 10.7 0 11.9-.5.6-1.4 2.6-2 4.6-1 3.2-4.5 7.5-9.5 11.7-.9.7-2.9 1.5-4.6 1.9-1.7.3-3.3 1-3.6 1.4-.7 1.2-12.4 1.2-12.4 0 0-.5-1.6-1.2-3.5-1.5-1.9-.4-3.5-1.1-3.5-1.6s-1-1.2-2.3-1.5c-3.1-.8-8.4-9.2-9.8-15.5-.8-3.9-.8-6.8.1-11.6.7-3.5 1.6-6.4 2-6.4.5 0 1.2-.9 1.5-2.1 1.1-3.5 6.9-8.2 13-10.5 4.5-1.7 12-1.6 17.7.3zm176.4-11.2c-2.7 1.9-5.2 3.8-5.5 4.2-.3.4-1.5 1.3-2.6 1.9-2.4 1.4-3.2 4.4-1.4 5.5 1.4.8 7.8-2.5 9.2-4.8.4-.7 1.5-1.3 2.2-1.3.8 0 1.5-.4 1.5-.9s1-1.3 2.3-1.7c2.5-.8 3.7-2.2 3.7-4.7 0-2.7-3.9-1.9-9.4 1.8zm-25.3 19.8c-.6.7-3.9 3.8-7.2 7-6.4 6-7.9 9.7-4 9.7 3 0 17.1-14.2 16.3-16.4-.7-1.9-3.4-2-5.1-.3zm-29.9 30.3c-2.2 2.6-5.1 5.9-6.6 7.5-3 2.9-3.6 5.5-1.5 6.2 2.2.7 5.1-1.3 9.7-7 2.5-3 5.3-6.2 6.2-7.2 1.2-1.4 1.4-2.1.5-3-2.1-2.1-4.5-1.1-8.3 3.5zm-23.9 26c-1.6 1.9-4.7 5.4-6.7 7.7-4.1 4.5-4.8 7.4-2.1 8.4 1.1.4 2.6-.5 4.6-2.8 1.6-1.9 5-5.5 7.4-8.1 3.3-3.6 4.3-5.3 3.8-6.8-.9-3-3.6-2.4-7 1.6zm-22.7 24.1c-.1.5-2.5 2.6-5.3 4.8-2.7 2.1-5.4 4.5-5.8 5.2-.4.7-1.5 1.3-2.2 1.3-1 0-1.5 1.1-1.5 3.1 0 2.9.2 3.1 2.6 2.5 1.4-.4 4.2-2.3 6.2-4.3 2.1-1.9 4.8-4.2 6-5.1 2.6-1.7 4.2-5 3.5-7-.6-1.3-2.9-1.7-3.5-.5zm-89.3 19.1c-1.6.8-3.1 1.9-3.3 2.4-.2.4-.9.8-1.5.8-1.5 0-3.8 3.4-5.5 8.4-3.4 9.6 5.6 20.6 16.7 20.6 4.7 0 11.1-3.7 13.1-7.5.8-1.7 1.8-3.2 2.3-3.3 1.3-.6.7-9.8-.8-13-2-3.9-7-8.2-9.6-8.2-1 0-1.9-.5-1.9-1 0-1.5-6.1-1-9.5.8zm15.1 5.3c3.1 2.9 4.8 8.7 4 13.3-.7 3.9-5.8 9.6-8.5 9.6-.9 0-2.2.5-2.8 1.1-.8.8-2.4.6-5.9-.7-7.1-2.7-8.7-4.8-9.2-11.6-.4-4.9-.1-6.4 1.9-9.3 3-4.4 6-5.6 12.8-5 3.8.3 6 1 7.7 2.6z"/><path d="M48 689c-4.6 4-2 10 4.3 10 2.9 0 3.7-.5 4.5-2.8.6-1.6.6-3.7 0-5.2-1.6-4.4-5.1-5.2-8.8-2zm54.8-7.3c-1 .2-1.8.8-1.8 1.3 0 .4-1.8 1.1-4 1.5-2.2.4-4 1.1-4 1.6s-1.1.9-2.4.9c-2.9 0-4.9 2.2-4 4.4.8 2 2.7 2 8.9-.3 11.6-4.2 13.8-5.8 12.8-8.9-.5-1.2-2.2-1.4-5.5-.5z"/></symbol></svg>