<?xml version="1.0" encoding="utf-8"?><svg xmlns="http://www.w3.org/2000/svg" xmlns:xlink="http://www.w3.org/1999/xlink"><symbol viewBox="0 0 33.062 33.062" id="icons--cloud" xmlns="http://www.w3.org/2000/svg"><path d="M25.615 26.608H6.442A6.449 6.449 0 0 1 0 20.167a6.45 6.45 0 0 1 6.294-6.44 10.046 10.046 0 0 1 9.67-7.274c3.738 0 7.104 2.026 8.869 5.311.28-.031.534-.046.781-.046 4.106 0 7.446 3.339 7.446 7.443.002 4.107-3.339 7.447-7.445 7.447zM6.442 14.726A5.448 5.448 0 0 0 1 20.167c0 3 2.441 5.44 5.442 5.44h19.173a6.453 6.453 0 0 0 6.446-6.446c0-3.553-2.892-6.443-6.446-6.443a6.56 6.56 0 0 0-.991.083.502.502 0 0 1-.522-.273c-1.544-3.129-4.663-5.074-8.138-5.074a9.049 9.049 0 0 0-8.804 6.904.52.52 0 0 1-.498.38l-.22-.012z"/><path d="M25.615 26.608a.5.5 0 0 1 0-1 6.453 6.453 0 0 0 6.446-6.446c0-3.553-2.892-6.443-6.446-6.443a6.45 6.45 0 0 0-4.858 2.208.5.5 0 1 1-.753-.657 7.443 7.443 0 0 1 5.611-2.55c4.106 0 7.446 3.339 7.446 7.443.001 4.105-3.34 7.445-7.446 7.445z"/></symbol><symbol viewBox="0 0 60 60" id="icons--cloud-computing" xmlns="http://www.w3.org/2000/svg"><path d="M50.976 20.694c-.528-9-7.947-16.194-16.892-16.194-5.43 0-10.688 2.663-13.945 7.008-.075-.039-.154-.066-.23-.102a9.322 9.322 0 0 0-.604-.269 9.062 9.062 0 0 0-.962-.317c-.115-.031-.229-.063-.345-.089a9.567 9.567 0 0 0-.687-.125c-.101-.015-.2-.035-.302-.046A9.096 9.096 0 0 0 16 10.5c-4.963 0-9 4.037-9 9 0 .129.008.255.017.381C2.857 22.148 0 26.899 0 31.654 0 38.737 5.762 44.5 12.845 44.5H18a1 1 0 1 0 0-2h-5.155C6.865 42.5 2 37.635 2 31.654c0-4.154 2.705-8.466 6.433-10.253L9 21.13v-.63c0-.12.008-.242.015-.365l.011-.185-.013-.194C9.007 19.671 9 19.586 9 19.5c0-3.859 3.141-7 7-7a6.995 6.995 0 0 1 1.15.103c.267.044.53.102.789.177.035.01.071.017.106.027.285.087.563.197.835.321.071.032.14.067.21.101A6.995 6.995 0 0 1 23 19.5a1 1 0 1 0 2 0 8.98 8.98 0 0 0-3.2-6.871C24.667 8.879 29.388 6.5 34.084 6.5c7.745 0 14.178 6.135 14.849 13.888-1.021-.072-2.552-.109-4.083.124a1 1 0 0 0 .3 1.977c2.227-.337 4.548-.021 4.684-.002C54.49 23.372 58 27.661 58 32.472 58 38.001 53.501 42.5 47.972 42.5H44a1 1 0 1 0 0 2h3.972C54.604 44.5 60 39.104 60 32.472c0-5.489-3.827-10.412-9.024-11.778z"/><path d="M38.293 45.793L32 52.086V31.5a1 1 0 1 0-2 0v20.586l-6.293-6.293a.999.999 0 1 0-1.414 1.414l7.999 7.999a.99.99 0 0 0 .326.217.991.991 0 0 0 1.09-.217l7.999-7.999a.999.999 0 1 0-1.414-1.414z"/></symbol><symbol viewBox="0 0 129 129" id="icons--down-arrow" xmlns="http://www.w3.org/2000/svg"><path d="M121.3 34.6c-1.6-1.6-4.2-1.6-5.8 0l-51 51.1-51.1-51.1c-1.6-1.6-4.2-1.6-5.8 0-1.6 1.6-1.6 4.2 0 5.8l53.9 53.9c.8.8 1.8 1.2 2.9 1.2 1 0 2.1-.4 2.9-1.2l53.9-53.9c1.7-1.6 1.7-4.2.1-5.8z"/></symbol><symbol viewBox="0 0 511.999 511.999" id="icons--love" xmlns="http://www.w3.org/2000/svg"><path d="M412.41 0H99.589C47.531 0 5.332 42.201 5.332 94.257v205.172c0 52.057 42.201 94.257 94.257 94.257h44.894a3.867 3.867 0 0 1 3.867 3.867V498.76c0 11.966 14.637 17.768 22.834 9.05l106.188-112.906a3.866 3.866 0 0 1 2.818-1.218h132.22c52.057 0 94.257-42.201 94.257-94.257V94.257C506.667 42.201 464.466 0 412.41 0z"/><path d="M188.005 358.509c0-2.249-1.676-4.072-3.744-4.072h-43.462c-50.396 0-91.25-44.439-91.25-99.257V39.123c0-9.276 1.174-18.253 3.361-26.77C24.489 28.587 5.332 59.184 5.332 94.257v205.172c0 52.056 42.201 94.257 94.257 94.257h44.894a3.867 3.867 0 0 1 3.867 3.867V498.76c0 11.966 14.637 17.768 22.834 9.05l16.82-17.885V358.509h.001zM361.908 122.325c-23.931-23.931-62.731-23.931-86.663 0l-13.518 13.518a8.255 8.255 0 0 1-11.673 0l-13.302-13.302c-23.931-23.931-62.731-23.931-86.663 0-23.931 23.931-23.931 62.731 0 86.663l99.973 99.973a8.255 8.255 0 0 0 11.673 0l100.172-100.189c23.932-23.932 23.932-62.731.001-86.663z"/><path d="M361.908 122.325c-23.931-23.931-62.731-23.931-86.663 0l-13.518 13.518a8.255 8.255 0 0 1-11.673 0l-13.302-13.302c-23.931-23.931-62.731-23.931-86.663 0-23.931 23.931-23.931 62.731 0 86.663l99.973 99.973a8.255 8.255 0 0 0 11.673 0l100.172-100.189c23.932-23.932 23.932-62.731.001-86.663z"/><path d="M182.145 209.204c-23.931-23.931-23.931-62.731 0-86.663a60.966 60.966 0 0 1 27.303-15.807c-20.486-5.532-43.278-.274-59.358 15.807-23.931 23.931-23.931 62.731 0 86.663l99.973 99.973a8.255 8.255 0 0 0 11.673 0l10.19-10.192-89.781-89.781z"/></symbol><symbol viewBox="0 0 1500 1500" id="icons--paintbrush" xmlns="http://www.w3.org/2000/svg"><path d="M704 225c-10.2 2.6-21 5.8-24 7-11.3 4.5-65.4 32.5-92 47.6-15.1 8.6-41.7 23.5-59 33.1-43.8 24.4-69.4 40.5-152.1 95.8-106.6 71.2-121.5 81.9-138.4 99.6-10.4 10.8-19.5 23.8-19.5 27.8 0 1.4.7 3.7 1.6 5 1.4 1.9 2.3 2.2 5.8 1.8 2.2-.3 5.2-.8 6.6-1.1 3.8-1 5.1.6 5.7 7 .8 7.7 1.5 9 6.9 11.5 5.5 2.7 8.3 6.2 12.3 15.9 4.2 10.2 5.3 11.6 10 12.4 3.2.5 4.7 1.5 8.1 5.8 4.7 6 8 7.8 12.7 7.1 3-.5 3.2-.4 3.8 3.3.3 2.2 1.1 6.4 1.8 9.4 1.1 4.9 1.5 5.5 4 5.8 1.6.2 3.8-.5 5.3-1.7 5.9-4.6 11.1-1.6 12.1 7.1.2 2.4 1 5.6 1.6 7.3 1.5 4.1 12.6 19.5 14.1 19.5 2.7 0 5-3 6.3-7.9 1.6-6.5 6-13 11-16.3 2.1-1.3 9.7-5.1 16.9-8.2 13.2-5.8 15.8-7.2 44.9-25.1 34.7-21.3 43.6-28.7 54.8-46.1 5.3-8.2 5.8-8.7 11.3-10.2 2.8-.8 6.7-3.6 12.1-8.5 17.6-16.3 23.6-18.2 36.5-11.6 2 1 4.2 1.9 4.8 1.9.6 0 1-2.5 1-5.9 0-5.6.1-5.9 3.1-7.1 3.6-1.5 4.8-.7 5.8 4.1 1 4.9 3.7 5.9 17 5.9 9.4 0 12.2-.4 15.5-2 5.1-2.4 6.3-4.3 8.1-13.1 2.9-13.9 6.1-16.3 17.8-13.5 9.5 2.2 11 2.1 13.9-.9 3-3 10.6-4.7 17.6-3.8 6.5.7 8.9-.6 9.9-6l.9-4.2 8.3-.8c4.6-.5 13.9-2.4 20.5-4.4 15.5-4.6 16.9-4.8 18.4-3 1.1 1.2.5 2.1-3.5 4.9-2.6 1.9-8.4 5.4-12.8 7.8-31.5 16.9-104.1 65.4-156 104.3-42.9 32.1-66.7 52-140.3 116.9-44.4 39.2-53.9 48.5-62.7 61.8-12.8 19.3-4.8 32 20.1 32 3.6 0 8.7.7 11.4 1.6 4.2 1.4 5.5 2.5 10.2 9.1 2.9 4.2 7.4 9.5 10.1 11.8 8.7 7.9 25.9 13.3 36.2 11.4 5-.9 5.5-1.2 11.9-6.2 5.1-4.1 6.3-2.9 2.3 2.2-4.1 5.2-10 9.4-16.5 11.6-10.2 3.6-10.6 4-17.7 14.7-5.4 8.1-11.1 14.5-26.5 29.8-29.4 29.3-52.6 56.5-62.8 73.6-5.1 8.6-5.4 8.9-8.9 8.9-5 0-7.4 3.4-8 11.6-.5 5.6-.3 6.6 1.6 8.3 3.1 2.8 17.3 4.4 24.9 2.8 8.2-1.7 10-1.5 13.4 1.3 4.3 3.7 10 5.1 15.7 3.9l4.8-1 1.2 5.9c1.8 8.6 4.2 10.7 12.6 10.7 3.6 0 9.5-.7 13-1.6 8.9-2.2 9.9-1.7 9.2 5-.6 6.1-3.4 12.2-8.3 18.3-1.9 2.2-3.8 5.3-4.4 6.8-1.3 3.5-1.3 10.1.1 12.7 1.1 2 6.5 4.8 9.4 4.8 2.8 0 6.5-4.6 6.5-8.3 0-5.2 1.8-6.1 5-2.6 3.7 3.8 7.4 3.8 12.9-.2l4.2-3.2-5-4.6c-2.8-2.6-5.1-5.4-5.1-6.2 0-.8 1.8-4.6 4-8.5 4.9-9 13.8-17.2 25-23.3 8.4-4.6 9.8-6.1 11.7-12.5.7-2.5 2.7-4 12.2-9 14.2-7.6 20.7-13.7 24.7-23.3 2.7-6.7 6.8-12.3 8.9-12.3.5 0 2.8-.9 4.9-2.1l3.8-2 2.4 2.2c2.7 2.5 3 5.5.9 8.3-3.1 4.1-.8 7.6 4.8 7.6 2 0 3.5-1.6 7.8-8.2 5.5-8.6 7.4-12.9 8.4-19 .8-5.2 4.7-9.4 10.3-11.2 2.6-.8 6.8-2.1 9.5-3 5.8-1.9 6.3-.5 1.7 4.7-1.6 1.9-3 4.5-3 5.7 0 2.1.3 2.2 4.5 1.8 3.6-.4 6.2-1.8 11.9-6.2 4-3.1 7.8-5.6 8.5-5.6.6 0 1.1-.7 1.1-1.5 0-3.3 3.8-6.9 14.4-13.9 15.5-10.1 26.6-15.9 26.6-14 0 2.4-2.8 8.4-5.5 11.6-1.7 2-2.5 4.2-2.5 6.7 0 4.5 1.4 6.1 5.6 6.1 3.2 0 4.4-1.3 4.4-5.1 0-2.3 1.5-2.5 2.4-.4.8 2.2 6 1.9 8.2-.6 1.8-2.1 1.8-2.1-.9-4.1-3.5-2.6-3.4-4.2 1.1-10.7 2.6-3.8 5.7-6.6 10.5-9.5 4.9-2.9 7.3-5.1 8.3-7.4 1.4-3.4 5.4-5.8 6.6-3.9 1 1.6 9.8 0 15.8-3.1 6.8-3.3 7.3-5.8 1.8-8.5-4.3-2.1-4.1-3.7.8-6 4.6-2.2 5.3-2.2 6.4.8 1 2.6 5.2 3.6 6.5 1.5.3-.6 1.8-1 3.2-1 1.4 0 6-1.6 10.3-3.5 4.3-1.9 8.4-3.5 9.2-3.5.8 0 4.2-1.8 7.6-4 3.4-2.1 7.6-4.7 9.3-5.6l3.2-1.6-.6 5.8c-.8 7.8-3 10.5-10.3 12.7-13 4.1-17.8 6.2-24.4 10.8-6.2 4.4-9 7.3-19.9 20.9-1.5 1.9-17.6 14.7-35.7 28.4-47.4 35.9-73.3 56-84.3 65.1-8.7 7.3-40.6 41-53.5 56.5-12.9 15.6-24.3 36-25.3 45.2-.7 6.6 1.3 11 8.5 18.9 2.7 3 6.1 7.8 7.6 10.6 3.6 7.1 6.2 7.2 11.1.4 4.6-6.3 7.3-7 15.2-3.9 6.8 2.7 7.6 4.7 4.3 11.1-1.4 2.6-2.4 6.8-2.7 11.3-.5 6.8-.4 7.4 2 9.8 2.5 2.5 2.9 2.6 16 2.6 8.9 0 15-.5 18.2-1.5 2.7-.8 5-1.3 5.2-1.2.1.2-.5 1.8-1.5 3.7-1.1 2.2-2.7 3.7-4.6 4.2-4.6 1.1-17.6 14.7-17.6 18.2 0 .3 1.6 2.3 3.5 4.5 2.4 2.6 3.8 5.4 4.4 8.6.5 2.6 1.4 5.2 2 5.8.7.7 4.8 1.4 9.2 1.6 9.8.4 12.1-.9 15.5-8.6 3.1-7 2.8-9.3-1.5-11.5-5.1-2.6-8.3-6-7.7-8.3 1-4.1 6.7-18.9 8.4-21.7 1.5-2.6 8-8.1 13.7-11.5 1.1-.7 4.1-1.2 6.6-1.3 6.3 0 9.5-2.6 11.5-9.7 2.1-7.1 4.3-9.3 9.5-9.3 4.7 0 7.6-2.5 12.1-10.2 1.9-3.3 4.7-6 9.7-9.3 4.5-3 12.3-10.2 22.1-20.5 12.8-13.4 16.2-16.4 22.3-19.6 15.1-7.9 32-20.6 46.7-35.4 7-7 10.7-9.7 20.5-15 6.5-3.6 19.5-11.6 28.8-17.8 14.6-9.8 17.3-11.2 19.8-10.7 3 .7 3.7-.3 1.8-2.2-.8-.8.6-2.2 4.9-5.2 3.4-2.3 6.4-4.1 6.8-4.1.4 0 1.5-.7 2.4-1.5 1.1-1 4.1-1.7 7.6-1.9 5.9-.3 8.8-1.5 15.3-6.2l3.5-2.5 1.3 2.3c.7 1.3 1.2 3.3 1.3 4.5 0 3.5 2.8 5.6 6.7 4.8 2.6-.5 3.3-.3 3.3 1 0 2-2 2.8-7.3 2.9-3.6.1-4.3.5-5.1 2.9-1.4 3.8.2 6 5 7 2.1.4 4.3 1.2 4.8 1.7.6.6-3.8 5.8-12 14.2-10.5 10.8-13.8 14.9-17.4 21.8-3.9 7.4-5.6 9.4-13.5 15.9-4.9 4.1-16 14.6-24.5 23.3-8.6 8.7-15.9 15.8-16.4 15.8-.4 0 .1-1.6 1.3-3.6 2.1-3.6 2.8-7.4 1.3-7.4-1.8 0-16.5 13.4-22.7 20.7-3.7 4.3-8.7 11.1-11.2 15.3-2.5 4.1-6.1 9.2-7.9 11.3-1.9 2-3.4 4.3-3.4 5 0 3 4 21.8 5.3 25 2.8 6.7 8.6 7.5 12.5 1.7l2.3-3.5h11.2c12.3 0 15.7-1.1 24.2-8 4.6-3.7 7.8-5.5 9.7-5.5 1.9 0 4.5 5.6 5.3 11.3 1.1 7.3 5 9.3 15 7.5 1.5-.2 2.1.3 2.3 2.4.5 4.3-3.4 6.2-10.8 5.5-5.3-.6-6.2-.4-8.6 1.6-2.2 1.9-2.7 3.3-2.8 7-.1 5.6 1.5 7.6 7 8.3 7.5 1 8.6 1.5 12.4 5.4 5.7 5.9 9.1 5.4 14.6-1.9 1.9-2.5 7-7.8 11.3-11.6 4.4-3.9 16.1-14.3 26-23.2 9.9-9 19.1-16.5 20.3-16.7 1.3-.3 4.5-.7 7.1-.9 3.4-.3 5.9-1.3 8.6-3.5 10.9-8.8 17.4-13.1 21.7-14.7 10.2-3.7 15.7-6.9 22.7-13.4 4-3.6 9.9-8.3 13.2-10.3 6.9-4.2 25.4-12.7 33.2-15.2 6.4-2.1 9.8-4.7 12.2-9.4 2.8-5.4 7.5-9.3 17.3-14.5 7.7-4 9-4.4 10.2-3.1.8.8 1.8 2.3 2.1 3.4 1 3.2 4.6 2.4 10.5-2.5 6.5-5.3 15.7-10.3 25.7-13.9 9.5-3.3 14.1-5.7 17.8-9.2 1.7-1.6 3.8-2.7 4.7-2.6.9.2 6.5-2.3 12.5-5.5 8.2-4.4 12.6-7.6 18.3-13.2 8.7-8.6 14.4-11.7 17.5-9.7 3.7 2.4 3 5.2-2.5 10.3-2.9 2.6-7 6-9.2 7.4-4.9 3.3-6.3 5.3-7.2 10.4-2 10.7-11.1 21.7-28.3 34.6-5.4 3.9-13 10.2-16.8 13.8-3.9 3.6-9.1 7.8-11.7 9.3-5.5 3.2-7.8 6.3-8.5 11.7-.5 3.9-.7 4-5.6 5.1-2.8.6-6.5 2-8.3 3.1-5.2 3.1-13.7 13-18.7 21.5-2.5 4.4-6.7 9.9-9.2 12.4-6.1 5.9-7.5 8.8-7.5 15.4 0 4.5-.4 5.8-2.2 7-1.2.9-3.5 1.6-5 1.6-2.4 0-2.9-.6-3.9-4.3-.6-2.3-1.6-4.8-2.1-5.4-1.5-1.9-4.8-1.6-8.5.7-2.7 1.6-3.3 2.6-3.3 5.4 0 2.7.7 3.9 3 5.6 2.5 1.8 2.8 2.5 2 4.1-.9 1.7-1.8 1.8-6.4 1.3-10.1-1.2-16 2.8-24.3 16.6-2.4 4.1-6.3 9.4-8.5 11.7-4.1 4.1-4.1 4.2-3.5 10.1 1 9.2 1.4 9.8 4.7 6.7 1.5-1.4 5-3.2 7.9-4 4.5-1.2 6.4-2.6 15.9-12.3 7.7-7.8 14-13.1 22.4-18.6 15.5-10.3 23-18.2 29.6-31.2 8.3-16.2 14.7-22 29.3-26.9 7.5-2.5 10.9-5.2 10.9-8.6 0-1.4-.7-1.9-2.5-1.9-1.4 0-2.5-.4-2.5-1 0-1.7 13.1-15 23-23.2 5.2-4.4 17.6-14.1 27.5-21.6 9.9-7.5 20.5-16 23.7-18.9 7.1-6.5 9.9-8 18.3-9.3 11.6-1.9 20-7.8 27.6-19.6 3.9-6 4.4-6.4 10.8-8.3 8-2.4 16-7.8 26.2-17.6 4.1-4.1 8.7-7.7 10.1-8 3.4-.9 9.8 1.9 9.8 4.2-.1 4.5-5.7 10.9-19.8 22.9-6.7 5.8-13.6 12.4-15.3 14.6-2 2.9-5.4 5.5-10.8 8.3-15.6 8.4-26.8 16.9-56.4 43.1-6.8 6-18.8 15.9-26.6 21.8-15.7 12.1-23.8 18.9-45.6 39.1-20.9 19.2-33.5 29.9-45.1 38.3-5.4 3.9-13 10.5-16.7 14.7-7.7 8.5-24.6 23.7-48 43.3-13.4 11.3-16.2 13.2-19.1 13.2-7.5 0-11.5 3-20.4 15-6.3 8.6-13.7 17.3-23.5 27.8-8.2 8.7-10.1 12.7-9.2 19.2l.6 4.7-6.9 5c-7.2 5.3-13.9 12.8-17.3 19.4-2.4 4.8-2.4 4.9.7 4.9 1.9 0 3.9-1.4 7.2-5 4.8-5.3 7.3-6.1 10.3-3.4 1.7 1.5 1.2 2.4-8.7 15.5-5.7 7.6-10 13.9-9.5 13.9.4 0 1.4-.7 2.2-1.6.7-.9 4.7-3.3 8.8-5.4 8.7-4.3 14.6-10.1 26.1-25.5 10.3-13.8 20-23.4 28-27.4 5.3-2.8 6.9-4.1 8.2-7.2 2-4.8 5.9-7.2 16.8-10.5 12.3-3.7 14.6-6.5 11.9-14.2-1-3-.8-3.5 3.1-7.9 5.9-6.8 8.3-8 19-9.9 10.8-1.8 14.9-3.3 19.2-6.9 3-2.6 7.1-3.2 9.8-1.5 1.2.8.8 1.6-2.3 4.8-2 2.1-3.7 4.8-3.7 5.9 0 4.9 14.3 3.9 23-1.5 9.5-6 28-21.2 40.5-33.3 7.2-6.9 21.1-19 31-26.9 28.3-22.5 82.1-67.6 91.8-77 8.8-8.4 8.9-8.5 14.3-8.6 5.2-.1 5.6-.4 12.3-6.7 3.8-3.5 11.6-9.5 17.2-13.3 5.7-3.7 13.6-9.1 17.4-12l7-5.2 6.5.5c8 .6 13.3-.7 19.6-5 5.4-3.6 14.4-14.1 14.4-16.8 0-2.3-2.8-3.1-6.8-1.9-3.8 1-5.8.5-6.7-1.8-.5-1.2 2-4.3 9.3-11.4 14.6-14.3 21.2-18 37.6-21.5 3.5-.7 4.1-1.3 5.3-4.9 2.2-6.7 5.2-8.8 12.6-8.8 4.5 0 7.6.7 10.9 2.3 7.3 3.5 13.1 1.4 29.8-10.8 6.8-5 14.5-14.3 13.6-16.6-.6-1.8-7-2-11.3-.4-2.5.9-2.2.4 2.3-4.3 2.8-2.9 6.3-7.4 7.8-10 3.7-6.7 10.2-14.2 25.5-29.6 11.3-11.4 13.5-13.2 16.2-13.2 4.8 0 9.7-5.8 13.9-16.6 4.6-11.7 6.6-13.9 14.8-16.4 8.6-2.5 10.9-4.2 12.3-9 1.7-5.6-.4-8.4-7.7-10.6-3.1-.9-7.4-2.4-9.6-3.4l-3.9-1.7 2.8-1c1.5-.6 4.7-1.6 7-2.2 4.9-1.3 6.3-3.3 6.3-8.9 0-4.2-2-6.7-7.5-9.5-1.7-.8-3.8-2.4-4.8-3.5-1.7-1.9-1.6-2 2.8-3.6 5.4-2.1 8.5-5.7 8.5-10.1 0-3.4-3.3-8.5-5.4-8.5-.8 0-3.5-.9-6-2.1-5.1-2.2-6.8-2.1-17.1 1.1-3.9 1.2-12.1 2.3-23.5 3-28.1 1.8-42.8 4.3-67 11.3-2 .6-6 .7-9.3.3-5.6-.7-5.7-.8-5.1-3.4 1-4 3-7.7 8-14.5 2.5-3.3 4.3-6.5 4.1-7.1-.2-.6-2.8-2.4-5.8-3.9-7.2-3.8-14.1-3.5-22.9 1.1-7.9 4.2-10.4 3.3-6.3-2 1.6-2 5.2-5.8 8.1-8.4 2.9-2.6 8.2-8.3 11.7-12.8 8.1-10.4 10.9-13 16.7-15.6 3.6-1.6 6.4-2 11.6-1.8 7.9.3 9.7-.6 10.6-5.7.4-1.9 1.6-5.5 2.7-8 1.1-2.6 1.8-4.9 1.6-5.2-.3-.2-1.8.5-3.4 1.7-4.1 2.9-10.3 4.9-12.8 4-1.1-.4-2.7-2.5-3.5-4.7-2-5.4-3.7-7.2-8.2-9-2.1-.8-3.8-1.7-3.8-2 0-.9 5.6-5.4 10-8.1 4.1-2.5 5.3-2.7 13.3-2.5 6.1.1 8.9-.2 9.3-1 .2-.7-.8-4.8-2.4-9.2l-2.8-8-7.9-4.3c-9.2-4.9-11.6-5-27.1-1.4-5 1.2-18.7 3.5-30.5 5.2-27.6 3.9-38.4 6-60.3 11.5-9.9 2.5-18.3 4.5-18.8 4.5-1.3 0-.9-4.5.7-6.6 2.5-3.4 1.8-6.7-2.5-10.9-4.8-4.7-5.4-7.3-3.9-16.1 1.4-7.9 1.6-8.2 16.7-18.9 11.6-8.3 15.5-10 21.8-9.2 4.3.4 4.4.4 4.4-2.4 0-1.9-1.2-4.2-3.5-6.8-4-4.4-4.8-9.1-1.5-9.1 2.6 0 10-9.8 10-13.4 0-1.7-.6-2.8-1.7-3.2-1-.2-3.9-1.6-6.6-2.9-6.1-3.2-8.2-3.1-13.7.5-2.5 1.6-5.5 3-6.8 3-1.9 0-1.1-1.2 5.1-7.3 4-4 8.9-7.9 10.8-8.7 10.4-4.1 10.6-12.3.3-16.6-4.4-1.9-8.6-1.7-22.9.6-6.6 1.1-17.1 2.5-23.4 3-13.5 1.1-15.6 2.3-14.7 8.1.8 5.2-1.5 7.6-8.3 8.9-8.6 1.6-11 1.3-13.4-1.6-5.1-6.2-6.7-7.4-9.6-7.4-5.8 0-59.5 12.7-86.6 20.6-20.2 5.8-28.5 5.7-21.8-.5 1.6-1.4 4.8-5.5 7.2-8.9 4.6-6.8 9-10.2 13.2-10.2 4.3 0 6.1-3 5-7.9-1-4.5.4-13.5 3.2-20.1.8-1.9 1.7-4.7 2.1-6.1l.6-2.7-9.3-.4c-9.5-.4-15.2-2.3-16.4-5.4-1-2.6 3.8-6.2 12.2-9.1 9.8-3.4 10.6-5.4 5.1-12.3l-3.5-4.4 2.1-3.8c1.3-2.2 3.3-4.1 5.1-4.8 5.5-1.9 9.5-5.9 12.7-12.4 5.5-11.6 5.3-19.7-.5-22.2-4.8-2-6.9-1.9-6 .3 4.4 10.4 3.9 14.7-2.4 18.8-2 1.4-4.5 3.9-5.5 5.6-1.3 2.2-2.2 2.8-3.4 2.3-1-.4-4.2-1.6-7.2-2.7-12.2-4.3-29.3-.4-54.6 12.4-7.3 3.6-13.6 6.4-14.1 6-.4-.3-1.4-1.9-2.1-3.4-1.7-3.8-3.4-4.2-12.1-2.8-10.3 1.8-18.4 4.4-33.3 10.8-12.3 5.3-12.7 5.4-15.7 3.9-1.6-.9-3.7-1.6-4.6-1.6-.9 0-2.8-.9-4.3-2-1.8-1.3-5.6-2.4-11.1-3-7.9-1-8.5-1-10.6 1-2.2 2.1-2.3 2.1-10.7.4-6.8-1.3-10.1-1.5-16.2-.7l-7.7.9 2.8-2.3c4.5-3.7 18.7-12.8 35.9-22.9 15.5-9.2 31.4-20.6 31.4-22.6 0-.6-1-.8-2.2-.5-1.3.3-4.6.9-7.5 1.3-4.6.6-5.2.4-6.3-1.5-.9-1.8-.7-2.9 1.4-6.6 3.1-5.3 3.2-8.2.5-13.4-1.6-3.1-1.8-4.4-1-6 1-1.8 10.4-6.1 13.4-6.1 3.3 0 11.7-5.1 13.1-7.9 1.3-2.5 3.5-13.4 3.6-17.8 0-.7 1.9-2.9 4.1-5 2.3-2.1 6.7-7.6 9.9-12.3 3.1-4.7 6.9-10.3 8.3-12.4 3.6-5.2 3.7-11.3.3-15.4-3-3.4-18.5-11.2-22.5-11.2-1.6 0-3.4-.7-4.2-1.6-3.5-4.2-12.9-6.9-28.5-8l-9.1-.6-2.9 3.5c-1.6 1.9-3.6 3.6-4.4 3.8-.8.1-4.6-.8-8.5-2-12.3-4-25.4-4-56.5.3-31 4.3-43.8 6.4-69 11.3-23.8 4.6-29 4.6-39.5.3-5.2-2.1-10.4-3.4-14.8-3.8-7.6-.5-9.7-2.2-9.7-7.8 0-3.8 1.2-4.9 13-11.2 14.4-7.7 16.3-10.1 18.1-22.8 1.9-13.5 3-14.7 16.6-17.1 11.2-1.9 12.3-2.8 12.3-10.8 0-6.9 1.5-9 8-11.5 1.9-.8 8.1-4.2 13.8-7.6 5.7-3.5 11.6-6.6 13.3-6.9 3.3-.8 3.8-2.9 1.4-7.4-2.3-4.5-6.9-6-21.6-7.1-14.9-1-17.1-1.5-24.6-5.4-7.3-3.7-12.4-3.3-34.3 2.4zm541.1 585.2c-1.7 1.5-3.8 2.8-4.6 2.8-.9 0 .1-1.4 2.3-3.4 2-1.9 4.1-3.2 4.6-2.9.5.4-.5 1.9-2.3 3.5zM715 1075.4c0 .2-.8 1-1.7 1.7-1.6 1.3-1.7 1.2-.4-.4 1.3-1.6 2.1-2.1 2.1-1.3z"/><path d="M754 307c-2.8 2.8-2.6 6.6.3 7.4 3.1.8 3.4.8 5.1-1 2.2-2.1 2-6.1-.3-7.4-2.6-1.3-2.8-1.3-5.1 1zM487.2 547c-7.2 1.7-9.5 7.6-3.7 9.2 6.5 1.9 16-1 19.2-5.8 1.4-2.2 1.4-2.7.2-3.5-1.7-1-11.1-1-15.7.1zm883.4 136c-4.8 5.6-8.6 10.3-8.3 10.6 1 1 8.3-.7 11.5-2.6 4.3-2.7 6.4-7 6-13.1l-.3-5-8.9 10.1zm-45.4 62c-3.1 2.9-2.8 6.3.9 9.4 4.4 3.8 7.5 3.5 8.9-.9 2.6-7.9-4.1-13.8-9.8-8.5zm-12.7 229.9c-2.2 2.2-5 4.1-6.4 4.3-2 .2-2.6.9-2.6 2.8 0 2.1.5 2.5 3 2.5 2.3 0 3.1-.5 3.3-2.3.3-1.9.9-2.2 4.6-2.2 5 0 8-2.5 7.4-6.2-.6-4.1-4.9-3.6-9.3 1.1zm-636.2 55c-2.5 1.2-5.2 3.5-6.7 5.8-2 2.9-3.6 4.2-6.9 5-5.7 1.5-9.5 4.7-11.8 9.7-3.3 7.2-2.7 8 3.4 4.4 6.4-3.8 10.4-7.4 12.3-10.9.9-1.9 2.5-2.9 5.1-3.4 5-.9 8.9-3.9 11.3-8.6l2-3.9h-2.2c-1.3 0-4.2.9-6.5 1.9zm-40.8 31.2c-3.5 1-5.5 3.4-5.5 6.6 0 3 2.2 3.9 5.9 2.3 2.8-1.1 4.4-3.3 5.6-7.8.7-2.5-.6-2.7-6-1.1zm38.2 62.8c-2.4 7.8-2.2 10.5 1.3 14.4 2.7 3.1 13.6 8.5 14.7 7.3.3-.2-1.6-3-4.2-6.2-4.8-5.8-7.6-11.2-9.3-17.4l-.9-3.5-1.6 5.4zm97.3 42c-7.6 4-9.3 6.1-9.8 12.5-.5 6.2 2.9 18 5.4 19 3 1.2 7 .5 12.2-1.9 12.4-5.8 13.5-8.3 7.3-16.1-4.6-5.9-5.1-7.2-3.9-10.3.6-1.8.4-2.9-.8-4.2-2.3-2.5-3.9-2.3-10.4 1zm70.1 44.7c-8.4 6.5-16.5 15.9-26.4 30.4-3.9 5.8-9 12.9-11.4 15.8-4.7 5.8-7.8 11.2-6.5 11.2.5 0 3.5-3.7 6.7-8.3 3.3-4.5 12.5-15 20.5-23.2 16.5-17.1 28-31.5 25.2-31.5-.5 0-4.2 2.5-8.1 5.6zm.8 160.6c-3.1 3.5-3.6 5.7-1.7 7.6 3 3 8.8-.6 8.8-5.6 0-2.7-1.5-5.2-3.3-5.2-.4 0-2.1 1.5-3.8 3.2z"/></symbol><symbol viewBox="0 0 302.459 302.46" id="icons--restaurant" xmlns="http://www.w3.org/2000/svg"><path d="M163.816 222.91c38.745 0 70.269-31.514 70.269-70.259 0-38.745-31.523-70.274-70.269-70.274-38.743 0-70.264 31.524-70.264 70.274 0 38.745 31.516 70.259 70.264 70.259z"/><path d="M163.816 241.771c49.226 0 89.118-39.903 89.118-89.119 0-49.228-39.893-89.123-89.118-89.123-49.221 0-89.119 39.895-89.119 89.123 0 49.215 39.898 89.119 89.119 89.119zm0-164.588c41.608 0 75.469 33.862 75.469 75.469 0 41.609-33.86 75.464-75.469 75.464-41.609 0-75.464-33.854-75.464-75.464 0-41.607 33.855-75.469 75.464-75.469zm138.643 172.879l-5.2-200.026c0-4.307-3.493-7.8-7.8-7.8a7.61 7.61 0 0 0-3.214.718v-.074s-.203.13-.493.328a7.985 7.985 0 0 0-1.995 1.539c-5.708 4.685-23.907 23.78-25.431 49.592-2.311 39.372 16.813 55.317 23.328 69.921l-5.199 85.798c0 4.306 8.693 7.8 12.999 7.8 4.312.004 13.005-3.489 13.005-7.796zM13.614 128.206l13.461 6.724c1.534.769 3.225 1.33 4.992 1.747l-5.2 117.007c0 3.615 8.696 6.54 13 6.54 4.306 0 13-2.925 13-6.54l-5.2-117.606c1.831-.576 3.595-1.279 5.139-2.224l9.973-6.073c7.196-4.39 12.619-14.045 12.619-22.475V52.88c0-4.307-3.494-7.8-7.8-7.8a7.803 7.803 0 0 0-7.8 7.8v47.225h-4.332V52.88c0-4.307-3.494-7.8-7.8-7.8a7.803 7.803 0 0 0-7.8 7.8v47.225h-4.347V52.88c0-4.307-3.494-7.8-7.8-7.8a7.803 7.803 0 0 0-7.8 7.8v47.225H15.6v-45.54c0-4.306-3.494-7.8-7.8-7.8a7.804 7.804 0 0 0-7.8 7.8v51.612c0 8.675 5.855 18.15 13.614 22.029z"/></symbol><symbol viewBox="0 0 512 512" id="icons--rings" xmlns="http://www.w3.org/2000/svg"><path d="M301.697 209.073c-26.211-81.141-113.316-125.696-194.556-99.507-81.24 26.179-125.849 113.178-99.628 194.32 26.211 81.141 113.316 125.696 194.556 99.507 81.24-26.179 125.849-113.178 99.628-194.32zM154.574 380.014c-92.764 0-151.928-98.11-110.017-179.825 49.907-97.37 193.778-86.676 227.713 18.365 25.869 80.087-34.231 161.46-117.696 161.46z"/><path d="M504.487 296.177c-26.211-81.141-113.315-125.696-194.556-99.507-81.24 26.179-125.849 113.178-99.628 194.319 26.211 81.141 113.316 125.696 194.556 99.507 81.24-26.179 125.849-113.178 99.628-194.319zm-147.123 170.94c-92.764 0-151.928-98.11-110.017-179.825 49.907-97.37 193.778-86.676 227.713 18.365 25.87 80.088-34.231 161.46-117.696 161.46z"/><path d="M436.248 133.067a.819.819 0 0 1-1.267-.408c-1.397-4.275-7.504-19.56-24.843-25.147-18.051-5.817-35.946 7.057-42.298 26.719-6.64 20.555-.546 48.97 27.562 81.975a24.087 24.087 0 0 0 24.07 7.757c42.121-10.373 63.694-29.871 70.334-50.427 6.352-19.662-.635-40.555-18.685-46.372-17.338-5.588-31.238 3.249-34.873 5.903z"/><path d="M471.121 127.164a37.732 37.732 0 0 0-6.274-1.451c3.559 8.582 3.859 19.1.566 29.293-6.64 20.555-28.213 40.053-70.334 50.426a23.99 23.99 0 0 1-7.752.6c2.464 3.34 5.143 6.73 8.075 10.173a24.087 24.087 0 0 0 24.07 7.757c42.121-10.373 63.694-29.871 70.334-50.426 6.352-19.662-.634-40.555-18.685-46.372zM86.714 40.962a.819.819 0 0 0 1.267-.408c1.397-4.275 7.504-19.56 24.843-25.147 18.051-5.817 35.946 7.057 42.298 26.719 6.64 20.555.546 48.97-27.562 81.975a24.087 24.087 0 0 1-24.07 7.757c-42.121-10.373-63.694-29.871-70.334-50.427-6.352-19.662.635-40.555 18.685-46.372 17.337-5.587 31.237 3.249 34.873 5.903z"/><path d="M155.121 42.125c-6.352-19.662-24.247-32.536-42.297-26.719-5.73 1.847-10.227 4.754-13.739 7.972 12.038 2.884 22.334 13.396 26.834 27.326 6.522 20.188.744 47.959-26.091 80.213 1.204.321 2.423.636 3.662.941a24.085 24.085 0 0 0 24.07-7.757c28.107-33.006 34.201-61.42 27.561-81.976zM288.638 179.557c-7.602 7.61-15.206 15.219-22.814 22.823a131.343 131.343 0 0 1 6.446 16.174c4.672 14.464 6.527 28.966 5.959 43.027h30.888c.574-17.332-1.781-35.055-7.421-52.509a154.898 154.898 0 0 0-13.058-29.515z"/></symbol><symbol viewBox="0 0 1297 727" id="patternAir2" xmlns="http://www.w3.org/2000/svg"><path d="M1079.8 6.8c-6.9.2-8.8.6-8.8 1.7 0 .8.4 1.5 1 1.5.5 0 2.2 1.2 3.8 2.7 1.6 1.6 4.6 4.1 6.7 5.8 2.1 1.6 4.5 3.8 5.4 4.7.8 1 1.9 1.8 2.3 1.8.4 0 2 1.2 3.6 2.7 1.6 1.6 4.6 4.1 6.7 5.8 2.1 1.6 4.5 3.8 5.4 4.7.8 1 1.9 1.8 2.3 1.8.4 0 2 1.2 3.6 2.7 1.6 1.6 4.6 4.1 6.7 5.8 2.1 1.6 4.5 3.8 5.4 4.7.8 1 1.9 1.8 2.3 1.8.4 0 2 1.2 3.6 2.7 1.6 1.6 4.6 4.1 6.7 5.8 2.1 1.6 4.5 3.8 5.4 4.7.8 1 1.9 1.8 2.3 1.8.4 0 2 1.2 3.6 2.7 2.7 2.7 7 6.2 12 10 1.2 1 4.1 3.4 6.2 5.4l4 3.6-8.8 4.4c-8.5 4.2-20.2 10.8-21.2 11.9-.3.3-2.4 1.4-4.7 2.5-2.4 1.1-4.3 2.3-4.3 2.6 0 .4-1.3 1.2-3 1.9-1.6.7-3 1.6-3 2.1s-.6.9-1.2.9c-.7 0-4.4 2-8.1 4.5-3.8 2.5-7.1 4.5-7.3 4.5-.3 0-3.6 2-7.4 4.5-3.8 2.5-7.4 4.5-7.9 4.5-.6 0-1.1.4-1.1.9s-1.3 1.4-3 2.1c-1.6.7-3 1.6-3 2 0 .4-.8 1.1-1.7 1.4-2.1.8-3.8 1.8-12.2 7.4l-6.3 4.2-5.7-1.4c-3.1-.8-9-2.2-13.1-3.2-4.1-.9-9.7-2.2-12.5-2.9-8.2-2.1-14.7-3.6-20.2-4.5-2.8-.4-5.7-1.1-6.3-1.5-1.5-1-11.1.5-10.4 1.6.6 1.1 28.6 14.9 30.1 14.9.6 0 1.3.3 1.5.7.4 1 9.1 5.3 10.7 5.3.6 0 1.1.4 1.1.9s1.2 1.2 2.6 1.5c3.3.9 2.5 1.7-4.6 5.4-3 1.5-5.6 3.4-5.8 4.4-.5 2.4 3.4 3.3 6.3 1.4 1.3-.9 4.4-1.6 6.9-1.6h4.5l-.6 3.7c-.3 2.1-.9 4.2-1.3 4.8-.5.5-1.1 3.2-1.5 6-.3 2.7-1 5.9-1.5 7-.5 1.1-1.4 4.2-1.9 7-1.6 7.8-3.1 14.6-4.7 19.9-1.9 6.4-1.8 6.9.8 5.5 2.9-1.5 6.8-5.9 6.8-7.5 0-.8.4-1.4.9-1.4s1.2-1.4 1.6-3c.4-1.7 1-3 1.5-3s1.1-1.4 1.5-3c.4-1.7 1-3 1.5-3s1.1-1.4 1.5-3c.4-1.7 1-3 1.5-3s1.1-1.4 1.5-3c.4-1.7 1-3 1.5-3s1.1-1.4 1.5-3c.4-1.7 1-3 1.5-3s1.1-1.4 1.5-3c.4-1.7 1-3 1.5-3s1.1-1.4 1.5-3c.4-1.7 1-3 1.5-3s1.1-1.4 1.5-3c.4-1.7 1.1-3 1.6-3s.9-.6.9-1.3c0-2 3.1-4.4 6.7-5.2 1.8-.3 3.5-1.1 3.8-1.6.4-.5 1.4-.9 2.3-.9.9-.1 3.5-.9 5.7-2s4.8-1.9 5.7-2c.9 0 1.9-.4 2.2-.9.3-.5 2.2-1.2 4.1-1.5 1.9-.4 3.5-1.1 3.5-1.6 0-.6.8-1 1.8-1 .9 0 2.9-.6 4.4-1.4 1.5-.8 4-1.7 5.7-2.1 1.7-.4 3.1-1.1 3.1-1.6s.8-.9 1.8-.9c.9-.1 3.5-.9 5.7-2s4.8-1.9 5.8-2c.9 0 1.7-.4 1.7-1 0-.5 1.6-1.2 3.5-1.6 1.9-.3 3.5-1 3.5-1.5s.8-.9 1.8-.9c.9-.1 3.5-.9 5.7-2s4.6-1.9 5.3-2c.6 0 1.2-.5 1.2-1 0-.6.7-1 1.6-1 .9 0 5-1.6 9-3.5s7.7-3.5 8.3-3.5c.6 0 1.1-.4 1.1-.9s1.4-1.2 3-1.6c1.7-.4 3-1.1 3-1.7 0-.6.3-.8.7-.4.9.8 1.6 13.6 3.2 57.6.6 16.2 1.6 33.4 2.1 38.1.6 4.7 1 14.2 1 21.2 0 8.6.4 12.7 1.1 12.7 1.2 0 7.8-7 7.9-8.3 0-.4 1.1-1.8 2.5-3.1 2-1.8 2.7-3.9 3.5-9.7.5-4.1 1.7-11.7 2.5-16.9.9-5.2 1.9-11.2 2.2-13.2.4-3 1.3-4.2 4.2-6 2-1.2 4.2-2.8 4.9-3.5.7-.7 1.8-1.3 2.3-1.3 2 0 4.9-3.6 4.9-6.2 0-5.3-4.6-7.7-10.4-5.3-1.7.8-1.8.4-1.2-4.6.3-3 1.2-9 1.9-13.3 1.1-6.9 1.6-8.1 3.7-9 1.4-.6 2.7-1.3 3-1.7.3-.3 1.5-.9 2.8-1.3 1.2-.4 2.2-1.2 2.2-1.7s.6-.9 1.4-.9c3.3 0 3.5-7.4.4-10.1-2.9-2.3-4.2-2.3-7.5-.2-2.6 1.8-2.7 1.8-1.9-.7.4-1.4 1.1-5.4 1.7-9 .5-3.6 1.4-8.3 1.9-10.5.5-2.2 1.2-6.4 1.6-9.2.6-4.7.9-5.3 3.5-5.8 1.6-.4 2.9-1 2.9-1.5s1.4-1.1 3-1.5c1.7-.4 3-1 3-1.5s1.4-1.1 3-1.5c1.7-.4 3-1 3-1.5s1.4-1.1 3-1.5c1.7-.4 3-1 3-1.5 0-.4 1.1-1.1 2.5-1.4 1.4-.4 2.5-1.1 2.5-1.6 0-.6.6-1 1.3-1 .8 0 2.4-.9 3.7-2 1.3-1.1 2.9-2 3.7-2 .7 0 1.3-.3 1.3-.8 0-.4 1.7-1.8 3.7-3.2 9.8-6.6 18.1-17.6 16.9-22.3-.9-3.5-5.6-5.7-12.6-5.7-6.5 0-18.1 2.2-24.2 4.6-2.1.7-5.7 2.1-8 3-2.4.9-8.9 3.9-14.4 6.5-5.6 2.7-10.7 4.9-11.3 4.9-.6 0-1.1.4-1.1 1 0 2.3-5.5.7-16.1-4.9-6.3-3.2-12.9-6.7-14.8-7.9l-3.3-2 2.6-1.7c3.8-2.5 4.4-6 1.5-9.1-3.2-3.4-6.4-3.1-15.1 1.7-2.2 1.2-6.1 1.2-7.4 0-.5-.5-4.9-3-9.9-5.6-10-5.2-11.8-6.5-9.1-6.5 2.5 0 5.6-3.7 5.6-6.6 0-2.5-3.5-6.4-5.8-6.4-2.1 0-11.2 3.2-11.8 4.1-.7 1.2-7.7 1.2-8.9 0-.6-.5-5.7-3.3-11.5-6.4-5.8-3-12.3-6.5-14.5-7.7-5.8-3.3-7.1-3.5-16.7-3.2zM562 135.7c-3.7.5-5.1 1.8-4.3 4 .8 2 20.6 1.9 22.3-.2.7-.8 1-2.2.6-3-.4-1.2-2.1-1.5-7.8-1.3-4 0-8.9.3-10.8.5zm32.6 1.8c-.9 2.4 2.2 4.5 6.9 4.5 2.4 0 4.5.4 4.7.9.2.5 2.8 1.1 5.8 1.3 5.2.3 5.5.2 5.5-2.1 0-2.2-.8-2.6-7.5-4.2-9.3-2.3-14.6-2.4-15.4-.4zm-59.6 3.3c-7.2 2.4-12.4 4.5-13.9 5.6-1.1.8-.9 1.3.8 2.7 2 1.6 6.1 1.5 6.1-.1 0-.4 2-1.1 4.5-1.4 2.4-.4 4.7-1.1 5-1.7.4-.5 1.7-.9 3-.9 2.9 0 3.9-1.3 3-4-.7-2.3-2.3-2.3-8.5-.2zm96.7 4.9c-1.9 1.9-.3 4.1 4.3 6.1 2.8 1.2 5.5 2.2 6 2.2.6 0 1 .4 1 1 0 .5.6 1 1.3 1 .6 0 2.5.7 4 1.5 2.6 1.3 3 1.3 4.5-.1 1.7-1.7.9-4.2-1.9-5.4l-3.6-1.8c-3.3-1.7-12.6-5.2-13.9-5.2-.6 0-1.4.3-1.7.7zm-128.9 8c-1 .2-1.8.8-1.8 1.3s-.9 1.2-2.1 1.5c-2.4.8-10.6 6.2-11.4 7.6-.7 1 1.8 3.9 3.4 3.9.6 0 1.1-.4 1.1-.9s1.1-1.2 2.5-1.5c1.4-.4 2.5-1.1 2.5-1.6 0-.6.6-1 1.3-1 .8 0 2.4-.9 3.7-2 1.3-1.1 2.7-2 3.2-2 1.7 0 4-3 3.4-4.5-.5-1.5-2.4-1.7-5.8-.8zm162.5 8.9c-.7.7-1.3 1.6-1.3 1.9 0 1 3.3 4.1 6.5 6.1s3.8 2.4 7.4 5.4c2.6 2.2 5.6 2.6 6.6 1s-.7-3.6-7.5-8.8c-8.9-6.7-10.2-7.3-11.7-5.6zm-198.8 18.8c-7.3 7.3-8.3 9.7-4.9 11 1.9.7 16.6-14 16.2-16.2-.7-3.7-3.9-2.3-11.3 5.2z"/><path d="M1011.1 186.3c-8.3 5.8-10.5 8.4-9.1 10.7.8 1.3 1.4 1.2 4.2-.5 1.8-1 3.8-2.4 4.5-2.9 3.4-3 4.3-3.6 5.1-3.6.5 0 2.2-1.1 3.8-2.5 2.3-2 2.7-2.8 1.8-4.2-.6-.9-1.5-1.8-2-1.9-.5-.2-4.2 2.1-8.3 4.9zm-317.4.4c-1.4 1.3-.5 2.9 4.4 8.2 2.8 3 5.8 6.5 6.6 7.8.9 1.3 2.5 2.3 3.9 2.3 1.9 0 2.4-.5 2.4-2.5 0-1.4-.7-2.8-1.5-3.1-.8-.4-1.5-1-1.5-1.4 0-.5-2.3-3.4-5.2-6.4-4.8-5.2-7.5-6.6-9.1-4.9zm-245.8 17.5c-.7 1.3-1.5 2.5-1.9 2.8-1.4 1.1-7 12.2-7 14.1 0 1.4.7 1.9 2.5 1.9 1.6 0 2.5-.6 2.5-1.5 0-.8.4-1.5.8-1.5s1.3-1.2 2-2.8c1.6-3.6 3.7-7.1 5.1-8.5.6-.6 1.1-2.4 1.1-3.9 0-3.5-3.4-3.9-5.1-.6zm535.7 3.3c-2 1.9-3.8 3.5-4 3.5-.3 0-2.2 1.6-4.2 3.6-3.1 2.9-3.6 3.8-2.7 5.2 1.5 2.5 2.5 2.2 7.8-2.3 9.3-7.8 11.7-10.4 11.1-12-.9-2.5-4.2-1.7-8 2zM717.5 216c-.8 1.2.3 7 1.3 7 .4 0 1.8 2.5 3.2 5.5 1.4 3 2.8 5.5 3.3 5.5.4 0 .7.7.7 1.5 0 2 3.9 1.9 4.7-.1.5-1.5-5.4-14.5-6.9-15.2-.5-.2-.8-1-.8-1.7 0-.8-.9-1.9-1.9-2.5-2.4-1.3-2.8-1.3-3.6 0zm235 21.1c-7.5 7.5-7.9 8.1-6.1 9.4 2.5 1.9 3.9 1.1 11.9-7.5 5.7-6.2 6.4-7.4 5.2-8.6-.7-.8-1.7-1.4-2.2-1.4-.5 0-4.4 3.6-8.8 8.1zm-519.1-1c-2.4 3.7-3.3 6.3-4 10.6-.3 2.7-1.1 5.3-1.6 6-1.5 1.8-.5 5.7 1.5 6.1 2.6.5 4.4-2.5 5.2-8.5.3-2.9 1.3-6.7 2.2-8.4 1.4-2.9 1.4-3.2-.5-5.1-1.6-1.6-2.1-1.7-2.8-.7zm300.3 13.6c-1 .9-.9 4 .2 6.1 1.2 2.4 4.1 11.7 4.1 13.2 0 .6.7 1.8 1.6 2.7 1.4 1.4 1.7 1.4 3.1 0 1.3-1.3 1.4-2.2.4-5.9-.7-2.4-1.7-6-2.2-8.1-1.6-6.6-5-10.3-7.2-8zm199.3 7.2c0 .6-2.5 3.6-5.6 6.7-5.6 5.7-7.5 8.8-6.7 11.1.9 2.4 2.6 1.3 10-6.4 7.8-8 9.1-11.5 4.6-12.1-1.3-.2-2.3.1-2.3.7zm-507.3 16.7c-.9.9-.9 14.5-.1 19.6.5 2.8 1.2 3.8 2.5 3.8 2.5 0 3-2.7 2.7-14-.3-8.7-.5-9.5-2.3-9.8-1.2-.2-2.4 0-2.8.4zm482.1 11.8c-1 .7-1.8 1.6-1.8 1.9 0 .3-2.5 3.2-5.5 6.3-5.6 5.9-6.7 8.7-4 9.8 1.1.4 3.6-1.5 7.6-5.5 7.2-7.3 9.1-10.1 8.3-12.3-.7-1.9-2.3-2-4.6-.2zm-164.7.5c-.9.6-1.2 1.9-.7 4.2.4 1.9.9 5.9 1.2 8.9.9 9.2 1.2 10.2 3.7 9.8 2.1-.3 2.2-.7 1.9-8.7-.3-8-2.1-15.1-3.9-15.1-.4 0-1.4.4-2.2.9zm-314.4 25.4c-.6 1.5.9 9.8 2.2 13.2.5 1.1 1.2 3.3 1.7 5 1 3.1 4.1 4.6 5.4 2.5.9-1.4-.7-9-2.1-10.5-.5-.5-.9-1.9-.9-3.1 0-3.9-2.1-8.4-4-8.4-1 0-2 .6-2.3 1.3zM877 319c-4.9 4.9-7 7.8-7 9.5 0 1.6.6 2.5 1.6 2.5 2.2 0 16.6-15 16.2-16.9-.7-3.5-3.9-2.1-10.8 4.9zm-131.1 4.6c-.9 1.1-1.5 5.2-1.7 12l-.4 10.4h2.5c3.3 0 3.9-2.9 3.5-14.9-.3-8.6-1.3-10.6-3.9-7.5zm103.6 22.8c-5.3 5.2-7.4 7.8-6.9 9 1.3 3.3 3 2.3 14-8.1 2.5-2.3 4.4-5 4.4-6.2 0-4-3.9-2.3-11.5 5.3zm-407.8-.7c-1.4 1.4-.6 4.4 2.4 9 1.8 2.6 4.1 6.3 5.3 8 2.5 3.8 6.6 4.6 6.6 1.3 0-1.7-2.9-6.9-5-9-.3-.3-1.3-2.1-2.4-4-2.6-4.9-5.3-7-6.9-5.3zm300 15c-.4.3-.7 1.7-.7 2.9 0 1.3-.4 2.5-.9 2.8-.5.4-1.2 2.9-1.6 5.8-.4 2.9-1.2 6-1.8 6.9-.8 1.3-.7 2.1.6 3.3.8.9 2 1.6 2.5 1.6 1.2 0 2.9-3.7 4.1-9 .5-2.5 1.4-6.3 2-8.5.7-2.7.7-4.3-.1-5.2-1.1-1.4-3.1-1.7-4.1-.6zm85.2 4.6c-1.9 1.2-3.8 2.7-4.2 3.4-.4.7-1.5 1.3-2.2 1.3-.8 0-1.5.3-1.5.7 0 .5-1.4 1.7-3 2.8-3 2-4.1 5.4-1.7 5.6 2.6.3 4.3-.3 6.3-2.2 1.1-1 2.6-1.9 3.2-1.9.7 0 1.2-.3 1.2-.8 0-.4 1.7-1.8 3.8-3.2 4.4-2.9 5.2-3.9 4.5-5.6-.8-2.2-2.9-2.3-6.4-.1zm-362.8 10.6c-2.2 1.4-.4 4.7 4.7 8.8 2.6 2.1 5.6 4.8 6.8 6 2.4 2.6 5.9 3 6.7.9.7-1.7-1.4-4-10-11.4-6.8-5.8-6.3-5.5-8.2-4.3zM793 388c-2.5 1.6-5.1 3-5.7 3-.7 0-1.3.4-1.3 1 0 .5-.6 1-1.4 1-2.1 0-4.6 2.8-4 4.5.4.8 1.4 1.5 2.4 1.5 2 0 8.3-3 8.8-4.3.2-.4.9-.7 1.6-.7 2.5 0 9.6-5.9 9-7.5-.9-2.3-4.4-1.7-9.4 1.5zm-61.5 8.8c-1.1.8-5.5 11.1-5.5 12.9 0 .6-.5 1.3-1.1 1.5-.7.2-1.2 1.8-1.3 3.6-.1 2.3-.6 3.2-1.8 3.2-1 0-1.8.4-1.8.9s-2 1.2-4.5 1.5c-3.9.6-4.5 1-4.5 3.2 0 1.3.6 2.4 1.3 2.5 2.5.2 6.2-.3 7.2-1.1.6-.4 2.6-1 4.6-1.4 4.8-.9 9.9-3.4 9.9-5 0-2.2-2.2-3.7-3.7-2.5-1.8 1.5-1.7-.1.1-3.8 4.9-9.6 6.2-15.5 3.6-16-.8-.2-2 0-2.5.5zm-238.8 2.8c-1.4 1.5-.6 3 2.6 4.9 1.7 1 3.4 2.1 3.7 2.5.3.3 2.9 1.7 5.8 3 2.8 1.4 5.2 2.8 5.2 3.3 0 .4.9.3 2-.3 3.5-1.9 2.2-3.7-5.6-8.5-7.7-4.6-12.3-6.3-13.7-4.9zm268.3 4.6c-5.2 2.4-7.5 3.4-11.2 4.8-1.8.6-2.8 1.7-2.8 3 0 3.1 2.3 3.4 7.3 1.1 2.5-1.2 5.3-2.1 6.1-2.1.9 0 1.6-.4 1.6-.9s1.3-1.2 3-1.6c2.9-.6 4.7-3.5 3.5-5.5-.9-1.5-2.5-1.2-7.5 1.2zm-234.3 11.5c-2.6 2.5 1.7 6 9.8 7.9 1.7.4 3.5 1 4 1.4 1 .8 4.7 1.3 7.3 1.1.6-.1 1.2-1.2 1.2-2.5 0-2-.6-2.5-4-3.1-2.2-.4-4.2-1-4.5-1.5-.3-.5-2.3-1.1-4.5-1.5-2.2-.4-4.2-1.1-4.6-1.6-.6-1-3.8-1.2-4.7-.2zm35.7 11.7c-1 2.6 1.7 4.2 9.1 5.4 3.9.6 8.4 1.4 10.2 1.8 2.6.5 3.2.2 3.8-1.5.9-2.8-.1-4.1-3.1-4.1-1.4 0-3.3-.4-4.2-.9-.9-.5-4.7-1.2-8.5-1.6-5.6-.5-6.8-.4-7.3.9zm123.6-.7c-5 .6-13 3.3-13 4.5 0 1.6 2.8 3.8 4.9 3.8 1.2 0 2.1-.4 2.1-.9s3.2-1.2 7.2-1.6c7.9-.8 10.8-2.1 10.8-4.7 0-1.9-2.8-2.1-12-1.1zm28 4.8c0 .8-.4 1.5-1 1.5-.5 0-1 .6-1 1.2 0 .7-1.8 3.9-4 7.2-2.2 3.2-4 6.5-4 7.2 0 3.5 5.7 2.6 6.6-1.1.3-1.3 1.2-2.6 2-2.9.8-.3 1.4-1.2 1.4-2.1 0-.8.4-1.5.9-1.5s1.3-1 1.7-2.3c.4-1.2 1-2.4 1.4-2.7.8-.5 1.3-2.6 1.1-4.8-.2-1.8-5.1-1.5-5.1.3zm-113.8 1.1c-.8.6-1.2 1.6-.9 2.1 1 1.7 9 3.3 16.1 3.3 5.7 0 6.5-.3 7.1-2.1.4-1.1.4-2.4 0-2.7-1.2-1.3-20.7-1.8-22.3-.6zm47.3-.9c-6.9.3-9.3.7-10.2 2-2.1 2.8.3 4.3 6.8 4.3 3.3 0 5.9-.4 5.9-1s2-.9 4.5-.8c5.3.2 7.5-1.3 5.5-3.7-.7-.8-1.8-1.4-2.4-1.3-.6.1-5.1.4-10.1.5zm40.5 35.4c-3.6 3.9-6.8 7.9-7.1 8.8-.8 2 0 4.1 1.5 4.1 1 0 10.9-9.7 14.4-14.2 1.5-1.9.7-5.8-1.1-5.8-.7 0-4.1 3.2-7.7 7.1zM665.4 490c-1.6 1.6-3.2 3-3.6 3-.4 0-2.1 1.2-3.7 2.7-1.6 1.6-3.7 3.4-4.5 4.1-2.1 1.7-2 3.8.1 4.6 1.7.7 7-2.5 8.6-5.1.4-.7 1.2-1.3 1.8-1.3.5 0 2.6-1.5 4.5-3.4 2.7-2.6 3.4-4 2.9-5.5-.9-2.9-2.7-2.6-6.1.9zm-30.8 22.3c-2.2 1.2-4.6 2.8-5.4 3.4-.7.7-2 1.3-2.8 1.3-.8 0-1.4.4-1.4.9s-.9 1.1-2 1.4c-1.4.3-2 1.4-2 3.1 0 2.1.5 2.6 2.5 2.6 1.4 0 2.5-.4 2.5-.8s1.2-1.3 2.8-1.9c2.9-1.3 6.4-3.4 7.2-4.4.3-.4 1.5-.9 2.7-1.3 3.5-1.1 4.3-6.7 1-6.6-.7.1-3 1.1-5.1 2.3zm-265.3 2.8c-2.3.7-3.3 1.6-3.3 2.9 0 1.9.7 2 11.5 2 9.3 0 11.7-.3 12.1-1.5 1.2-3-2.1-4.5-9.8-4.4-4 0-8.8.5-10.5 1zM404 517c-1.2.7-1.2 1.3-.4 2.7.8 1.2 3.4 2.2 8.5 3 4.1.7 8.7 1.5 10.3 1.9 3.2.8 4.7-.7 3.9-3.7-.4-1.2-1.4-1.9-3-1.9-1.3 0-3.2-.4-4.1-.9-2.7-1.3-13.6-2.1-15.2-1.1zm-59.4.9c-.3.4-3.5 1.1-7.2 1.5-6.3.6-9.4 2.1-9.4 4.5 0 1.8 4.2 2.2 10 1.1 3-.6 7.1-1.4 9-1.7 4.4-.6 6.5-2.9 4.5-4.9-1.5-1.5-6.1-1.9-6.9-.5zm95.6 6.7c-.7.7-1.2 1.7-1.2 2.1 0 1.2 5.9 4.3 8.3 4.3 1.2 0 3.3.6 4.7 1.3 4.2 2.2 8.7 2.8 9.9 1.3 1.9-2.3.1-4.6-4-5.2-2.2-.4-4.2-1-4.4-1.5-.3-.4-2.6-1.1-5-1.5-2.5-.3-4.5-1-4.5-1.3 0-1.2-2.5-.9-3.8.5zm-129.7 1.1c-1.1.3-2.4.9-3 1.3-.5.4-2.6 1.1-4.5 1.5-1.9.4-4.3 1.2-5.5 1.8-1.1.5-2.7 1.3-3.5 1.7-2 .9-1.9 3 .1 4.3 1.2.8 2.6.6 5.2-.6 1.9-.9 4.4-1.7 5.5-1.7 1.2 0 2.3-.4 2.6-.9.3-.5 2.1-1.2 4-1.5 3.9-.8 5.2-2.9 3-5.1-.9-.8-1.6-1.4-1.7-1.4-.1.1-1.1.4-2.2.6zm291.3 3c-1 .2-1.8.8-1.8 1.2 0 .5-1.4 1.1-3.2 1.5-4 .8-10.8 3.8-10.8 4.7 0 1.8 1.3 3.9 2.5 3.9.7 0 2.6-.7 4.1-1.5 1.6-.8 3.9-1.5 5.2-1.5 1.2 0 2.2-.4 2.2-1 0-.5 1.6-1.2 3.5-1.6 3.9-.7 6-2.7 5.1-4.9-.5-1.4-3.2-1.8-6.8-.8zm-126 7.5c-.9 2.4.3 3.7 3.8 4.4 1.9.3 3.4 1 3.4 1.4 0 .4 2.5 1.1 5.5 1.5 3 .3 5.7 1.1 6 1.6.9 1.3 4.5-.8 4.5-2.6s-5.3-4.2-11.2-5.1c-2.7-.3-4.8-1-4.8-1.5 0-1.4-6.7-1.1-7.2.3zM274 538.9c0 .5-1.6 1.2-3.5 1.5-1.9.4-3.5 1.1-3.5 1.6 0 .6-.5 1-1.1 1-.6 0-2.6.7-4.5 1.6-3.4 1.6-4.6 4.8-2.2 5.6 1.6.6 7.8-1.3 7.8-2.3 0-.4 1.4-1 3-1.4 3.6-.8 9.3-3.5 10.2-4.8.3-.6 0-1.6-.7-2.4-1.5-1.5-5.5-1.8-5.5-.4zm286.5 1.8c-2.2.3-4.4.9-4.9 1.4-.6.5-2 .9-3.2.9-3.1 0-3.9 1.8-1.9 4 1.2 1.3 2.3 1.7 3.4 1.1.9-.5 4.5-1.2 8.1-1.5 7.7-.8 11-2.3 11-4.8 0-1.9-2.3-2.1-12.5-1.1zm-48 3.2c-.3.6-.1 2 .5 3.1 1 1.8 2.1 2 11.9 2 8.2 0 11-.3 11.4-1.3.3-.8.2-1.8-.1-2.4-1-1.4-22.8-2.7-23.7-1.4zm-470 11.7c-10.3 2.7-22.1 11.4-26.1 19.2-1 2-2.2 3.9-2.5 4.2-2.9 2.5-5.3 23-2.9 24.5.6.3 1 1.6 1 2.8.1 1.2.9 4 2 6.2s1.9 4.6 2 5.2c0 .7.4 1.3.9 1.3s1.2 1.3 1.6 3c.4 1.7 1 3 1.3 3 .4 0 1.8 2.5 3.2 5.5 1.4 3 2.8 5.5 3.3 5.5.4 0 .7.4.7.9 0 1.1 2.7 5.4 12.3 19.6 3.4 4.9 7 10.4 8.1 12.2 3.1 4.7 4.3 4.7 7.3 0 1.5-2.3 3.3-4.6 4-5 .7-.4 1.3-1.4 1.3-2.2 0-.7.3-1.5.8-1.7 1-.5 5.2-6.6 5.2-7.7 0-.5.3-1.1.8-1.3 1.1-.5 5.2-6.6 5.2-7.8 0-.5.5-1 1-1 .6 0 1-.6 1-1.3 0-.7 1.5-3.6 3.4-6.4 4.1-6.3 11.2-20.7 12.2-24.8.4-1.7 1.2-3.6 1.8-4.4 1.4-1.8 1.4-17.1 0-20.2-.6-1.3-2.2-4.7-3.4-7.4-2.5-5.3-13-16.5-15.5-16.5-.8 0-1.5-.5-1.5-1 0-.6-.6-1-1.2-1-.7 0-2.6-.7-4.3-1.6-3-1.6-19-2.8-23-1.8zm17.7 14.1c6.5 2.1 14.4 9.8 15.4 14.9.3 1.9 1 3.7 1.5 4 1.2.7 1.2 10.7 0 11.9-.5.6-1.4 2.6-2 4.6-1 3.2-4.5 7.5-9.5 11.7-.9.7-2.9 1.5-4.6 1.9-1.7.3-3.3 1-3.6 1.4-.7 1.2-12.4 1.2-12.4 0 0-.5-1.6-1.2-3.5-1.5-1.9-.4-3.5-1.1-3.5-1.6s-1-1.2-2.3-1.5c-3.1-.8-8.4-9.2-9.8-15.5-.8-3.9-.8-6.8.1-11.6.7-3.5 1.6-6.4 2-6.4.5 0 1.2-.9 1.5-2.1 1.1-3.5 6.9-8.2 13-10.5 4.5-1.7 12-1.6 17.7.3zm176.4-11.2c-2.7 1.9-5.2 3.8-5.5 4.2-.3.4-1.5 1.3-2.6 1.9-2.4 1.4-3.2 4.4-1.4 5.5 1.4.8 7.8-2.5 9.2-4.8.4-.7 1.5-1.3 2.2-1.3.8 0 1.5-.4 1.5-.9s1-1.3 2.3-1.7c2.5-.8 3.7-2.2 3.7-4.7 0-2.7-3.9-1.9-9.4 1.8zm-25.3 19.8c-.6.7-3.9 3.8-7.2 7-6.4 6-7.9 9.7-4 9.7 3 0 17.1-14.2 16.3-16.4-.7-1.9-3.4-2-5.1-.3zm-29.9 30.3c-2.2 2.6-5.1 5.9-6.6 7.5-3 2.9-3.6 5.5-1.5 6.2 2.2.7 5.1-1.3 9.7-7 2.5-3 5.3-6.2 6.2-7.2 1.2-1.4 1.4-2.1.5-3-2.1-2.1-4.5-1.1-8.3 3.5zm-23.9 26c-1.6 1.9-4.7 5.4-6.7 7.7-4.1 4.5-4.8 7.4-2.1 8.4 1.1.4 2.6-.5 4.6-2.8 1.6-1.9 5-5.5 7.4-8.1 3.3-3.6 4.3-5.3 3.8-6.8-.9-3-3.6-2.4-7 1.6zm-22.7 24.1c-.1.5-2.5 2.6-5.3 4.8-2.7 2.1-5.4 4.5-5.8 5.2-.4.7-1.5 1.3-2.2 1.3-1 0-1.5 1.1-1.5 3.1 0 2.9.2 3.1 2.6 2.5 1.4-.4 4.2-2.3 6.2-4.3 2.1-1.9 4.8-4.2 6-5.1 2.6-1.7 4.2-5 3.5-7-.6-1.3-2.9-1.7-3.5-.5zm-89.3 19.1c-1.6.8-3.1 1.9-3.3 2.4-.2.4-.9.8-1.5.8-1.5 0-3.8 3.4-5.5 8.4-3.4 9.6 5.6 20.6 16.7 20.6 4.7 0 11.1-3.7 13.1-7.5.8-1.7 1.8-3.2 2.3-3.3 1.3-.6.7-9.8-.8-13-2-3.9-7-8.2-9.6-8.2-1 0-1.9-.5-1.9-1 0-1.5-6.1-1-9.5.8zm15.1 5.3c3.1 2.9 4.8 8.7 4 13.3-.7 3.9-5.8 9.6-8.5 9.6-.9 0-2.2.5-2.8 1.1-.8.8-2.4.6-5.9-.7-7.1-2.7-8.7-4.8-9.2-11.6-.4-4.9-.1-6.4 1.9-9.3 3-4.4 6-5.6 12.8-5 3.8.3 6 1 7.7 2.6z"/><path d="M48 689c-4.6 4-2 10 4.3 10 2.9 0 3.7-.5 4.5-2.8.6-1.6.6-3.7 0-5.2-1.6-4.4-5.1-5.2-8.8-2zm54.8-7.3c-1 .2-1.8.8-1.8 1.3 0 .4-1.8 1.1-4 1.5-2.2.4-4 1.1-4 1.6s-1.1.9-2.4.9c-2.9 0-4.9 2.2-4 4.4.8 2 2.7 2 8.9-.3 11.6-4.2 13.8-5.8 12.8-8.9-.5-1.2-2.2-1.4-5.5-.5z"/></symbol></svg>