<?xml version="1.0" standalone="no"?>
<!DOCTYPE svg PUBLIC "-//W3C//DTD SVG 20010904//EN"
 "http://www.w3.org/TR/2001/REC-SVG-20010904/DTD/svg10.dtd">
<svg version="1.0" xmlns="http://www.w3.org/2000/svg"
 width="1000.000000pt" height="1001.000000pt" viewBox="0 0 1000.000000 1001.000000"
 preserveAspectRatio="xMidYMid meet">

<g transform="translate(0.000000,1001.000000) scale(0.100000,-0.100000)"
fill="#000000" stroke="none">
<path d="M3706 7747 c-22 -16 -18 -55 6 -71 24 -15 72 4 76 30 6 43 -45 68
-82 41z"/>
<path d="M6436 7747 c-21 -16 -18 -55 5 -70 47 -29 101 31 59 65 -26 21 -40
22 -64 5z"/>
<path d="M3920 7730 c-19 -19 -20 -24 -7 -43 8 -13 27 -23 46 -25 25 -3 33 2
43 23 9 21 9 28 -3 39 -27 26 -57 28 -79 6z"/>
<path d="M6233 7743 c-27 -5 -41 -46 -23 -68 26 -31 90 -10 90 30 0 20 -28 49
-42 44 -2 -1 -13 -4 -25 -6z"/>
<path d="M3480 7725 c-16 -19 -5 -62 18 -67 9 -2 29 0 45 5 29 10 37 43 15 65
-17 17 -63 15 -78 -3z"/>
<path d="M6640 7720 c-8 -14 -8 -26 0 -40 15 -27 75 -28 90 -1 13 25 13 27 -6
45 -22 23 -71 20 -84 -4z"/>
<path d="M4130 7695 c-17 -21 -8 -47 22 -65 35 -19 62 -5 66 34 3 20 -2 28
-23 36 -36 14 -50 13 -65 -5z"/>
<path d="M6014 7700 c-27 -11 -37 -36 -24 -61 12 -21 41 -25 69 -9 28 14 34
40 15 61 -19 21 -28 22 -60 9z"/>
<path d="M3276 7687 c-22 -16 -18 -55 7 -71 21 -14 70 10 75 37 8 40 -44 62
-82 34z"/>
<path d="M6862 7688 c-22 -22 -14 -58 15 -69 55 -21 96 26 57 65 -18 19 -55
21 -72 4z"/>
<path d="M4353 7639 c-26 -9 -32 -50 -10 -67 39 -31 87 -16 87 28 0 26 -48 50
-77 39z"/>
<path d="M5786 7618 c-15 -21 -9 -49 15 -63 16 -11 68 15 74 37 15 45 -60 68
-89 26z"/>
<path d="M3068 7619 c-27 -15 -23 -57 7 -71 19 -9 29 -8 50 6 58 38 3 101 -57
65z"/>
<path d="M7060 7610 c-9 -17 -6 -25 14 -45 30 -30 47 -31 69 -7 22 24 21 35
-1 55 -26 23 -69 22 -82 -3z"/>
<path d="M4548 7549 c-29 -16 -22 -56 11 -74 33 -16 56 -12 65 12 10 25 -2 49
-30 61 -29 14 -25 14 -46 1z"/>
<path d="M5607 7544 c-30 -16 -37 -54 -12 -74 31 -26 101 27 80 60 -14 23 -40
28 -68 14z"/>
<path d="M2870 7522 c-22 -17 -23 -23 -12 -46 13 -30 37 -33 70 -10 16 11 22
24 20 42 -4 35 -44 41 -78 14z"/>
<path d="M7260 7525 c-17 -21 -4 -51 30 -65 36 -15 60 -1 60 36 0 39 -64 60
-90 29z"/>
<path d="M4736 7437 c-25 -18 -17 -58 16 -76 24 -14 28 -14 47 3 27 24 26 32
-4 61 -28 29 -34 30 -59 12z"/>
<path d="M5407 7422 c-45 -50 11 -96 63 -54 33 27 21 72 -19 72 -15 0 -35 -8
-44 -18z"/>
<path d="M2687 7412 c-21 -23 -22 -61 -2 -68 24 -10 63 4 75 26 25 47 -37 82
-73 42z"/>
<path d="M7450 7415 c-17 -21 -8 -47 22 -65 49 -27 89 20 52 61 -20 23 -57 25
-74 4z"/>
<path d="M4906 7304 c-22 -21 -20 -39 6 -64 25 -23 48 -26 66 -8 19 19 14 45
-14 67 -32 25 -38 26 -58 5z"/>
<path d="M5238 7299 c-11 -6 -18 -22 -18 -39 0 -23 5 -31 25 -36 34 -8 67 21
63 55 -3 29 -39 39 -70 20z"/>
<path d="M2512 7277 c-27 -29 -27 -39 -2 -62 18 -16 23 -17 45 -5 30 16 42 54
25 75 -18 22 -43 18 -68 -8z"/>
<path d="M7622 7283 c-14 -26 3 -61 33 -69 35 -9 55 1 55 29 0 47 -68 78 -88
40z"/>
<path d="M5066 7148 c-28 -39 19 -82 64 -58 22 12 27 49 8 68 -19 19 -55 14
-72 -10z"/>
<path d="M2357 7132 c-21 -23 -22 -56 -2 -72 36 -30 95 38 65 75 -17 20 -43
19 -63 -3z"/>
<path d="M7780 7129 c-17 -30 11 -69 50 -69 23 0 31 5 36 25 13 52 -62 90 -86
44z"/>
<path d="M2227 6978 c-27 -15 -39 -45 -27 -68 24 -44 99 -7 86 43 -6 27 -35
39 -59 25z"/>
<path d="M7932 6978 c-27 -27 0 -88 39 -88 39 0 52 55 21 83 -22 20 -43 22
-60 5z"/>
<path d="M2091 6789 c-25 -27 -27 -52 -7 -69 24 -19 60 -8 70 23 19 54 -26 86
-63 46z"/>
<path d="M8049 6789 c-20 -39 23 -89 64 -73 22 8 29 32 15 57 -22 42 -60 50
-79 16z"/>
<path d="M1984 6596 c-8 -14 -14 -35 -12 -48 5 -35 57 -32 77 4 14 24 14 28
-3 47 -25 27 -42 26 -62 -3z"/>
<path d="M8160 6604 c-28 -33 21 -101 58 -78 24 15 27 40 8 69 -19 28 -47 32
-66 9z"/>
<path d="M1900 6400 c-24 -24 -26 -53 -4 -74 20 -21 30 -20 54 4 26 26 26 66
1 80 -26 13 -28 13 -51 -10z"/>
<path d="M8252 6408 c-28 -28 -5 -88 33 -88 34 0 50 32 33 68 -14 30 -46 40
-66 20z"/>
<path d="M1835 6194 c-10 -10 -15 -29 -13 -48 3 -27 7 -31 33 -31 23 0 33 7
43 28 12 25 12 31 -4 48 -21 23 -37 24 -59 3z"/>
<path d="M8309 6186 c-10 -20 -9 -30 5 -51 32 -49 90 -14 70 42 -13 39 -59 45
-75 9z"/>
<path d="M1796 5986 c-8 -6 -18 -22 -21 -36 -13 -53 64 -80 80 -29 16 49 -24
93 -59 65z"/>
<path d="M8362 5988 c-7 -7 -12 -24 -12 -38 0 -32 17 -50 47 -50 38 0 50 50
20 88 -12 15 -39 16 -55 0z"/>
<path d="M1766 5764 c-33 -32 -14 -84 31 -84 33 0 49 44 28 76 -18 28 -37 30
-59 8z"/>
<path d="M8378 5756 c-17 -39 3 -78 39 -74 35 4 50 29 37 65 -13 39 -59 45
-76 9z"/>
<path d="M1761 5546 c-31 -37 9 -103 47 -80 36 23 23 94 -18 94 -10 0 -23 -6
-29 -14z"/>
<path d="M8384 5546 c-10 -25 0 -69 19 -80 37 -23 77 43 46 80 -15 18 -58 18
-65 0z"/>
<path d="M8376 5334 c-23 -22 -20 -71 4 -84 46 -25 87 43 49 81 -23 23 -33 24
-53 3z"/>
<path d="M1770 5320 c-16 -30 7 -75 39 -75 33 0 48 27 35 62 -12 36 -57 44
-74 13z"/>
<path d="M1812 5118 c-15 -15 -16 -60 0 -76 19 -19 56 -14 68 8 23 43 -34 102
-68 68z"/>
<path d="M8343 5118 c-33 -43 -19 -91 25 -86 51 6 56 88 5 96 -11 2 -24 -3
-30 -10z"/>
<path d="M1866 4904 c-22 -21 -20 -50 4 -74 24 -24 34 -25 54 -4 22 21 20 50
-4 74 -24 24 -34 25 -54 4z"/>
<path d="M8286 4898 c-30 -42 -11 -83 36 -76 28 4 48 59 28 83 -18 22 -46 19
-64 -7z"/>
<path d="M1930 4695 c-9 -11 -10 -24 -4 -48 8 -26 15 -32 38 -32 40 0 56 27
36 63 -18 31 -51 40 -70 17z"/>
<path d="M8209 4683 c-12 -33 -9 -53 14 -67 22 -14 49 2 61 37 19 54 -54 84
-75 30z"/>
<path d="M2014 4489 c-17 -19 -17 -23 -3 -47 11 -20 23 -27 44 -27 26 0 30 4
33 31 3 32 -18 64 -42 64 -7 0 -21 -9 -32 -21z"/>
<path d="M8127 4483 c-18 -37 -11 -62 18 -69 30 -7 44 1 56 33 21 57 -47 90
-74 36z"/>
<path d="M8040 4300 c-26 -26 -26 -66 -1 -80 26 -13 27 -13 51 12 24 26 26 51
4 72 -20 21 -30 20 -54 -4z"/>
<path d="M2110 4295 c-30 -37 29 -105 65 -75 31 26 10 90 -29 90 -13 0 -29 -7
-36 -15z"/>
<path d="M2139 4126 c-23 -51 61 -182 242 -378 l92 -99 -17 -127 c-9 -70 -20
-140 -23 -155 -5 -29 -5 -29 -26 -9 -50 44 -107 33 -107 -21 0 -25 11 -43 55
-87 l56 -56 -16 -102 c-8 -56 -15 -107 -15 -114 0 -6 -12 0 -27 14 -38 35 -70
41 -93 18 -27 -27 -16 -56 46 -120 l53 -55 -32 -226 c-30 -218 -30 -228 -13
-253 17 -27 42 -43 52 -33 3 2 81 184 173 404 108 257 187 429 221 483 29 47
54 87 56 89 2 2 61 -52 131 -122 71 -69 166 -159 213 -201 l85 -76 -14 -168
-14 -167 38 -60 38 -59 14 29 c7 17 37 84 67 150 l53 120 42 -3 c48 -4 61 14
44 59 l-11 28 154 63 c84 35 154 66 154 69 0 3 -25 23 -56 43 l-56 38 -137
-11 c-212 -17 -185 -25 -286 90 -48 55 -137 152 -198 215 -60 63 -108 116
-106 118 2 1 42 26 89 53 55 33 229 109 490 213 223 89 408 165 413 169 4 4
-8 21 -25 38 l-33 31 -228 -28 -228 -28 -56 59 c-57 60 -94 74 -121 47 -21
-21 -14 -66 13 -90 14 -12 25 -24 25 -28 0 -3 -50 -12 -112 -18 l-112 -13 -56
56 c-44 43 -62 55 -87 55 -53 0 -63 -49 -20 -97 11 -13 18 -25 15 -28 -2 -3
-72 -13 -154 -23 l-149 -19 -65 62 c-226 214 -324 285 -395 285 -17 0 -29 -8
-36 -24z"/>
<path d="M7929 4109 c-28 -28 -23 -73 9 -77 50 -7 85 65 43 88 -26 13 -28 13
-52 -11z"/>
<path d="M7809 3929 c-28 -28 -23 -73 9 -77 50 -7 85 65 43 88 -26 13 -28 13
-52 -11z"/>
<path d="M7676 3751 c-21 -23 -18 -60 7 -75 22 -14 49 2 61 37 18 49 -33 77
-68 38z"/>
<path d="M7536 3581 c-21 -23 -18 -60 5 -74 24 -15 69 16 69 46 0 46 -43 62
-74 28z"/>
<path d="M7392 3417 c-25 -26 -28 -47 -10 -65 18 -18 42 -14 66 11 26 28 27
40 6 61 -21 22 -37 20 -62 -7z"/>
<path d="M7237 3262 c-24 -27 -21 -61 6 -71 26 -10 52 1 67 29 25 47 -37 82
-73 42z"/>
<path d="M7075 3110 c-12 -13 -15 -27 -11 -45 9 -35 59 -35 81 -1 33 51 -29
91 -70 46z"/>
<path d="M6914 2965 c-21 -21 -23 -28 -14 -45 16 -30 36 -35 65 -16 27 18 33
54 13 74 -18 18 -36 15 -64 -13z"/>
<path d="M6747 2832 c-40 -44 0 -99 49 -67 16 10 24 25 24 44 0 42 -44 56 -73
23z"/>
<path d="M3582 2704 c-29 -20 -28 -50 3 -70 29 -19 54 -16 69 9 13 20 2 42
-30 64 -17 11 -23 10 -42 -3z"/>
<path d="M6574 2697 c-48 -42 -2 -98 51 -63 30 20 33 61 6 76 -26 13 -26 13
-57 -13z"/>
<path d="M3750 2576 c-18 -23 -8 -59 22 -75 24 -14 28 -14 47 3 27 24 26 32
-4 61 -27 28 -47 31 -65 11z"/>
<path d="M6395 2566 c-27 -27 -25 -50 6 -67 41 -21 89 32 63 69 -20 29 -39 28
-69 -2z"/>
<path d="M6214 2445 c-21 -21 -23 -28 -14 -45 15 -28 34 -34 59 -21 36 20 44
48 21 71 -26 26 -36 25 -66 -5z"/>
<path d="M3927 2453 c-13 -13 -7 -50 11 -66 40 -36 97 -3 73 42 -15 27 -67 42
-84 24z"/>
<path d="M4116 2334 c-23 -23 -19 -49 10 -69 21 -13 31 -15 50 -6 37 17 31 57
-13 80 -28 14 -29 14 -47 -5z"/>
<path d="M6032 2330 c-26 -25 -28 -43 -6 -64 19 -20 18 -20 54 -1 35 18 41 58
11 75 -27 14 -34 13 -59 -10z"/>
<path d="M4303 2223 c-19 -7 -16 -54 5 -69 25 -20 60 -17 72 6 23 42 -28 83
-77 63z"/>
<path d="M5841 2211 c-39 -39 5 -87 55 -61 29 16 37 36 24 61 -14 25 -54 25
-79 0z"/>
<path d="M4482 2103 c-6 -10 -6 -28 -1 -40 15 -40 82 -42 92 -2 12 44 -71 82
-91 42z"/>
<path d="M5656 2107 c-22 -16 -18 -55 6 -71 21 -13 65 8 74 36 12 40 -41 63
-80 35z"/>
<path d="M4688 2009 c-26 -15 -22 -56 7 -75 23 -15 27 -15 50 0 32 21 32 39
-1 65 -30 24 -32 24 -56 10z"/>
<path d="M5472 2004 c-34 -24 -27 -68 11 -72 29 -4 67 21 67 43 0 14 -32 45
-46 45 -5 0 -20 -7 -32 -16z"/>
<path d="M5283 1908 c-33 -16 -39 -46 -15 -70 18 -18 23 -19 48 -6 35 16 44
56 18 75 -21 15 -22 15 -51 1z"/>
<path d="M4867 1903 c-16 -15 -6 -53 18 -69 51 -33 101 20 57 59 -19 17 -63
23 -75 10z"/>
<path d="M5067 1802 c-22 -24 -21 -35 2 -56 24 -22 59 -17 77 9 30 46 -42 88
-79 47z"/>
<path d="M2498 3 c1376 -2 3628 -2 5005 0 1376 1 250 2 -2503 2 -2753 0 -3879
-1 -2502 -2z"/>
</g>
</svg>
