<?xml version="1.0" encoding="iso-8859-1"?>
<!-- Generator: Adobe Illustrator 19.0.0, SVG Export Plug-In . SVG Version: 6.00 Build 0)  -->
<svg version="1.1" id="Capa_1" xmlns="http://www.w3.org/2000/svg" xmlns:xlink="http://www.w3.org/1999/xlink" x="0px" y="0px"
	 viewBox="0 0 512 512" style="enable-background:new 0 0 512 512;" xml:space="preserve">
<polygon style="fill:#FFF5F5;" points="452.062,217.456 58.817,217.456 6.949,454.827 503.93,454.827 "/>
<path style="fill:#7ACBA7;" d="M471.846,308.007h-48.359c-16.5-20.115-50.162-36.455-92.964-45.386
	c-22.838-4.776-48.269-7.439-75.082-7.439c-26.903,0-52.424,2.673-75.313,7.479c-12.806,2.683-24.781,6.027-35.734,9.942
	l-55.138-55.148H58.817l-9.972,45.656l41.521,41.511c-9.071,9.692-14.087,20.335-14.087,31.519
	c0,41.091,67.743,75.032,155.501,80.259l-0.1,38.427h52.234l0.1-38.748c65.14-4.716,118.556-25.311,140.203-52.715l0.12-0.2H483.9
	L471.846,308.007z M255.439,383.991c-58.472,0-105.88-21.426-105.88-47.849c0-19.134,24.851-35.644,60.755-43.293
	c13.687-2.924,28.986-4.556,45.126-4.556c16.05,0,31.268,1.612,44.905,4.506c36.024,7.639,60.975,24.18,60.975,43.343
	C361.32,362.565,313.911,383.991,255.439,383.991z"/>
<g>
	<path style="fill:#F7CF69;" d="M471.846,308.007h-48.359c-16.5-20.115-50.162-36.455-92.964-45.386l45.146-45.166h76.394
		L471.846,308.007z"/>
	<path style="fill:#F7CF69;" d="M180.127,262.663c-12.806,2.683-24.781,6.027-35.734,9.942l-55.138-55.148h45.666L180.127,262.663z"
		/>
</g>
<path style="fill:#E63950;" d="M375.667,217.456l-45.146,45.166c-22.838-4.776-48.269-7.439-75.082-7.439
	c-26.903,0-52.424,2.673-75.313,7.479l-45.206-45.206L375.667,217.456L375.667,217.456z"/>
<path style="fill:#F7CF69;" d="M231.78,416.401l-0.1,38.427H76.279l9.141-46.237H17.086l-0.04-0.01l31.799-145.469l41.521,41.511
	c-9.071,9.692-14.087,20.335-14.087,31.519C76.279,377.233,144.022,411.174,231.78,416.401z"/>
<polygon style="fill:#168C80;" points="85.42,408.592 76.279,454.828 6.944,454.828 17.046,408.581 17.086,408.592 "/>
<path style="fill:#F7CF69;" d="M438.905,449.011c0,1.962,0.09,3.905,0.26,5.817H283.914l0.1-38.748
	c65.14-4.716,118.556-25.311,140.203-52.715l0.12-0.2H483.9l4.936,22.588C460.211,392.561,438.905,418.294,438.905,449.011z"/>
<path style="fill:#168C80;" d="M503.935,454.828h-64.77c-0.17-1.912-0.26-3.855-0.26-5.817c0-30.718,21.306-56.449,49.931-63.258
	L503.935,454.828z"/>
<path style="fill:#B5D3E3;" d="M361.32,336.142c0,26.423-47.408,47.849-105.88,47.849s-105.88-21.426-105.88-47.849
	c0-19.134,24.851-35.644,60.755-43.293c13.687-2.924,28.986-4.556,45.126-4.556c16.05,0,31.268,1.612,44.905,4.506
	C336.369,300.439,361.32,316.979,361.32,336.142z"/>
<polygon style="fill:#FFB64C;" points="58.817,217.456 6.949,454.827 36.988,454.827 88.856,217.456 "/>
<polygon style="fill:#13776B;" points="17.086,408.592 17.053,408.583 6.949,454.827 36.988,454.827 47.09,408.592 "/>
<polygon style="fill:#57BF93;" points="58.817,217.456 48.845,263.112 73.494,287.755 88.855,217.456 "/>
<path style="fill:#EC5569;" d="M395.835,82.412L395.835,82.412c-31.724-31.724-83.158-31.724-114.882,0l-17.92,17.92
	c-4.273,4.273-11.201,4.273-15.474,0l-17.633-17.633c-31.724-31.724-83.158-31.724-114.882,0l0,0
	c-31.724,31.724-31.724,83.158,0,114.882L247.57,330.108c4.273,4.273,11.201,4.273,15.474,0l132.791-132.813
	C427.559,165.57,427.559,114.136,395.835,82.412z"/>
<path style="fill:#E63950;" d="M145.083,197.581c-31.724-31.724-31.724-83.158,0-114.882l0,0
	c12.024-12.024,26.881-19.48,42.422-22.39c-25.461-4.767-52.761,2.69-72.46,22.39l0,0c-31.724,31.724-31.724,83.159,0,114.882
	l132.527,132.527c4.273,4.273,11.201,4.273,15.474,0l7.282-7.283L145.083,197.581z"/>
<circle style="fill:#B5D3E3;" cx="255.434" cy="183.946" r="42.521"/>
<path d="M120.914,191.558c-13.924-13.925-21.593-32.439-21.593-52.131s7.668-38.207,21.594-52.131s32.439-21.594,52.131-21.594
	s38.207,7.668,52.131,21.594l17.633,17.633c3.484,3.485,8.118,5.405,13.047,5.405c4.929,0,9.563-1.919,13.047-5.405l17.92-17.919
	c19.312-19.312,47.554-26.354,73.704-18.384c3.966,1.208,8.164-1.026,9.373-4.993c1.21-3.967-1.025-8.163-4.993-9.373
	c-31.472-9.595-65.459-1.115-88.702,22.13l-17.92,17.919c-0.875,0.875-1.896,1.005-2.427,1.005c-0.531,0-1.552-0.13-2.427-1.005
	l-17.633-17.633c-34.602-34.602-90.901-34.602-125.502,0c-34.602,34.601-34.602,90.901,0,125.501l7.056,7.056H59.378
	c-3.529,0-6.583,2.458-7.336,5.906l-9.803,44.864c-0.165,0.503-0.28,1.018-0.336,1.541L0.173,452.512
	c-0.486,2.221,0.062,4.542,1.487,6.312c1.425,1.771,3.575,2.8,5.849,2.8h496.982c2.274,0,4.423-1.029,5.849-2.8
	c1.426-1.77,1.972-4.091,1.487-6.312l-14.954-68.438c-0.033-0.257-0.08-0.517-0.141-0.775c-0.031-0.133-0.075-0.259-0.113-0.389
	l-4.794-21.939c-0.006-0.028-0.012-0.056-0.018-0.084l-11.93-54.595c-0.058-0.436-0.147-0.86-0.277-1.269l-19.64-89.883
	c-0.753-3.448-3.807-5.906-7.336-5.906h-58.258l7.341-7.342c34.601-34.602,34.601-90.902,0-125.501
	c-2.604-2.605-5.392-5.069-8.285-7.323c-3.272-2.55-7.991-1.963-10.539,1.308c-2.549,3.271-1.963,7.99,1.308,10.539
	c2.406,1.875,4.727,3.926,6.896,6.095c28.744,28.745,28.744,75.518,0,104.263L258.295,324.085c-1.338,1.338-3.514,1.339-4.854,0
	L120.914,191.558z M446.578,224.252l16.505,75.533h-35.598c-16.344-18.097-44.85-32.797-81.518-42.145l33.383-33.389
	L446.578,224.252L446.578,224.252z M255.868,340.1c4.725,0,9.45-1.798,13.047-5.396l34.378-34.383
	c30.715,7.264,51.076,21.145,51.076,35.108c0,9.515-9.693,19.353-26.595,26.991c-19.046,8.608-44.537,13.348-71.775,13.348
	c-57.97,0-98.369-21.259-98.369-40.339c0-13.922,20.273-27.779,50.859-35.056l34.332,34.332
	C246.418,338.302,251.143,340.1,255.868,340.1z M165.819,257.702c-6.523,1.673-12.834,3.526-18.875,5.552l-39.002-39.002h24.428
	L165.819,257.702z M65.424,224.252h21.278l52.946,52.946c1.433,1.433,3.352,2.2,5.311,2.2c0.847,0,1.701-0.143,2.526-0.439
	c9.542-3.411,19.883-6.364,30.788-8.804l17.942,17.941c-33.39,9.813-53.602,27.36-53.602,47.331
	c0,15.907,12.581,30.351,35.428,40.676c20.949,9.467,48.635,14.681,77.96,14.681c29.325,0,57.011-5.214,77.96-14.681
	c22.846-10.325,35.428-24.77,35.428-40.676c0-20.022-20.292-37.593-53.812-47.393l17.93-17.933
	c39.206,8.741,69.954,23.933,84.732,41.954c1.427,1.739,3.557,2.747,5.806,2.747h42.319l8.771,40.139h-50.239
	c-2.54,0-4.899,1.283-6.282,3.395c-6.986,8.707-17.611,16.753-31.588,23.919c-3.691,1.892-5.148,6.418-3.256,10.108
	c1.33,2.594,3.961,4.085,6.688,4.085c1.153,0,2.324-0.266,3.42-0.829c14.727-7.551,26.345-16.172,34.592-25.66h49.947l2.153,9.852
	c-28.43,9.857-47.876,36.244-48.572,66.791H292.008l0.061-24.315c26.317-2.392,51.48-7.455,73.161-14.745
	c3.931-1.322,6.046-5.58,4.725-9.511c-1.322-3.932-5.58-6.047-9.511-4.725c-22.403,7.532-48.824,12.569-76.409,14.568
	c-3.919,0.284-6.957,3.541-6.967,7.47l-0.079,31.256h-37.218l0.078-30.893c0.01-3.981-3.088-7.278-7.063-7.515
	c-83.235-4.963-148.436-36.925-148.436-72.768c0-8.962,4.055-17.839,12.053-26.383c2.768-2.958,2.691-7.577-0.172-10.441
	l-38.618-38.617L65.424,224.252z M91.78,403.111c-1.426-1.735-3.555-2.741-5.801-2.741H26.94l26.866-122.951l26.911,26.911
	c-7.559,9.83-11.384,20.264-11.384,31.1c0,44.095,64.956,80.278,155.48,87.275l-0.061,23.901H85.982l7.364-37.272
	C93.78,407.13,93.207,404.848,91.78,403.111z M23.658,415.389h53.182l-6.168,31.217H16.837L23.658,415.389z M447.016,446.606
	c0.674-23.46,15.287-43.776,36.786-51.996l11.362,51.996H447.016z"/>
<path d="M205.969,183.23c0,27.587,22.444,50.031,50.031,50.031s50.031-22.444,50.031-50.031S283.587,133.199,256,133.199
	C228.413,133.199,205.969,155.642,205.969,183.23z M291.012,183.23c0,19.306-15.706,35.012-35.012,35.012
	c-19.306,0-35.012-15.706-35.012-35.012s15.706-35.012,35.012-35.012S291.012,163.923,291.012,183.23z"/>
<g>
</g>
<g>
</g>
<g>
</g>
<g>
</g>
<g>
</g>
<g>
</g>
<g>
</g>
<g>
</g>
<g>
</g>
<g>
</g>
<g>
</g>
<g>
</g>
<g>
</g>
<g>
</g>
<g>
</g>
</svg>
