<?xml version="1.0" standalone="no"?>
<!DOCTYPE svg PUBLIC "-//W3C//DTD SVG 20010904//EN"
 "http://www.w3.org/TR/2001/REC-SVG-20010904/DTD/svg10.dtd">
<svg version="1.0" xmlns="http://www.w3.org/2000/svg"
 width="1500.000000pt" height="1500.000000pt" viewBox="0 0 1500.000000 1500.000000"
 preserveAspectRatio="xMidYMid meet">

<g transform="translate(0.000000,1500.000000) scale(0.100000,-0.100000)"
fill="#000000" stroke="none">
<path d="M7040 12750 c-102 -26 -210 -58 -240 -70 -113 -45 -654 -325 -920
-476 -151 -86 -417 -235 -590 -331 -438 -244 -694 -405 -1521 -958 -1066 -712
-1215 -819 -1384 -996 -104 -108 -195 -238 -195 -278 0 -14 7 -37 16 -50 14
-19 23 -22 58 -18 22 3 52 8 66 11 38 10 51 -6 57 -70 8 -77 15 -90 69 -115
55 -27 83 -62 123 -159 42 -102 53 -116 100 -124 32 -5 47 -15 81 -58 47 -60
80 -78 127 -71 30 5 32 4 38 -33 3 -22 11 -64 18 -94 11 -49 15 -55 40 -58 16
-2 38 5 53 17 59 46 111 16 121 -71 2 -24 10 -56 16 -73 15 -41 126 -195 141
-195 27 0 50 30 63 79 16 65 60 130 110 163 21 13 97 51 169 82 132 58 158 72
449 251 347 213 436 287 548 461 53 82 58 87 113 102 28 8 67 36 121 85 176
163 236 182 365 116 20 -10 42 -19 48 -19 6 0 10 25 10 59 0 56 1 59 31 71 36
15 48 7 58 -41 10 -49 37 -59 170 -59 94 0 122 4 155 20 51 24 63 43 81 131
29 139 61 163 178 135 95 -22 110 -21 139 9 30 30 106 47 176 38 65 -7 89 6
99 60 l9 42 83 8 c46 5 139 24 205 44 155 46 169 48 184 30 11 -12 5 -21 -35
-49 -26 -19 -84 -54 -128 -78 -315 -169 -1041 -654 -1560 -1043 -429 -321
-667 -520 -1403 -1169 -444 -392 -539 -485 -627 -618 -128 -193 -48 -320 201
-320 36 0 87 -7 114 -16 42 -14 55 -25 102 -91 29 -42 74 -95 101 -118 87 -79
259 -133 362 -114 50 9 55 12 119 62 51 41 63 29 23 -22 -41 -52 -100 -94
-165 -116 -102 -36 -106 -40 -177 -147 -54 -81 -111 -145 -265 -298 -294 -293
-526 -565 -628 -736 -51 -86 -54 -89 -89 -89 -50 0 -74 -34 -80 -116 -5 -56
-3 -66 16 -83 31 -28 173 -44 249 -28 82 17 100 15 134 -13 43 -37 100 -51
157 -39 l48 10 12 -59 c18 -86 42 -107 126 -107 36 0 95 7 130 16 89 22 99 17
92 -50 -6 -61 -34 -122 -83 -183 -19 -22 -38 -53 -44 -68 -13 -35 -13 -101 1
-127 11 -20 65 -48 94 -48 28 0 65 46 65 83 0 52 18 61 50 26 37 -38 74 -38
129 2 l42 32 -50 46 c-28 26 -51 54 -51 62 0 8 18 46 40 85 49 90 138 172 250
233 84 46 98 61 117 125 7 25 27 40 122 90 142 76 207 137 247 233 27 67 68
123 89 123 5 0 28 9 49 21 l38 20 24 -22 c27 -25 30 -55 9 -83 -31 -41 -8 -76
48 -76 20 0 35 16 78 82 55 86 74 129 84 190 8 52 47 94 103 112 26 8 68 21
95 30 58 19 63 5 17 -47 -16 -19 -30 -45 -30 -57 0 -21 3 -22 45 -18 36 4 62
18 119 62 40 31 78 56 85 56 6 0 11 7 11 15 0 33 38 69 144 139 155 101 266
159 266 140 0 -24 -28 -84 -55 -116 -17 -20 -25 -42 -25 -67 0 -45 14 -61 56
-61 32 0 44 13 44 51 0 23 15 25 24 4 8 -22 60 -19 82 6 18 21 18 21 -9 41
-35 26 -34 42 11 107 26 38 57 66 105 95 49 29 73 51 83 74 14 34 54 58 66 39
10 -16 98 0 158 31 68 33 73 58 18 85 -43 21 -41 37 8 60 46 22 53 22 64 -8
10 -26 52 -36 65 -15 3 6 18 10 32 10 14 0 60 16 103 35 43 19 84 35 92 35 8
0 42 18 76 40 34 21 76 47 93 56 l32 16 -6 -58 c-8 -78 -30 -105 -103 -127
-130 -41 -178 -62 -244 -108 -62 -44 -90 -73 -199 -209 -15 -19 -176 -147
-357 -284 -474 -359 -733 -560 -843 -651 -87 -73 -406 -410 -535 -565 -129
-156 -243 -360 -253 -452 -7 -66 13 -110 85 -189 27 -30 61 -78 76 -106 36
-71 62 -72 111 -4 46 63 73 70 152 39 68 -27 76 -47 43 -111 -14 -26 -24 -68
-27 -113 -5 -68 -4 -74 20 -98 25 -25 29 -26 160 -26 89 0 150 5 182 15 27 8
50 13 52 12 1 -2 -5 -18 -15 -37 -11 -22 -27 -37 -46 -42 -46 -11 -176 -147
-176 -182 0 -3 16 -23 35 -45 24 -26 38 -54 44 -86 5 -26 14 -52 20 -58 7 -7
48 -14 92 -16 98 -4 121 9 155 86 31 70 28 93 -15 115 -51 26 -83 60 -77 83
10 41 67 189 84 217 15 26 80 81 137 115 11 7 41 12 66 13 63 0 95 26 115 97
21 71 43 93 95 93 47 0 76 25 121 102 19 33 47 60 97 93 45 30 123 102 221
205 128 134 162 164 223 196 151 79 320 206 467 354 70 70 107 97 205 150 65
36 195 116 288 178 146 98 173 112 198 107 30 -7 37 3 18 22 -8 8 6 22 49 52
34 23 64 41 68 41 4 0 15 7 24 15 11 10 41 17 76 19 59 3 88 15 153 62 l35 25
13 -23 c7 -13 12 -33 13 -45 0 -35 28 -56 67 -48 26 5 33 3 33 -10 0 -20 -20
-28 -73 -29 -36 -1 -43 -5 -51 -29 -14 -38 2 -60 50 -70 21 -4 43 -12 48 -17
6 -6 -38 -58 -120 -142 -105 -108 -138 -149 -174 -218 -39 -74 -56 -94 -135
-159 -49 -41 -160 -146 -245 -233 -86 -87 -159 -158 -164 -158 -4 0 1 16 13
36 21 36 28 74 13 74 -18 0 -165 -134 -227 -207 -37 -43 -87 -111 -112 -153
-25 -41 -61 -92 -79 -113 -19 -20 -34 -43 -34 -50 0 -30 40 -218 53 -250 28
-67 86 -75 125 -17 l23 35 112 0 c123 0 157 11 242 80 46 37 78 55 97 55 19 0
45 -56 53 -113 11 -73 50 -93 150 -75 15 2 21 -3 23 -24 5 -43 -34 -62 -108
-55 -53 6 -62 4 -86 -16 -22 -19 -27 -33 -28 -70 -1 -56 15 -76 70 -83 75 -10
86 -15 124 -54 57 -59 91 -54 146 19 19 25 70 78 113 116 44 39 161 143 260
232 99 90 191 165 203 167 13 3 45 7 71 9 34 3 59 13 86 35 109 88 174 131
217 147 102 37 157 69 227 134 40 36 99 83 132 103 69 42 254 127 332 152 64
21 98 47 122 94 28 54 75 93 173 145 77 40 90 44 102 31 8 -8 18 -23 21 -34
10 -32 46 -24 105 25 65 53 157 103 257 139 95 33 141 57 178 92 17 16 38 27
47 26 9 -2 65 23 125 55 82 44 126 76 183 132 87 86 144 117 175 97 37 -24 30
-52 -25 -103 -29 -26 -70 -60 -92 -74 -49 -33 -63 -53 -72 -104 -20 -107 -111
-217 -283 -346 -54 -39 -130 -102 -168 -138 -39 -36 -91 -78 -117 -93 -55 -32
-78 -63 -85 -117 -5 -39 -7 -40 -56 -51 -28 -6 -65 -20 -83 -31 -52 -31 -137
-130 -187 -215 -25 -44 -67 -99 -92 -124 -61 -59 -75 -88 -75 -154 0 -45 -4
-58 -22 -70 -12 -9 -35 -16 -50 -16 -24 0 -29 6 -39 43 -6 23 -16 48 -21 54
-15 19 -48 16 -85 -7 -27 -16 -33 -26 -33 -54 0 -27 7 -39 30 -56 25 -18 28
-25 20 -41 -9 -17 -18 -18 -64 -13 -101 12 -160 -28 -243 -166 -24 -41 -63
-94 -85 -117 -41 -41 -41 -42 -35 -101 10 -92 14 -98 47 -67 15 14 50 32 79
40 45 12 64 26 159 123 77 78 140 131 224 186 155 103 230 182 296 312 83 162
147 220 293 269 75 25 109 52 109 86 0 14 -7 19 -25 19 -14 0 -25 4 -25 10 0
17 131 150 230 232 52 44 176 141 275 216 99 75 205 160 237 189 71 65 99 80
183 93 116 19 200 78 276 196 39 60 44 64 108 83 80 24 160 78 262 176 41 41
87 77 101 80 34 9 98 -19 98 -42 -1 -45 -57 -109 -198 -229 -67 -58 -136 -124
-153 -146 -20 -29 -54 -55 -108 -83 -156 -84 -268 -169 -564 -431 -68 -60
-188 -159 -266 -218 -157 -121 -238 -189 -456 -391 -209 -192 -335 -299 -451
-383 -54 -39 -130 -105 -167 -147 -77 -85 -246 -237 -480 -433 -134 -113 -162
-132 -191 -132 -75 0 -115 -30 -204 -150 -63 -86 -137 -173 -235 -278 -82 -87
-101 -127 -92 -192 l6 -47 -69 -50 c-72 -53 -139 -128 -173 -194 -24 -48 -24
-49 7 -49 19 0 39 14 72 50 48 53 73 61 103 34 17 -15 12 -24 -87 -155 -57
-76 -100 -139 -95 -139 4 0 14 7 22 16 7 9 47 33 88 54 87 43 146 101 261 255
103 138 200 234 280 274 53 28 69 41 82 72 20 48 59 72 168 105 123 37 146 65
119 142 -10 30 -8 35 31 79 59 68 83 80 190 99 108 18 149 33 192 69 30 26 71
32 98 15 12 -8 8 -16 -23 -48 -20 -21 -37 -48 -37 -59 0 -49 143 -39 230 15
95 60 280 212 405 333 72 69 211 190 310 269 283 225 821 676 918 770 88 84
89 85 143 86 52 1 56 4 123 67 38 35 116 95 172 133 57 37 136 91 174 120 l70
52 65 -5 c80 -6 133 7 196 50 54 36 144 141 144 168 0 23 -28 31 -68 19 -38
-10 -58 -5 -67 18 -5 12 20 43 93 114 146 143 212 180 376 215 35 7 41 13 53
49 22 67 52 88 126 88 45 0 76 -7 109 -23 73 -35 131 -14 298 108 68 50 145
143 136 166 -6 18 -70 20 -113 4 -25 -9 -22 -4 23 43 28 29 63 74 78 100 37
67 102 142 255 296 113 114 135 132 162 132 48 0 97 58 139 166 46 117 66 139
148 164 86 25 109 42 123 90 17 56 -4 84 -77 106 -31 9 -74 24 -96 34 l-39 17
28 10 c15 6 47 16 70 22 49 13 63 33 63 89 0 42 -20 67 -75 95 -17 8 -38 24
-48 35 -17 19 -16 20 28 36 54 21 85 57 85 101 0 34 -33 85 -54 85 -8 0 -35 9
-60 21 -51 22 -68 21 -171 -11 -39 -12 -121 -23 -235 -30 -281 -18 -428 -43
-670 -113 -20 -6 -60 -7 -93 -3 -56 7 -57 8 -51 34 10 40 30 77 80 145 25 33
43 65 41 71 -2 6 -28 24 -58 39 -72 38 -141 35 -229 -11 -79 -42 -104 -33 -63
20 16 20 52 58 81 84 29 26 82 83 117 128 81 104 109 130 167 156 36 16 64 20
116 18 79 -3 97 6 106 57 4 19 16 55 27 80 11 26 18 49 16 52 -3 2 -18 -5 -34
-17 -41 -29 -103 -49 -128 -40 -11 4 -27 25 -35 47 -20 54 -37 72 -82 90 -21
8 -38 17 -38 20 0 9 56 54 100 81 41 25 53 27 133 25 61 -1 89 2 93 10 2 7 -8
48 -24 92 l-28 80 -79 43 c-92 49 -116 50 -271 14 -50 -12 -187 -35 -305 -52
-276 -39 -384 -60 -603 -115 -99 -25 -183 -45 -188 -45 -13 0 -9 45 7 66 25
34 18 67 -25 109 -48 47 -54 73 -39 161 14 79 16 82 167 189 116 83 155 100
218 92 43 -4 44 -4 44 24 0 19 -12 42 -35 68 -40 44 -48 91 -15 91 26 0 100
98 100 134 0 17 -6 28 -17 32 -10 2 -39 16 -66 29 -61 32 -82 31 -137 -5 -25
-16 -55 -30 -68 -30 -19 0 -11 12 51 73 40 40 89 79 108 87 104 41 106 123 3
166 -44 19 -86 17 -229 -6 -66 -11 -171 -25 -234 -30 -135 -11 -156 -23 -147
-81 8 -52 -15 -76 -83 -89 -86 -16 -110 -13 -134 16 -51 62 -67 74 -96 74 -58
0 -595 -127 -866 -206 -202 -58 -285 -57 -218 5 16 14 48 55 72 89 46 68 90
102 132 102 43 0 61 30 50 79 -10 45 4 135 32 201 8 19 17 47 21 61 l6 27 -93
4 c-95 4 -152 23 -164 54 -10 26 38 62 122 91 98 34 106 54 51 123 l-35 44 21
38 c13 22 33 41 51 48 55 19 95 59 127 124 55 116 53 197 -5 222 -48 20 -69
19 -60 -3 44 -104 39 -147 -24 -188 -20 -14 -45 -39 -55 -56 -13 -22 -22 -28
-34 -23 -10 4 -42 16 -72 27 -122 43 -293 4 -546 -124 -73 -36 -136 -64 -141
-60 -4 3 -14 19 -21 34 -17 38 -34 42 -121 28 -103 -18 -184 -44 -333 -108
-123 -53 -127 -54 -157 -39 -16 9 -37 16 -46 16 -9 0 -28 9 -43 20 -18 13 -56
24 -111 30 -79 10 -85 10 -106 -10 -22 -21 -23 -21 -107 -4 -68 13 -101 15
-162 7 l-77 -9 28 23 c45 37 187 128 359 229 155 92 314 206 314 226 0 6 -10
8 -22 5 -13 -3 -46 -9 -75 -13 -46 -6 -52 -4 -63 15 -9 18 -7 29 14 66 31 53
32 82 5 134 -16 31 -18 44 -10 60 10 18 104 61 134 61 33 0 117 51 131 79 13
25 35 134 36 178 0 7 19 29 41 50 23 21 67 76 99 123 31 47 69 103 83 124 36
52 37 113 3 154 -30 34 -185 112 -225 112 -16 0 -34 7 -42 16 -35 42 -129 69
-285 80 l-91 6 -29 -35 c-16 -19 -36 -36 -44 -38 -8 -1 -46 8 -85 20 -123 40
-254 40 -565 -3 -310 -43 -438 -64 -690 -113 -238 -46 -290 -46 -395 -3 -52
21 -104 34 -148 38 -76 5 -97 22 -97 78 0 38 12 49 130 112 144 77 163 101
181 228 19 135 30 147 166 171 112 19 123 28 123 108 0 69 15 90 80 115 19 8
81 42 138 76 57 35 116 66 133 69 33 8 38 29 14 74 -23 45 -69 60 -216 71
-149 10 -171 15 -246 54 -73 37 -124 33 -343 -24z m5411 -5852 c-17 -15 -38
-28 -46 -28 -9 0 1 14 23 34 20 19 41 32 46 29 5 -4 -5 -19 -23 -35z m-5301
-2652 c0 -2 -8 -10 -17 -17 -16 -13 -17 -12 -4 4 13 16 21 21 21 13z"/>
<path d="M7540 11930 c-28 -28 -26 -66 3 -74 31 -8 34 -8 51 10 22 21 20 61
-3 74 -26 13 -28 13 -51 -10z"/>
<path d="M4872 9530 c-72 -17 -95 -76 -37 -92 65 -19 160 10 192 58 14 22 14
27 2 35 -17 10 -111 10 -157 -1z"/>
<path d="M13706 8170 c-48 -56 -86 -103 -83 -106 10 -10 83 7 115 26 43 27 64
70 60 131 l-3 50 -89 -101z"/>
<path d="M13252 7550 c-31 -29 -28 -63 9 -94 44 -38 75 -35 89 9 26 79 -41
138 -98 85z"/>
<path d="M13125 5251 c-22 -22 -50 -41 -64 -43 -20 -2 -26 -9 -26 -28 0 -21 5
-25 30 -25 23 0 31 5 33 23 3 19 9 22 46 22 50 0 80 25 74 62 -6 41 -49 36
-93 -11z"/>
<path d="M6763 4701 c-25 -12 -52 -35 -67 -58 -20 -29 -36 -42 -69 -50 -57
-15 -95 -47 -118 -97 -33 -72 -27 -80 34 -44 64 38 104 74 123 109 9 19 25 29
51 34 50 9 89 39 113 86 l20 39 -22 0 c-13 0 -42 -9 -65 -19z"/>
<path d="M6355 4389 c-35 -10 -55 -34 -55 -66 0 -30 22 -39 59 -23 28 11 44
33 56 78 7 25 -6 27 -60 11z"/>
<path d="M6737 3761 c-24 -78 -22 -105 13 -144 27 -31 136 -85 147 -73 3 2
-16 30 -42 62 -48 58 -76 112 -93 174 l-9 35 -16 -54z"/>
<path d="M7710 3341 c-76 -40 -93 -61 -98 -125 -5 -62 29 -180 54 -190 30 -12
70 -5 122 19 124 58 135 83 73 161 -46 59 -51 72 -39 103 6 18 4 29 -8 42 -23
25 -39 23 -104 -10z"/>
<path d="M8411 2894 c-84 -65 -165 -159 -264 -304 -39 -58 -90 -129 -114 -158
-47 -58 -78 -112 -65 -112 5 0 35 37 67 83 33 45 125 150 205 232 165 171 280
315 252 315 -5 0 -42 -25 -81 -56z"/>
<path d="M8419 1288 c-31 -35 -36 -57 -17 -76 30 -30 88 6 88 56 0 27 -15 52
-33 52 -4 0 -21 -15 -38 -32z"/>
</g>
</svg>
